%TF.GenerationSoftware,KiCad,Pcbnew,9.0.7-9.0.7~ubuntu24.04.1*%
%TF.CreationDate,2026-04-06T00:42:38-04:00*%
%TF.ProjectId,VECTAR-PSU-REV2,56454354-4152-42d5-9053-552d52455632,rev?*%
%TF.SameCoordinates,Original*%
%TF.FileFunction,Legend,Bot*%
%TF.FilePolarity,Positive*%
%FSLAX46Y46*%
G04 Gerber Fmt 4.6, Leading zero omitted, Abs format (unit mm)*
G04 Created by KiCad (PCBNEW 9.0.7-9.0.7~ubuntu24.04.1) date 2026-04-06 00:42:38*
%MOMM*%
%LPD*%
G01*
G04 APERTURE LIST*
%ADD10C,0.150000*%
%ADD11C,0.152400*%
%ADD12C,0.120000*%
%ADD13C,0.127000*%
%ADD14C,0.200000*%
G04 APERTURE END LIST*
D10*
X130054819Y-93900000D02*
X130292914Y-93900000D01*
X130197676Y-93661905D02*
X130292914Y-93900000D01*
X130292914Y-93900000D02*
X130197676Y-94138095D01*
X130483390Y-93757143D02*
X130292914Y-93900000D01*
X130292914Y-93900000D02*
X130483390Y-94042857D01*
X159185057Y-57729761D02*
X159137438Y-57634523D01*
X159137438Y-57634523D02*
X159042200Y-57539285D01*
X159042200Y-57539285D02*
X158899342Y-57396428D01*
X158899342Y-57396428D02*
X158851723Y-57301190D01*
X158851723Y-57301190D02*
X158851723Y-57205952D01*
X159089819Y-57253571D02*
X159042200Y-57158333D01*
X159042200Y-57158333D02*
X158946961Y-57063095D01*
X158946961Y-57063095D02*
X158756485Y-57015476D01*
X158756485Y-57015476D02*
X158423152Y-57015476D01*
X158423152Y-57015476D02*
X158232676Y-57063095D01*
X158232676Y-57063095D02*
X158137438Y-57158333D01*
X158137438Y-57158333D02*
X158089819Y-57253571D01*
X158089819Y-57253571D02*
X158089819Y-57444047D01*
X158089819Y-57444047D02*
X158137438Y-57539285D01*
X158137438Y-57539285D02*
X158232676Y-57634523D01*
X158232676Y-57634523D02*
X158423152Y-57682142D01*
X158423152Y-57682142D02*
X158756485Y-57682142D01*
X158756485Y-57682142D02*
X158946961Y-57634523D01*
X158946961Y-57634523D02*
X159042200Y-57539285D01*
X159042200Y-57539285D02*
X159089819Y-57444047D01*
X159089819Y-57444047D02*
X159089819Y-57253571D01*
X159089819Y-58634523D02*
X159089819Y-58063095D01*
X159089819Y-58348809D02*
X158089819Y-58348809D01*
X158089819Y-58348809D02*
X158232676Y-58253571D01*
X158232676Y-58253571D02*
X158327914Y-58158333D01*
X158327914Y-58158333D02*
X158375533Y-58063095D01*
D11*
%TO.C,U1*%
X126774801Y-92624451D02*
X126774801Y-90719451D01*
X129975201Y-90719451D02*
X129975201Y-92624451D01*
D12*
%TO.C,C10*%
X128440580Y-95190000D02*
X128159420Y-95190000D01*
X128440580Y-96210000D02*
X128159420Y-96210000D01*
%TO.C,C21*%
X134090000Y-94359420D02*
X134090000Y-94640580D01*
X135110000Y-94359420D02*
X135110000Y-94640580D01*
%TO.C,R11*%
X126562742Y-87822500D02*
X127037258Y-87822500D01*
X126562742Y-86777500D02*
X127037258Y-86777500D01*
%TO.C,R6*%
X151977500Y-71437742D02*
X151977500Y-71912258D01*
X153022500Y-71437742D02*
X153022500Y-71912258D01*
D13*
%TO.C,Q1*%
X154540000Y-57850000D02*
X154540000Y-58625000D01*
X155380000Y-57850000D02*
X154540000Y-57850000D01*
X156330000Y-59150000D02*
X155670000Y-59150000D01*
X156620000Y-57850000D02*
X157460000Y-57850000D01*
X157460000Y-57850000D02*
X157460000Y-58625000D01*
D14*
X157300000Y-61000000D02*
G75*
G02*
X157100000Y-61000000I-100000J0D01*
G01*
X157100000Y-61000000D02*
G75*
G02*
X157300000Y-61000000I100000J0D01*
G01*
D12*
%TO.C,R5*%
X157237258Y-64977500D02*
X156762742Y-64977500D01*
X157237258Y-66022500D02*
X156762742Y-66022500D01*
%TO.C,R4*%
X157237258Y-67477500D02*
X156762742Y-67477500D01*
X157237258Y-68522500D02*
X156762742Y-68522500D01*
%TO.C,R1*%
X168815000Y-66822936D02*
X168815000Y-67277064D01*
X170285000Y-66822936D02*
X170285000Y-67277064D01*
%TO.C,R3*%
X157477500Y-71912258D02*
X157477500Y-71437742D01*
X158522500Y-71912258D02*
X158522500Y-71437742D01*
%TD*%
M02*
