%TF.GenerationSoftware,KiCad,Pcbnew,9.0.7-9.0.7~ubuntu24.04.1*%
%TF.CreationDate,2026-04-06T00:42:38-04:00*%
%TF.ProjectId,VECTAR-PSU-REV2,56454354-4152-42d5-9053-552d52455632,rev?*%
%TF.SameCoordinates,Original*%
%TF.FileFunction,Paste,Top*%
%TF.FilePolarity,Positive*%
%FSLAX46Y46*%
G04 Gerber Fmt 4.6, Leading zero omitted, Abs format (unit mm)*
G04 Created by KiCad (PCBNEW 9.0.7-9.0.7~ubuntu24.04.1) date 2026-04-06 00:42:38*
%MOMM*%
%LPD*%
G01*
G04 APERTURE LIST*
G04 Aperture macros list*
%AMRoundRect*
0 Rectangle with rounded corners*
0 $1 Rounding radius*
0 $2 $3 $4 $5 $6 $7 $8 $9 X,Y pos of 4 corners*
0 Add a 4 corners polygon primitive as box body*
4,1,4,$2,$3,$4,$5,$6,$7,$8,$9,$2,$3,0*
0 Add four circle primitives for the rounded corners*
1,1,$1+$1,$2,$3*
1,1,$1+$1,$4,$5*
1,1,$1+$1,$6,$7*
1,1,$1+$1,$8,$9*
0 Add four rect primitives between the rounded corners*
20,1,$1+$1,$2,$3,$4,$5,0*
20,1,$1+$1,$4,$5,$6,$7,0*
20,1,$1+$1,$6,$7,$8,$9,0*
20,1,$1+$1,$8,$9,$2,$3,0*%
G04 Aperture macros list end*
%ADD10RoundRect,0.200000X0.200000X0.275000X-0.200000X0.275000X-0.200000X-0.275000X0.200000X-0.275000X0*%
%ADD11R,3.505200X3.657600*%
%ADD12RoundRect,0.200000X-0.200000X-0.275000X0.200000X-0.275000X0.200000X0.275000X-0.200000X0.275000X0*%
%ADD13RoundRect,0.225000X-0.225000X-0.250000X0.225000X-0.250000X0.225000X0.250000X-0.225000X0.250000X0*%
%ADD14RoundRect,0.200000X-0.275000X0.200000X-0.275000X-0.200000X0.275000X-0.200000X0.275000X0.200000X0*%
%ADD15RoundRect,0.225000X0.250000X-0.225000X0.250000X0.225000X-0.250000X0.225000X-0.250000X-0.225000X0*%
%ADD16R,0.660000X0.320000*%
%ADD17R,1.500000X1.100000*%
%ADD18RoundRect,0.200000X0.275000X-0.200000X0.275000X0.200000X-0.275000X0.200000X-0.275000X-0.200000X0*%
%ADD19R,0.800000X0.800000*%
%ADD20RoundRect,0.250000X-0.250000X-0.475000X0.250000X-0.475000X0.250000X0.475000X-0.250000X0.475000X0*%
%ADD21R,0.457200X0.812800*%
%ADD22RoundRect,0.225000X-0.250000X0.225000X-0.250000X-0.225000X0.250000X-0.225000X0.250000X0.225000X0*%
%ADD23R,3.210000X1.620000*%
%ADD24R,1.100000X1.000000*%
%ADD25RoundRect,0.240000X1.510000X0.560000X-1.510000X0.560000X-1.510000X-0.560000X1.510000X-0.560000X0*%
%ADD26R,3.400000X6.150000*%
G04 APERTURE END LIST*
D10*
%TO.C,JP4*%
X192550000Y-87750000D03*
X194200000Y-87750000D03*
%TD*%
D11*
%TO.C,L1*%
X167000000Y-80731100D03*
X167000000Y-91068900D03*
%TD*%
D12*
%TO.C,R8*%
X183475000Y-85500000D03*
X185125000Y-85500000D03*
%TD*%
D10*
%TO.C,R2*%
X185125000Y-83000000D03*
X183475000Y-83000000D03*
%TD*%
D13*
%TO.C,C9*%
X187000000Y-68020000D03*
X188550000Y-68020000D03*
%TD*%
D14*
%TO.C,R12*%
X180800000Y-84275000D03*
X180800000Y-85925000D03*
%TD*%
D15*
%TO.C,C2*%
X125050000Y-54175000D03*
X125050000Y-52625000D03*
%TD*%
D16*
%TO.C,U2*%
X180300000Y-82200000D03*
X180300000Y-81700000D03*
X180300000Y-81200000D03*
X180300000Y-80700000D03*
X178830000Y-80700000D03*
X178830000Y-81200000D03*
X178830000Y-81700000D03*
X178830000Y-82200000D03*
%TD*%
D13*
%TO.C,C6*%
X186900000Y-70470000D03*
X188450000Y-70470000D03*
%TD*%
D17*
%TO.C,S1*%
X149550000Y-100630000D03*
X158450000Y-100630000D03*
X149550000Y-103170000D03*
X158450000Y-103170000D03*
%TD*%
D10*
%TO.C,JP3*%
X194200000Y-74200000D03*
X192550000Y-74200000D03*
%TD*%
D15*
%TO.C,C3*%
X127560000Y-54175000D03*
X127560000Y-52625000D03*
%TD*%
%TO.C,C4*%
X130070000Y-54175000D03*
X130070000Y-52625000D03*
%TD*%
D13*
%TO.C,C8*%
X187000000Y-65510000D03*
X188550000Y-65510000D03*
%TD*%
D18*
%TO.C,R7*%
X178500000Y-84275000D03*
X178500000Y-85925000D03*
%TD*%
D19*
%TO.C,D5*%
X194125000Y-82750000D03*
X192625000Y-82750000D03*
%TD*%
D13*
%TO.C,C18*%
X169150000Y-103980000D03*
X170700000Y-103980000D03*
%TD*%
D20*
%TO.C,C5*%
X186600000Y-60500000D03*
X188500000Y-60500000D03*
%TD*%
D21*
%TO.C,D2*%
X152500000Y-48000000D03*
X151357000Y-48000000D03*
%TD*%
D13*
%TO.C,C15*%
X186950000Y-80300000D03*
X188500000Y-80300000D03*
%TD*%
D22*
%TO.C,C22*%
X175600000Y-83625000D03*
X175600000Y-85175000D03*
%TD*%
D23*
%TO.C,C17*%
X167750000Y-99100000D03*
X173050000Y-99100000D03*
%TD*%
D13*
%TO.C,C20*%
X169150000Y-109000000D03*
X170700000Y-109000000D03*
%TD*%
D15*
%TO.C,C16*%
X175600000Y-81700000D03*
X175600000Y-80150000D03*
%TD*%
D10*
%TO.C,R9*%
X194025000Y-77200000D03*
X192375000Y-77200000D03*
%TD*%
D18*
%TO.C,JP2*%
X152550000Y-109200000D03*
X152550000Y-107550000D03*
%TD*%
D24*
%TO.C,D4*%
X194200000Y-80200000D03*
X192500000Y-80200000D03*
%TD*%
D13*
%TO.C,C19*%
X169150000Y-106490000D03*
X170700000Y-106490000D03*
%TD*%
%TO.C,C7*%
X187000000Y-63000000D03*
X188550000Y-63000000D03*
%TD*%
D10*
%TO.C,R10*%
X194200000Y-85250000D03*
X192550000Y-85250000D03*
%TD*%
D25*
%TO.C,C1*%
X137300000Y-48500000D03*
X131700000Y-48500000D03*
%TD*%
D18*
%TO.C,JP1*%
X150100000Y-109025000D03*
X150100000Y-107375000D03*
%TD*%
D15*
%TO.C,C11*%
X141300000Y-109675000D03*
X141300000Y-108125000D03*
%TD*%
D26*
%TO.C,F1*%
X130550000Y-102350000D03*
X137250000Y-102350000D03*
%TD*%
M02*
