M48
; DRILL file {KiCad 9.0.7-9.0.7~ubuntu24.04.1} date 2026-04-06T00:42:58-0400
; FORMAT={-:-/ absolute / metric / decimal}
; #@! TF.CreationDate,2026-04-06T00:42:58-04:00
; #@! TF.GenerationSoftware,Kicad,Pcbnew,9.0.7-9.0.7~ubuntu24.04.1
; #@! TF.FileFunction,Plated,1,2,PTH
FMAT,2
METRIC
; #@! TA.AperFunction,Plated,PTH,ViaDrill
T1C0.300
; #@! TA.AperFunction,Plated,PTH,ComponentDrill
T2C0.600
; #@! TA.AperFunction,Plated,PTH,ComponentDrill
T3C1.020
; #@! TA.AperFunction,Plated,PTH,ComponentDrill
T4C1.400
; #@! TA.AperFunction,Plated,PTH,ComponentDrill
T5C1.470
; #@! TA.AperFunction,Plated,PTH,ComponentDrill
T6C2.020
; #@! TA.AperFunction,Plated,PTH,ComponentDrill
T7C2.700
; #@! TA.AperFunction,Plated,PTH,ComponentDrill
T8C3.900
%
G90
G05
T1
X131.2Y-89.5
X140.6Y-98.4
X147.3Y-65.3
X147.5Y-103.2
X149.5Y-96.8
X151.5Y-50.5
X154.5Y-50.5
X154.5Y-63.0
X164.0Y-70.0
X169.2Y-94.8
X175.5Y-87.5
X177.5Y-87.5
X183.5Y-87.6
T3
X118.1Y-50.0
X123.8Y-90.6
X123.8Y-93.1
X127.8Y-81.4
X130.5Y-113.6
X134.9Y-81.5
X141.7Y-118.1
X147.2Y-108.2
X156.5Y-107.6
X160.0Y-48.0
X165.7Y-114.2
X167.1Y-120.4
X168.2Y-114.2
X170.7Y-114.2
X173.2Y-114.2
X175.7Y-114.2
X178.2Y-114.2
X178.5Y-67.3
X179.1Y-77.1
X181.2Y-120.7
X181.9Y-103.7
X186.5Y-51.45
X188.7Y-104.4
X190.1Y-55.9
X192.6Y-55.9
T4
X137.22Y-88.4
X139.76Y-88.4
X142.3Y-88.4
T5
X145.55Y-55.85
X145.55Y-59.65
X145.55Y-63.45
X145.55Y-71.05
X165.85Y-72.45
X169.65Y-72.45
X173.45Y-59.65
X173.45Y-63.45
X173.45Y-67.25
T6
X173.45Y-55.85
X173.45Y-71.05
T7
X118.05Y-61.5
X118.05Y-68.7
X118.05Y-79.8
X118.05Y-87.0
T8
X121.8Y-102.4
X121.8Y-113.3
T2
X112.6Y-58.35G85X111.5Y-58.35
G05
X112.6Y-71.85G85X111.5Y-71.85
G05
X112.6Y-76.65G85X111.5Y-76.65
G05
X112.6Y-90.15G85X111.5Y-90.15
G05
X112.9Y-98.4G85X111.9Y-98.4
G05
X112.9Y-117.3G85X111.9Y-117.3
G05
M30
