%TF.GenerationSoftware,KiCad,Pcbnew,9.0.7-9.0.7~ubuntu24.04.1*%
%TF.CreationDate,2026-04-06T00:42:38-04:00*%
%TF.ProjectId,VECTAR-PSU-REV2,56454354-4152-42d5-9053-552d52455632,rev?*%
%TF.SameCoordinates,Original*%
%TF.FileFunction,Copper,L2,Bot*%
%TF.FilePolarity,Positive*%
%FSLAX46Y46*%
G04 Gerber Fmt 4.6, Leading zero omitted, Abs format (unit mm)*
G04 Created by KiCad (PCBNEW 9.0.7-9.0.7~ubuntu24.04.1) date 2026-04-06 00:42:38*
%MOMM*%
%LPD*%
G01*
G04 APERTURE LIST*
G04 Aperture macros list*
%AMRoundRect*
0 Rectangle with rounded corners*
0 $1 Rounding radius*
0 $2 $3 $4 $5 $6 $7 $8 $9 X,Y pos of 4 corners*
0 Add a 4 corners polygon primitive as box body*
4,1,4,$2,$3,$4,$5,$6,$7,$8,$9,$2,$3,0*
0 Add four circle primitives for the rounded corners*
1,1,$1+$1,$2,$3*
1,1,$1+$1,$4,$5*
1,1,$1+$1,$6,$7*
1,1,$1+$1,$8,$9*
0 Add four rect primitives between the rounded corners*
20,1,$1+$1,$2,$3,$4,$5,0*
20,1,$1+$1,$4,$5,$6,$7,0*
20,1,$1+$1,$6,$7,$8,$9,0*
20,1,$1+$1,$8,$9,$2,$3,0*%
G04 Aperture macros list end*
%TA.AperFunction,ComponentPad*%
%ADD10R,4.916000X4.916000*%
%TD*%
%TA.AperFunction,ComponentPad*%
%ADD11C,4.916000*%
%TD*%
%TA.AperFunction,ComponentPad*%
%ADD12O,2.600000X1.300000*%
%TD*%
%TA.AperFunction,ComponentPad*%
%ADD13R,3.716000X3.716000*%
%TD*%
%TA.AperFunction,ComponentPad*%
%ADD14C,3.716000*%
%TD*%
%TA.AperFunction,ComponentPad*%
%ADD15O,2.400000X1.200000*%
%TD*%
%TA.AperFunction,ComponentPad*%
%ADD16C,1.500000*%
%TD*%
%TA.AperFunction,SMDPad,CuDef*%
%ADD17R,0.457200X1.005100*%
%TD*%
%TA.AperFunction,ComponentPad*%
%ADD18R,1.750000X1.750000*%
%TD*%
%TA.AperFunction,ComponentPad*%
%ADD19C,1.750000*%
%TD*%
%TA.AperFunction,ComponentPad*%
%ADD20C,1.530000*%
%TD*%
%TA.AperFunction,SMDPad,CuDef*%
%ADD21RoundRect,0.225000X0.225000X0.250000X-0.225000X0.250000X-0.225000X-0.250000X0.225000X-0.250000X0*%
%TD*%
%TA.AperFunction,ComponentPad*%
%ADD22R,2.205000X2.205000*%
%TD*%
%TA.AperFunction,ComponentPad*%
%ADD23C,2.205000*%
%TD*%
%TA.AperFunction,ComponentPad*%
%ADD24C,3.030000*%
%TD*%
%TA.AperFunction,SMDPad,CuDef*%
%ADD25RoundRect,0.225000X-0.250000X0.225000X-0.250000X-0.225000X0.250000X-0.225000X0.250000X0.225000X0*%
%TD*%
%TA.AperFunction,SMDPad,CuDef*%
%ADD26RoundRect,0.200000X-0.200000X-0.275000X0.200000X-0.275000X0.200000X0.275000X-0.200000X0.275000X0*%
%TD*%
%TA.AperFunction,SMDPad,CuDef*%
%ADD27RoundRect,0.200000X-0.275000X0.200000X-0.275000X-0.200000X0.275000X-0.200000X0.275000X0.200000X0*%
%TD*%
%TA.AperFunction,SMDPad,CuDef*%
%ADD28RoundRect,0.075000X0.225000X-0.540000X0.225000X0.540000X-0.225000X0.540000X-0.225000X-0.540000X0*%
%TD*%
%TA.AperFunction,SMDPad,CuDef*%
%ADD29RoundRect,0.200000X0.200000X0.275000X-0.200000X0.275000X-0.200000X-0.275000X0.200000X-0.275000X0*%
%TD*%
%TA.AperFunction,SMDPad,CuDef*%
%ADD30RoundRect,0.250000X-0.450000X0.262500X-0.450000X-0.262500X0.450000X-0.262500X0.450000X0.262500X0*%
%TD*%
%TA.AperFunction,SMDPad,CuDef*%
%ADD31RoundRect,0.200000X0.275000X-0.200000X0.275000X0.200000X-0.275000X0.200000X-0.275000X-0.200000X0*%
%TD*%
%TA.AperFunction,ViaPad*%
%ADD32C,0.600000*%
%TD*%
%TA.AperFunction,Conductor*%
%ADD33C,0.200000*%
%TD*%
G04 APERTURE END LIST*
D10*
%TO.P,J6,1,POS*%
%TO.N,/RAW_BATT*%
X121800000Y-102400000D03*
D11*
%TO.P,J6,2,NEG*%
%TO.N,GND*%
X121800000Y-113300000D03*
D12*
%TO.P,J6,S1,S1*%
X112400000Y-98400000D03*
%TO.P,J6,S2,S2*%
X112400000Y-117300000D03*
%TD*%
D13*
%TO.P,J1,1,P*%
%TO.N,+BATT*%
X118050000Y-61500000D03*
D14*
%TO.P,J1,2,N*%
%TO.N,GND*%
X118050000Y-68700000D03*
D15*
%TO.P,J1,SH1,SHIELD*%
X112050000Y-58350000D03*
%TO.P,J1,SH2,SHIELD*%
X112050000Y-71850000D03*
%TD*%
D13*
%TO.P,J2,1,P*%
%TO.N,+BATT*%
X118050000Y-79800000D03*
D14*
%TO.P,J2,2,N*%
%TO.N,GND*%
X118050000Y-87000000D03*
D15*
%TO.P,J2,SH1,SHIELD*%
X112050000Y-76650000D03*
%TO.P,J2,SH2,SHIELD*%
X112050000Y-90150000D03*
%TD*%
D16*
%TO.P,J5,6,Pin_6*%
%TO.N,GND*%
X178200000Y-114200000D03*
%TO.P,J5,5,Pin_5*%
X175700000Y-114200000D03*
%TO.P,J5,4,Pin_4*%
X173200000Y-114200000D03*
%TO.P,J5,3,Pin_3*%
X170700000Y-114200000D03*
%TO.P,J5,2,Pin_2*%
%TO.N,+5V*%
X168200000Y-114200000D03*
%TO.P,J5,1,Pin_1*%
X165700000Y-114200000D03*
%TD*%
D17*
%TO.P,U1,1,GATE*%
%TO.N,/Gate*%
X129350000Y-93000000D03*
%TO.P,U1,2,SOURCE*%
%TO.N,/Vin*%
X128700002Y-93000000D03*
%TO.P,U1,3,VCAP*%
%TO.N,Net-(U1-VCAP)*%
X128050000Y-93000000D03*
%TO.P,U1,4,SW*%
%TO.N,unconnected-(U1-SW-Pad4)*%
X127400002Y-93000000D03*
%TO.P,U1,5,GND*%
%TO.N,GND*%
X127400002Y-90343902D03*
%TO.P,U1,6,EN*%
%TO.N,/Vin_EN*%
X128050000Y-90343902D03*
%TO.P,U1,7,N.C.*%
%TO.N,unconnected-(U1-N.C.-Pad7)*%
X128700002Y-90343902D03*
%TO.P,U1,8,DRAIN*%
%TO.N,+BATT*%
X129350000Y-90343902D03*
%TD*%
D18*
%TO.P,Q3,1,GATE*%
%TO.N,/Gate*%
X137220000Y-88400000D03*
D19*
%TO.P,Q3,2,DRAIN*%
%TO.N,+BATT*%
X139760000Y-88400000D03*
%TO.P,Q3,3,SOURCE*%
%TO.N,/Vin*%
X142300000Y-88400000D03*
%TD*%
D20*
%TO.P,TP3,1,1*%
%TO.N,+5V*%
X167100000Y-120400000D03*
%TD*%
%TO.P,TP10,1,1*%
%TO.N,/Vin_EN*%
X127800000Y-81400000D03*
%TD*%
%TO.P,TP7,1,1*%
%TO.N,/12V_PG_Gate*%
X160000000Y-48000000D03*
%TD*%
%TO.P,TP15,1,1*%
%TO.N,GND*%
X181900000Y-103700000D03*
%TD*%
%TO.P,TP9,1,1*%
%TO.N,/Gate*%
X134900000Y-81500000D03*
%TD*%
%TO.P,TP16,1,1*%
%TO.N,+BATT*%
X118100000Y-50000000D03*
%TD*%
%TO.P,TP14,1,1*%
%TO.N,GND*%
X141700000Y-118100000D03*
%TD*%
D21*
%TO.P,C10,2*%
%TO.N,Net-(U1-VCAP)*%
X127525000Y-95700000D03*
%TO.P,C10,1*%
%TO.N,/Vin*%
X129075000Y-95700000D03*
%TD*%
D20*
%TO.P,TP8,1,1*%
%TO.N,/5V_FB*%
X179100000Y-77100000D03*
%TD*%
%TO.P,TP6,1,1*%
%TO.N,/12V_PG*%
X178500000Y-67300000D03*
%TD*%
%TO.P,TP1,1,1*%
%TO.N,/RAW_BATT*%
X130500000Y-113600000D03*
%TD*%
%TO.P,TP4,1,1*%
%TO.N,/12V_EN*%
X147200000Y-108200000D03*
%TD*%
%TO.P,TP2,1,1*%
%TO.N,+12V*%
X186500000Y-51450000D03*
%TD*%
%TO.P,TP12,1,1*%
%TO.N,GND*%
X181200000Y-120700000D03*
%TD*%
D22*
%TO.P,PS78,1,VIN(+)*%
%TO.N,+BATT*%
X145550000Y-55850000D03*
D23*
%TO.P,PS78,2,~{ON}/OFF*%
%TO.N,/12V_EN*%
X145550000Y-63450000D03*
%TO.P,PS78,3,VIN(-)*%
%TO.N,GND*%
X145550000Y-71050000D03*
D24*
%TO.P,PS78,4,VOUT(-)*%
X173450000Y-71050000D03*
D23*
%TO.P,PS78,5,PWR_GOOD*%
%TO.N,/12V_PG*%
X173450000Y-67250000D03*
%TO.P,PS78,6,TRIM*%
%TO.N,Net-(PS78-TRIM)*%
X173450000Y-63450000D03*
%TO.P,PS78,7,SENSE+*%
%TO.N,+12V*%
X173450000Y-59650000D03*
D24*
%TO.P,PS78,8,VOUT(+)*%
X173450000Y-55850000D03*
D23*
%TO.P,PS78,32,SYNC*%
%TO.N,unconnected-(PS78-SYNC-Pad32)*%
X165850000Y-72450000D03*
%TO.P,PS78,33,MS*%
%TO.N,unconnected-(PS78-MS-Pad33)*%
X169650000Y-72450000D03*
%TO.P,PS78,34,SEQ*%
%TO.N,unconnected-(PS78-SEQ-Pad34)*%
X145550000Y-59650000D03*
%TD*%
D20*
%TO.P,TP5,1,1*%
%TO.N,/5V_EN*%
X156500000Y-107600000D03*
%TD*%
%TO.P,TP13,1,1*%
%TO.N,GND*%
X188700000Y-104400000D03*
%TD*%
D25*
%TO.P,C21,1*%
%TO.N,/Gate*%
X134600000Y-93725000D03*
%TO.P,C21,2*%
%TO.N,/Vin*%
X134600000Y-95275000D03*
%TD*%
D26*
%TO.P,R11,2*%
%TO.N,GND*%
X127625000Y-87300000D03*
%TO.P,R11,1*%
%TO.N,/Vin_EN*%
X125975000Y-87300000D03*
%TD*%
D27*
%TO.P,R6,1*%
%TO.N,Net-(D2-A)*%
X152500000Y-70850000D03*
%TO.P,R6,2*%
%TO.N,+5V*%
X152500000Y-72500000D03*
%TD*%
D28*
%TO.P,Q1,1,G*%
%TO.N,/12V_PG_Gate*%
X156950000Y-59560000D03*
%TO.P,Q1,2,S*%
%TO.N,GND*%
X155050000Y-59560000D03*
%TO.P,Q1,3,D*%
%TO.N,Net-(D2-K)*%
X156000000Y-57440000D03*
%TD*%
D29*
%TO.P,R5,1*%
%TO.N,GND*%
X157825000Y-65500000D03*
%TO.P,R5,2*%
%TO.N,/12V_PG_Gate*%
X156175000Y-65500000D03*
%TD*%
%TO.P,R4,1*%
%TO.N,/12V_PG*%
X157825000Y-68000000D03*
%TO.P,R4,2*%
%TO.N,/12V_PG_Gate*%
X156175000Y-68000000D03*
%TD*%
D30*
%TO.P,R1,1*%
%TO.N,Net-(PS78-TRIM)*%
X169550000Y-66137500D03*
%TO.P,R1,2*%
%TO.N,GND*%
X169550000Y-67962500D03*
%TD*%
D31*
%TO.P,R3,1*%
%TO.N,+5V*%
X158000000Y-72500000D03*
%TO.P,R3,2*%
%TO.N,/12V_PG*%
X158000000Y-70850000D03*
%TD*%
D16*
%TO.P,SW2,2,B*%
%TO.N,/Vin*%
X123800000Y-93100000D03*
%TO.P,SW2,1,A*%
%TO.N,/Vin_EN*%
X123800000Y-90600000D03*
%TD*%
%TO.P,J3,1,Pin_1*%
%TO.N,+12V*%
X190100000Y-55900000D03*
%TO.P,J3,2,Pin_2*%
%TO.N,GND*%
X192600000Y-55900000D03*
%TD*%
D32*
%TO.N,+BATT*%
X131200000Y-89500000D03*
%TO.N,/5V_FB*%
X175500000Y-87500000D03*
%TO.N,+5V*%
X177500000Y-87500000D03*
%TO.N,/5V_EN*%
X149500000Y-96800000D03*
X183500000Y-87600000D03*
%TO.N,/12V_EN*%
X147500000Y-103200000D03*
X147300000Y-65300000D03*
%TO.N,+5V*%
X169200000Y-94800000D03*
%TO.N,/Vin*%
X140600000Y-98400000D03*
%TO.N,GND*%
X154500000Y-63000000D03*
%TO.N,Net-(D2-A)*%
X151500000Y-50500000D03*
%TO.N,Net-(D2-K)*%
X154500000Y-50500000D03*
%TO.N,/12V_PG*%
X164000000Y-70000000D03*
%TD*%
D33*
%TO.N,+BATT*%
X129350000Y-90343902D02*
X130356098Y-90343902D01*
X130356098Y-90343902D02*
X131200000Y-89500000D01*
%TO.N,/5V_FB*%
X175500000Y-87500000D02*
X179100000Y-83900000D01*
X179100000Y-83900000D02*
X179100000Y-77100000D01*
%TO.N,+5V*%
X177500000Y-87500000D02*
X170200000Y-94800000D01*
X170200000Y-94800000D02*
X169200000Y-94800000D01*
X168200000Y-114200000D02*
X168200000Y-119300000D01*
X168200000Y-119300000D02*
X167100000Y-120400000D01*
%TO.N,/5V_EN*%
X174300000Y-96800000D02*
X149500000Y-96800000D01*
X183500000Y-87600000D02*
X174300000Y-96800000D01*
%TO.N,/12V_EN*%
X147300000Y-65300000D02*
X147300000Y-103000000D01*
X147300000Y-103000000D02*
X147500000Y-103200000D01*
%TO.N,+5V*%
X158000000Y-83600000D02*
X169200000Y-94800000D01*
X158000000Y-72500000D02*
X158000000Y-83600000D01*
%TO.N,/Gate*%
X137220000Y-88400000D02*
X137220000Y-83820000D01*
X137220000Y-83820000D02*
X134900000Y-81500000D01*
%TO.N,/Vin_EN*%
X125975000Y-87300000D02*
X125975000Y-83225000D01*
X125975000Y-83225000D02*
X127800000Y-81400000D01*
%TO.N,/Vin*%
X129075000Y-95700000D02*
X129075000Y-96125000D01*
X127900000Y-97300000D02*
X126219670Y-97300000D01*
X129075000Y-96125000D02*
X127900000Y-97300000D01*
X126219670Y-97300000D02*
X123800000Y-94880330D01*
X123800000Y-94880330D02*
X123800000Y-93100000D01*
%TO.N,/Vin_EN*%
X125975000Y-87300000D02*
X128050000Y-89375000D01*
X128050000Y-89375000D02*
X128050000Y-90343902D01*
X125975000Y-87300000D02*
X125975000Y-88425000D01*
X125975000Y-88425000D02*
X123800000Y-90600000D01*
%TO.N,/Vin*%
X133397452Y-98400000D02*
X133397452Y-98302548D01*
X133397452Y-98302548D02*
X134600000Y-97100000D01*
X134600000Y-97100000D02*
X134600000Y-95275000D01*
%TO.N,/Gate*%
X132620000Y-93000000D02*
X133345000Y-93725000D01*
X133345000Y-93725000D02*
X134600000Y-93725000D01*
%TO.N,/Vin*%
X133397452Y-98400000D02*
X140600000Y-98400000D01*
X128700002Y-93702550D02*
X133397452Y-98400000D01*
X128700002Y-93000000D02*
X128700002Y-93702550D01*
%TO.N,/Gate*%
X129350000Y-93000000D02*
X132620000Y-93000000D01*
X132620000Y-93000000D02*
X137220000Y-88400000D01*
%TO.N,Net-(U1-VCAP)*%
X127525000Y-95700000D02*
X128050000Y-95175000D01*
X128050000Y-95175000D02*
X128050000Y-93000000D01*
%TO.N,/Vin*%
X129075000Y-95700000D02*
X128700002Y-95325002D01*
X128700002Y-95325002D02*
X128700002Y-93000000D01*
%TO.N,Net-(D2-A)*%
X152500000Y-51500000D02*
X151500000Y-50500000D01*
X152500000Y-70850000D02*
X152500000Y-51500000D01*
%TO.N,Net-(D2-K)*%
X156000000Y-52000000D02*
X154500000Y-50500000D01*
X156000000Y-57440000D02*
X156000000Y-52000000D01*
%TO.N,Net-(PS78-TRIM)*%
X173450000Y-63450000D02*
X170762500Y-66137500D01*
X170762500Y-66137500D02*
X169550000Y-66137500D01*
%TO.N,/12V_PG*%
X164000000Y-70000000D02*
X163150000Y-70850000D01*
X157825000Y-70675000D02*
X158000000Y-70850000D01*
X163150000Y-70850000D02*
X158000000Y-70850000D01*
X157825000Y-68000000D02*
X157825000Y-70675000D01*
%TO.N,/12V_PG_Gate*%
X156000000Y-65500000D02*
X155950000Y-65550000D01*
X156175000Y-65500000D02*
X156175000Y-64325000D01*
X156175000Y-64325000D02*
X156950000Y-63550000D01*
X156950000Y-63550000D02*
X156950000Y-59560000D01*
X156175000Y-68000000D02*
X156175000Y-65500000D01*
X156175000Y-65500000D02*
X156000000Y-65500000D01*
X160000000Y-60500000D02*
X156175000Y-64325000D01*
X160000000Y-48000000D02*
X160000000Y-60500000D01*
%TO.N,+5V*%
X158000000Y-72500000D02*
X152500000Y-72500000D01*
%TD*%
%TA.AperFunction,Conductor*%
%TO.N,GND*%
G36*
X196977826Y-44522174D02*
G01*
X196999500Y-44574500D01*
X196999500Y-128425500D01*
X196977826Y-128477826D01*
X196925500Y-128499500D01*
X104074500Y-128499500D01*
X104022174Y-128477826D01*
X104000500Y-128425500D01*
X104000500Y-123952495D01*
X106249500Y-123952495D01*
X106249500Y-124247504D01*
X106288006Y-124539991D01*
X106364361Y-124824953D01*
X106477253Y-125097498D01*
X106477256Y-125097506D01*
X106562786Y-125245648D01*
X106624762Y-125352994D01*
X106804354Y-125587042D01*
X107012958Y-125795646D01*
X107247006Y-125975238D01*
X107502493Y-126122743D01*
X107775048Y-126235639D01*
X108060007Y-126311993D01*
X108352494Y-126350500D01*
X108352496Y-126350500D01*
X108647504Y-126350500D01*
X108647506Y-126350500D01*
X108939993Y-126311993D01*
X109224952Y-126235639D01*
X109497507Y-126122743D01*
X109752994Y-125975238D01*
X109987042Y-125795646D01*
X110195646Y-125587042D01*
X110375238Y-125352994D01*
X110522743Y-125097507D01*
X110635639Y-124824952D01*
X110711993Y-124539993D01*
X110750500Y-124247506D01*
X110750500Y-123952494D01*
X110737335Y-123852495D01*
X190249500Y-123852495D01*
X190249500Y-124147504D01*
X190288006Y-124439991D01*
X190364361Y-124724953D01*
X190477253Y-124997498D01*
X190477256Y-124997506D01*
X190534991Y-125097506D01*
X190624762Y-125252994D01*
X190804354Y-125487042D01*
X191012958Y-125695646D01*
X191247006Y-125875238D01*
X191502493Y-126022743D01*
X191775048Y-126135639D01*
X192060007Y-126211993D01*
X192352494Y-126250500D01*
X192352496Y-126250500D01*
X192647504Y-126250500D01*
X192647506Y-126250500D01*
X192939993Y-126211993D01*
X193224952Y-126135639D01*
X193497507Y-126022743D01*
X193752994Y-125875238D01*
X193987042Y-125695646D01*
X194195646Y-125487042D01*
X194375238Y-125252994D01*
X194522743Y-124997507D01*
X194635639Y-124724952D01*
X194711993Y-124439993D01*
X194750500Y-124147506D01*
X194750500Y-123852494D01*
X194711993Y-123560007D01*
X194635639Y-123275048D01*
X194522743Y-123002493D01*
X194375238Y-122747006D01*
X194195646Y-122512958D01*
X193987042Y-122304354D01*
X193752994Y-122124762D01*
X193670706Y-122077253D01*
X193497506Y-121977256D01*
X193497498Y-121977253D01*
X193224953Y-121864361D01*
X192939991Y-121788006D01*
X192724518Y-121759638D01*
X192647506Y-121749500D01*
X192352494Y-121749500D01*
X192284441Y-121758459D01*
X192060008Y-121788006D01*
X191775046Y-121864361D01*
X191502501Y-121977253D01*
X191502493Y-121977256D01*
X191247010Y-122124759D01*
X191012953Y-122304358D01*
X190804358Y-122512953D01*
X190624759Y-122747010D01*
X190477256Y-123002493D01*
X190477253Y-123002501D01*
X190364361Y-123275046D01*
X190288006Y-123560008D01*
X190249500Y-123852495D01*
X110737335Y-123852495D01*
X110711993Y-123660007D01*
X110635639Y-123375048D01*
X110522743Y-123102493D01*
X110375238Y-122847006D01*
X110195646Y-122612958D01*
X109987042Y-122404354D01*
X109752994Y-122224762D01*
X109752989Y-122224759D01*
X109497506Y-122077256D01*
X109497498Y-122077253D01*
X109224953Y-121964361D01*
X108939991Y-121888006D01*
X108724518Y-121859638D01*
X108647506Y-121849500D01*
X108352494Y-121849500D01*
X108284441Y-121858459D01*
X108060008Y-121888006D01*
X107775046Y-121964361D01*
X107502501Y-122077253D01*
X107502493Y-122077256D01*
X107247010Y-122224759D01*
X107012953Y-122404358D01*
X106804358Y-122612953D01*
X106624759Y-122847010D01*
X106477256Y-123102493D01*
X106477253Y-123102501D01*
X106364361Y-123375046D01*
X106288006Y-123660008D01*
X106249500Y-123952495D01*
X104000500Y-123952495D01*
X104000500Y-120304907D01*
X166134500Y-120304907D01*
X166134500Y-120495092D01*
X166171601Y-120681619D01*
X166171603Y-120681626D01*
X166207025Y-120767143D01*
X166244385Y-120857336D01*
X166350047Y-121015471D01*
X166484529Y-121149953D01*
X166642664Y-121255615D01*
X166818374Y-121328397D01*
X167004907Y-121365500D01*
X167004908Y-121365500D01*
X167195092Y-121365500D01*
X167195093Y-121365500D01*
X167381626Y-121328397D01*
X167557336Y-121255615D01*
X167715471Y-121149953D01*
X167849953Y-121015471D01*
X167955615Y-120857336D01*
X168028397Y-120681626D01*
X168044545Y-120600441D01*
X179935000Y-120600441D01*
X179935000Y-120799558D01*
X179966147Y-120996219D01*
X179966150Y-120996232D01*
X180027676Y-121185588D01*
X180118076Y-121363006D01*
X180118076Y-121363007D01*
X180145581Y-121400863D01*
X180708871Y-120837572D01*
X180724755Y-120896853D01*
X180791898Y-121013147D01*
X180886853Y-121108102D01*
X181003147Y-121175245D01*
X181062424Y-121191128D01*
X180499135Y-121754418D01*
X180536992Y-121781923D01*
X180714411Y-121872323D01*
X180903767Y-121933849D01*
X180903780Y-121933852D01*
X181100441Y-121965000D01*
X181299559Y-121965000D01*
X181496219Y-121933852D01*
X181496232Y-121933849D01*
X181685588Y-121872323D01*
X181863010Y-121781922D01*
X181863012Y-121781920D01*
X181900863Y-121754418D01*
X181900864Y-121754417D01*
X181337575Y-121191128D01*
X181396853Y-121175245D01*
X181513147Y-121108102D01*
X181608102Y-121013147D01*
X181675245Y-120896853D01*
X181691128Y-120837574D01*
X182254417Y-121400864D01*
X182254418Y-121400863D01*
X182281920Y-121363012D01*
X182281922Y-121363010D01*
X182372323Y-121185588D01*
X182433849Y-120996232D01*
X182433852Y-120996219D01*
X182465000Y-120799558D01*
X182465000Y-120600441D01*
X182433852Y-120403780D01*
X182433849Y-120403767D01*
X182372323Y-120214411D01*
X182281923Y-120036993D01*
X182281923Y-120036992D01*
X182254418Y-119999135D01*
X181691127Y-120562424D01*
X181675245Y-120503147D01*
X181608102Y-120386853D01*
X181513147Y-120291898D01*
X181396853Y-120224755D01*
X181337572Y-120208871D01*
X181900863Y-119645581D01*
X181863007Y-119618076D01*
X181685588Y-119527676D01*
X181496232Y-119466150D01*
X181496219Y-119466147D01*
X181299559Y-119435000D01*
X181100441Y-119435000D01*
X180903780Y-119466147D01*
X180903767Y-119466150D01*
X180714413Y-119527675D01*
X180536994Y-119618074D01*
X180499135Y-119645580D01*
X180499135Y-119645581D01*
X181062425Y-120208871D01*
X181003147Y-120224755D01*
X180886853Y-120291898D01*
X180791898Y-120386853D01*
X180724755Y-120503147D01*
X180708871Y-120562425D01*
X180145581Y-119999135D01*
X180145580Y-119999135D01*
X180118074Y-120036994D01*
X180027675Y-120214413D01*
X179966150Y-120403767D01*
X179966147Y-120403780D01*
X179935000Y-120600441D01*
X168044545Y-120600441D01*
X168065500Y-120495093D01*
X168065500Y-120304907D01*
X168028397Y-120118374D01*
X167982354Y-120007218D01*
X167982354Y-119950582D01*
X167998392Y-119926577D01*
X168440460Y-119484511D01*
X168447912Y-119471603D01*
X168480021Y-119415989D01*
X168500499Y-119339564D01*
X168500500Y-119339564D01*
X168500500Y-115153787D01*
X168522174Y-115101461D01*
X168546182Y-115085420D01*
X168650231Y-115042322D01*
X168805908Y-114938302D01*
X168938302Y-114805908D01*
X169042322Y-114650231D01*
X169113973Y-114477251D01*
X169150500Y-114293616D01*
X169150500Y-114106384D01*
X169149553Y-114101622D01*
X169450000Y-114101622D01*
X169450000Y-114298377D01*
X169480778Y-114492706D01*
X169480781Y-114492719D01*
X169541577Y-114679828D01*
X169541579Y-114679833D01*
X169630903Y-114855142D01*
X169656319Y-114890124D01*
X170208871Y-114337572D01*
X170224755Y-114396853D01*
X170291898Y-114513147D01*
X170386853Y-114608102D01*
X170503147Y-114675245D01*
X170562425Y-114691128D01*
X170009874Y-115243679D01*
X170044860Y-115269097D01*
X170220166Y-115358420D01*
X170220171Y-115358422D01*
X170407280Y-115419218D01*
X170407293Y-115419221D01*
X170601622Y-115450000D01*
X170798378Y-115450000D01*
X170992706Y-115419221D01*
X170992719Y-115419218D01*
X171179828Y-115358422D01*
X171179843Y-115358415D01*
X171355143Y-115269096D01*
X171355144Y-115269095D01*
X171390125Y-115243679D01*
X170837574Y-114691128D01*
X170896853Y-114675245D01*
X171013147Y-114608102D01*
X171108102Y-114513147D01*
X171175245Y-114396853D01*
X171191128Y-114337574D01*
X171743679Y-114890125D01*
X171743679Y-114890124D01*
X171769095Y-114855144D01*
X171769096Y-114855143D01*
X171858415Y-114679843D01*
X171858422Y-114679828D01*
X171879622Y-114614582D01*
X171916405Y-114571515D01*
X171972867Y-114567071D01*
X172015934Y-114603854D01*
X172020378Y-114614582D01*
X172041577Y-114679828D01*
X172041579Y-114679833D01*
X172130903Y-114855142D01*
X172156319Y-114890124D01*
X172708871Y-114337572D01*
X172724755Y-114396853D01*
X172791898Y-114513147D01*
X172886853Y-114608102D01*
X173003147Y-114675245D01*
X173062425Y-114691128D01*
X172509874Y-115243679D01*
X172544860Y-115269097D01*
X172720166Y-115358420D01*
X172720171Y-115358422D01*
X172907280Y-115419218D01*
X172907293Y-115419221D01*
X173101622Y-115450000D01*
X173298378Y-115450000D01*
X173492706Y-115419221D01*
X173492719Y-115419218D01*
X173679828Y-115358422D01*
X173679843Y-115358415D01*
X173855143Y-115269096D01*
X173855144Y-115269095D01*
X173890125Y-115243679D01*
X173337574Y-114691128D01*
X173396853Y-114675245D01*
X173513147Y-114608102D01*
X173608102Y-114513147D01*
X173675245Y-114396853D01*
X173691128Y-114337574D01*
X174243679Y-114890125D01*
X174243679Y-114890124D01*
X174269095Y-114855144D01*
X174269096Y-114855143D01*
X174358415Y-114679843D01*
X174358422Y-114679828D01*
X174379622Y-114614582D01*
X174416405Y-114571515D01*
X174472867Y-114567071D01*
X174515934Y-114603854D01*
X174520378Y-114614582D01*
X174541577Y-114679828D01*
X174541579Y-114679833D01*
X174630903Y-114855142D01*
X174656319Y-114890124D01*
X175208871Y-114337572D01*
X175224755Y-114396853D01*
X175291898Y-114513147D01*
X175386853Y-114608102D01*
X175503147Y-114675245D01*
X175562425Y-114691128D01*
X175009874Y-115243679D01*
X175044860Y-115269097D01*
X175220166Y-115358420D01*
X175220171Y-115358422D01*
X175407280Y-115419218D01*
X175407293Y-115419221D01*
X175601622Y-115450000D01*
X175798378Y-115450000D01*
X175992706Y-115419221D01*
X175992719Y-115419218D01*
X176179828Y-115358422D01*
X176179843Y-115358415D01*
X176355143Y-115269096D01*
X176355144Y-115269095D01*
X176390125Y-115243679D01*
X175837574Y-114691128D01*
X175896853Y-114675245D01*
X176013147Y-114608102D01*
X176108102Y-114513147D01*
X176175245Y-114396853D01*
X176191128Y-114337574D01*
X176743679Y-114890125D01*
X176743679Y-114890124D01*
X176769095Y-114855144D01*
X176769096Y-114855143D01*
X176858415Y-114679843D01*
X176858422Y-114679828D01*
X176879622Y-114614582D01*
X176916405Y-114571515D01*
X176972867Y-114567071D01*
X177015934Y-114603854D01*
X177020378Y-114614582D01*
X177041577Y-114679828D01*
X177041579Y-114679833D01*
X177130903Y-114855142D01*
X177156319Y-114890124D01*
X177708871Y-114337572D01*
X177724755Y-114396853D01*
X177791898Y-114513147D01*
X177886853Y-114608102D01*
X178003147Y-114675245D01*
X178062425Y-114691128D01*
X177509874Y-115243679D01*
X177544860Y-115269097D01*
X177720166Y-115358420D01*
X177720171Y-115358422D01*
X177907280Y-115419218D01*
X177907293Y-115419221D01*
X178101622Y-115450000D01*
X178298378Y-115450000D01*
X178492706Y-115419221D01*
X178492719Y-115419218D01*
X178679828Y-115358422D01*
X178679843Y-115358415D01*
X178855143Y-115269096D01*
X178855144Y-115269095D01*
X178890124Y-115243679D01*
X178890125Y-115243679D01*
X178337574Y-114691128D01*
X178396853Y-114675245D01*
X178513147Y-114608102D01*
X178608102Y-114513147D01*
X178675245Y-114396853D01*
X178691128Y-114337574D01*
X179243679Y-114890125D01*
X179243679Y-114890124D01*
X179269095Y-114855144D01*
X179269096Y-114855143D01*
X179358415Y-114679843D01*
X179358422Y-114679828D01*
X179419218Y-114492719D01*
X179419221Y-114492706D01*
X179450000Y-114298377D01*
X179450000Y-114101622D01*
X179419221Y-113907293D01*
X179419218Y-113907280D01*
X179358422Y-113720171D01*
X179358420Y-113720166D01*
X179269097Y-113544860D01*
X179243678Y-113509874D01*
X178691128Y-114062425D01*
X178675245Y-114003147D01*
X178608102Y-113886853D01*
X178513147Y-113791898D01*
X178396853Y-113724755D01*
X178337572Y-113708871D01*
X178890124Y-113156319D01*
X178855142Y-113130903D01*
X178679833Y-113041579D01*
X178679828Y-113041577D01*
X178492719Y-112980781D01*
X178492706Y-112980778D01*
X178298378Y-112950000D01*
X178101622Y-112950000D01*
X177907293Y-112980778D01*
X177907280Y-112980781D01*
X177720171Y-113041577D01*
X177720166Y-113041579D01*
X177544854Y-113130905D01*
X177509874Y-113156319D01*
X177509874Y-113156320D01*
X178062425Y-113708871D01*
X178003147Y-113724755D01*
X177886853Y-113791898D01*
X177791898Y-113886853D01*
X177724755Y-114003147D01*
X177708871Y-114062425D01*
X177156320Y-113509874D01*
X177156319Y-113509874D01*
X177130905Y-113544854D01*
X177041579Y-113720166D01*
X177041579Y-113720167D01*
X177020378Y-113785418D01*
X176983595Y-113828485D01*
X176927132Y-113832928D01*
X176884065Y-113796145D01*
X176879622Y-113785418D01*
X176858420Y-113720167D01*
X176858420Y-113720166D01*
X176769097Y-113544860D01*
X176743678Y-113509874D01*
X176191128Y-114062425D01*
X176175245Y-114003147D01*
X176108102Y-113886853D01*
X176013147Y-113791898D01*
X175896853Y-113724755D01*
X175837572Y-113708871D01*
X176390124Y-113156319D01*
X176355142Y-113130903D01*
X176179833Y-113041579D01*
X176179828Y-113041577D01*
X175992719Y-112980781D01*
X175992706Y-112980778D01*
X175798378Y-112950000D01*
X175601622Y-112950000D01*
X175407293Y-112980778D01*
X175407280Y-112980781D01*
X175220171Y-113041577D01*
X175220166Y-113041579D01*
X175044854Y-113130905D01*
X175009874Y-113156319D01*
X175009874Y-113156320D01*
X175562425Y-113708871D01*
X175503147Y-113724755D01*
X175386853Y-113791898D01*
X175291898Y-113886853D01*
X175224755Y-114003147D01*
X175208871Y-114062425D01*
X174656320Y-113509874D01*
X174656319Y-113509874D01*
X174630905Y-113544854D01*
X174541579Y-113720166D01*
X174541579Y-113720167D01*
X174520378Y-113785418D01*
X174483595Y-113828485D01*
X174427132Y-113832928D01*
X174384065Y-113796145D01*
X174379622Y-113785418D01*
X174358420Y-113720167D01*
X174358420Y-113720166D01*
X174269097Y-113544860D01*
X174243678Y-113509874D01*
X173691128Y-114062425D01*
X173675245Y-114003147D01*
X173608102Y-113886853D01*
X173513147Y-113791898D01*
X173396853Y-113724755D01*
X173337572Y-113708871D01*
X173890124Y-113156319D01*
X173855142Y-113130903D01*
X173679833Y-113041579D01*
X173679828Y-113041577D01*
X173492719Y-112980781D01*
X173492706Y-112980778D01*
X173298378Y-112950000D01*
X173101622Y-112950000D01*
X172907293Y-112980778D01*
X172907280Y-112980781D01*
X172720171Y-113041577D01*
X172720166Y-113041579D01*
X172544854Y-113130905D01*
X172509874Y-113156319D01*
X172509874Y-113156320D01*
X173062425Y-113708871D01*
X173003147Y-113724755D01*
X172886853Y-113791898D01*
X172791898Y-113886853D01*
X172724755Y-114003147D01*
X172708871Y-114062425D01*
X172156320Y-113509874D01*
X172156319Y-113509874D01*
X172130905Y-113544854D01*
X172041579Y-113720166D01*
X172041579Y-113720167D01*
X172020378Y-113785418D01*
X171983595Y-113828485D01*
X171927132Y-113832928D01*
X171884065Y-113796145D01*
X171879622Y-113785418D01*
X171858420Y-113720167D01*
X171858420Y-113720166D01*
X171769097Y-113544860D01*
X171743678Y-113509874D01*
X171191128Y-114062425D01*
X171175245Y-114003147D01*
X171108102Y-113886853D01*
X171013147Y-113791898D01*
X170896853Y-113724755D01*
X170837572Y-113708871D01*
X171390124Y-113156319D01*
X171355142Y-113130903D01*
X171179833Y-113041579D01*
X171179828Y-113041577D01*
X170992719Y-112980781D01*
X170992706Y-112980778D01*
X170798378Y-112950000D01*
X170601622Y-112950000D01*
X170407293Y-112980778D01*
X170407280Y-112980781D01*
X170220171Y-113041577D01*
X170220166Y-113041579D01*
X170044854Y-113130905D01*
X170009874Y-113156319D01*
X170009874Y-113156320D01*
X170562425Y-113708871D01*
X170503147Y-113724755D01*
X170386853Y-113791898D01*
X170291898Y-113886853D01*
X170224755Y-114003147D01*
X170208871Y-114062425D01*
X169656320Y-113509874D01*
X169656319Y-113509874D01*
X169630905Y-113544854D01*
X169541579Y-113720166D01*
X169541577Y-113720171D01*
X169480781Y-113907280D01*
X169480778Y-113907293D01*
X169450000Y-114101622D01*
X169149553Y-114101622D01*
X169113973Y-113922749D01*
X169042322Y-113749769D01*
X168938302Y-113594092D01*
X168805908Y-113461698D01*
X168650231Y-113357678D01*
X168650228Y-113357676D01*
X168650227Y-113357676D01*
X168477251Y-113286027D01*
X168477244Y-113286025D01*
X168331829Y-113257101D01*
X168293616Y-113249500D01*
X168106384Y-113249500D01*
X168070056Y-113256725D01*
X167922755Y-113286025D01*
X167922748Y-113286027D01*
X167749772Y-113357676D01*
X167594092Y-113461697D01*
X167594091Y-113461699D01*
X167461699Y-113594091D01*
X167461697Y-113594092D01*
X167357676Y-113749772D01*
X167286027Y-113922748D01*
X167286025Y-113922755D01*
X167249500Y-114106384D01*
X167249500Y-114293615D01*
X167286025Y-114477244D01*
X167286027Y-114477251D01*
X167342911Y-114614582D01*
X167357678Y-114650231D01*
X167413045Y-114733093D01*
X167461697Y-114805907D01*
X167594092Y-114938302D01*
X167749769Y-115042322D01*
X167853818Y-115085420D01*
X167893867Y-115125468D01*
X167899500Y-115153787D01*
X167899500Y-119144876D01*
X167877826Y-119197202D01*
X167573424Y-119501603D01*
X167521098Y-119523277D01*
X167492780Y-119517644D01*
X167381630Y-119471604D01*
X167381619Y-119471601D01*
X167241092Y-119443649D01*
X167195093Y-119434500D01*
X167004907Y-119434500D01*
X166968007Y-119441839D01*
X166818380Y-119471601D01*
X166818373Y-119471603D01*
X166642667Y-119544383D01*
X166484529Y-119650046D01*
X166484528Y-119650048D01*
X166350048Y-119784528D01*
X166350046Y-119784529D01*
X166244383Y-119942667D01*
X166171603Y-120118373D01*
X166171601Y-120118380D01*
X166134500Y-120304907D01*
X104000500Y-120304907D01*
X104000500Y-117050000D01*
X110625261Y-117050000D01*
X111733012Y-117050000D01*
X111715795Y-117059940D01*
X111659940Y-117115795D01*
X111620444Y-117184204D01*
X111600000Y-117260504D01*
X111600000Y-117339496D01*
X111620444Y-117415796D01*
X111659940Y-117484205D01*
X111715795Y-117540060D01*
X111733012Y-117550000D01*
X110625261Y-117550000D01*
X110628317Y-117569294D01*
X110628318Y-117569297D01*
X110684251Y-117741443D01*
X110766433Y-117902732D01*
X110766433Y-117902733D01*
X110872826Y-118049170D01*
X110872834Y-118049180D01*
X111000820Y-118177166D01*
X111000829Y-118177173D01*
X111147266Y-118283566D01*
X111308556Y-118365748D01*
X111308555Y-118365748D01*
X111480697Y-118421680D01*
X111480710Y-118421683D01*
X111659491Y-118450000D01*
X112150000Y-118450000D01*
X112150000Y-117600000D01*
X112650000Y-117600000D01*
X112650000Y-118450000D01*
X113140509Y-118450000D01*
X113319289Y-118421683D01*
X113319302Y-118421680D01*
X113491443Y-118365748D01*
X113652732Y-118283566D01*
X113652733Y-118283566D01*
X113799170Y-118177173D01*
X113799180Y-118177166D01*
X113927166Y-118049180D01*
X113927173Y-118049170D01*
X113962577Y-118000441D01*
X140435000Y-118000441D01*
X140435000Y-118199558D01*
X140466147Y-118396219D01*
X140466150Y-118396232D01*
X140527676Y-118585588D01*
X140618076Y-118763006D01*
X140618076Y-118763007D01*
X140645581Y-118800863D01*
X141208871Y-118237572D01*
X141224755Y-118296853D01*
X141291898Y-118413147D01*
X141386853Y-118508102D01*
X141503147Y-118575245D01*
X141562424Y-118591128D01*
X140999135Y-119154418D01*
X141036992Y-119181923D01*
X141214411Y-119272323D01*
X141403767Y-119333849D01*
X141403780Y-119333852D01*
X141600441Y-119365000D01*
X141799559Y-119365000D01*
X141996219Y-119333852D01*
X141996232Y-119333849D01*
X142185588Y-119272323D01*
X142363010Y-119181922D01*
X142363012Y-119181920D01*
X142400863Y-119154418D01*
X142400864Y-119154417D01*
X141837575Y-118591128D01*
X141896853Y-118575245D01*
X142013147Y-118508102D01*
X142108102Y-118413147D01*
X142175245Y-118296853D01*
X142191128Y-118237574D01*
X142754417Y-118800864D01*
X142754418Y-118800863D01*
X142781920Y-118763012D01*
X142781922Y-118763010D01*
X142872323Y-118585588D01*
X142933849Y-118396232D01*
X142933852Y-118396219D01*
X142965000Y-118199558D01*
X142965000Y-118000441D01*
X142933852Y-117803780D01*
X142933849Y-117803767D01*
X142872323Y-117614411D01*
X142781923Y-117436993D01*
X142781923Y-117436992D01*
X142754418Y-117399135D01*
X142191127Y-117962424D01*
X142175245Y-117903147D01*
X142108102Y-117786853D01*
X142013147Y-117691898D01*
X141896853Y-117624755D01*
X141837572Y-117608871D01*
X142400863Y-117045581D01*
X142363007Y-117018076D01*
X142185588Y-116927676D01*
X141996232Y-116866150D01*
X141996219Y-116866147D01*
X141799559Y-116835000D01*
X141600441Y-116835000D01*
X141403780Y-116866147D01*
X141403767Y-116866150D01*
X141214413Y-116927675D01*
X141036994Y-117018074D01*
X140999135Y-117045580D01*
X140999135Y-117045581D01*
X141562425Y-117608871D01*
X141503147Y-117624755D01*
X141386853Y-117691898D01*
X141291898Y-117786853D01*
X141224755Y-117903147D01*
X141208871Y-117962425D01*
X140645581Y-117399135D01*
X140645580Y-117399135D01*
X140618074Y-117436994D01*
X140527675Y-117614413D01*
X140466150Y-117803767D01*
X140466147Y-117803780D01*
X140435000Y-118000441D01*
X113962577Y-118000441D01*
X113996291Y-117954039D01*
X114033565Y-117902734D01*
X114033566Y-117902732D01*
X114115748Y-117741443D01*
X114171681Y-117569297D01*
X114171682Y-117569294D01*
X114174739Y-117550000D01*
X113066988Y-117550000D01*
X113084205Y-117540060D01*
X113140060Y-117484205D01*
X113179556Y-117415796D01*
X113200000Y-117339496D01*
X113200000Y-117260504D01*
X113179556Y-117184204D01*
X113140060Y-117115795D01*
X113084205Y-117059940D01*
X113066988Y-117050000D01*
X114174739Y-117050000D01*
X114174738Y-117049999D01*
X114171682Y-117030705D01*
X114171681Y-117030702D01*
X114115748Y-116858556D01*
X114033566Y-116697267D01*
X114033566Y-116697266D01*
X113927173Y-116550829D01*
X113927166Y-116550820D01*
X113799180Y-116422834D01*
X113799170Y-116422826D01*
X113652733Y-116316433D01*
X113491443Y-116234251D01*
X113491444Y-116234251D01*
X113319302Y-116178319D01*
X113319289Y-116178316D01*
X113140509Y-116150000D01*
X112650000Y-116150000D01*
X112650000Y-117000000D01*
X112150000Y-117000000D01*
X112150000Y-116150000D01*
X111659491Y-116150000D01*
X111480710Y-116178316D01*
X111480697Y-116178319D01*
X111308556Y-116234251D01*
X111147267Y-116316433D01*
X111147266Y-116316433D01*
X111000829Y-116422826D01*
X111000820Y-116422834D01*
X110872834Y-116550820D01*
X110872826Y-116550829D01*
X110766433Y-116697266D01*
X110766433Y-116697267D01*
X110684251Y-116858556D01*
X110628318Y-117030702D01*
X110628317Y-117030705D01*
X110625261Y-117050000D01*
X104000500Y-117050000D01*
X104000500Y-113133885D01*
X118842000Y-113133885D01*
X118842000Y-113466114D01*
X118879198Y-113796266D01*
X118953126Y-114120165D01*
X118953130Y-114120177D01*
X119062856Y-114433757D01*
X119207009Y-114733093D01*
X119383770Y-115014407D01*
X119538284Y-115208161D01*
X120255739Y-114490705D01*
X120330767Y-114588483D01*
X120511517Y-114769233D01*
X120609292Y-114844259D01*
X119891837Y-115561714D01*
X119891837Y-115561715D01*
X120085592Y-115716229D01*
X120366906Y-115892990D01*
X120666242Y-116037143D01*
X120979822Y-116146869D01*
X120979834Y-116146873D01*
X121303735Y-116220801D01*
X121303732Y-116220801D01*
X121633886Y-116258000D01*
X121966114Y-116258000D01*
X122296266Y-116220801D01*
X122620165Y-116146873D01*
X122620177Y-116146869D01*
X122933757Y-116037143D01*
X123233093Y-115892990D01*
X123514413Y-115716225D01*
X123708161Y-115561716D01*
X123708161Y-115561714D01*
X122990706Y-114844259D01*
X123088483Y-114769233D01*
X123269233Y-114588483D01*
X123344259Y-114490706D01*
X124061714Y-115208161D01*
X124061716Y-115208161D01*
X124216225Y-115014413D01*
X124392990Y-114733093D01*
X124537143Y-114433757D01*
X124646869Y-114120177D01*
X124646873Y-114120165D01*
X124720801Y-113796266D01*
X124753629Y-113504907D01*
X129534500Y-113504907D01*
X129534500Y-113695093D01*
X129539488Y-113720171D01*
X129571601Y-113881619D01*
X129571603Y-113881626D01*
X129644382Y-114057330D01*
X129644385Y-114057336D01*
X129715142Y-114163232D01*
X129739709Y-114200000D01*
X129750047Y-114215471D01*
X129884529Y-114349953D01*
X130042664Y-114455615D01*
X130218374Y-114528397D01*
X130404907Y-114565500D01*
X130404908Y-114565500D01*
X130595092Y-114565500D01*
X130595093Y-114565500D01*
X130781626Y-114528397D01*
X130957336Y-114455615D01*
X131115471Y-114349953D01*
X131249953Y-114215471D01*
X131322842Y-114106384D01*
X164749500Y-114106384D01*
X164749500Y-114293615D01*
X164786025Y-114477244D01*
X164786027Y-114477251D01*
X164842911Y-114614582D01*
X164857678Y-114650231D01*
X164913045Y-114733093D01*
X164937192Y-114769233D01*
X164961698Y-114805908D01*
X165094092Y-114938302D01*
X165249769Y-115042322D01*
X165422749Y-115113973D01*
X165606384Y-115150500D01*
X165606385Y-115150500D01*
X165793615Y-115150500D01*
X165793616Y-115150500D01*
X165977251Y-115113973D01*
X166150231Y-115042322D01*
X166305908Y-114938302D01*
X166438302Y-114805908D01*
X166542322Y-114650231D01*
X166613973Y-114477251D01*
X166650500Y-114293616D01*
X166650500Y-114106384D01*
X166613973Y-113922749D01*
X166542322Y-113749769D01*
X166438302Y-113594092D01*
X166305908Y-113461698D01*
X166150231Y-113357678D01*
X166150228Y-113357676D01*
X166150227Y-113357676D01*
X165977251Y-113286027D01*
X165977244Y-113286025D01*
X165831829Y-113257101D01*
X165793616Y-113249500D01*
X165606384Y-113249500D01*
X165570056Y-113256725D01*
X165422755Y-113286025D01*
X165422748Y-113286027D01*
X165249772Y-113357676D01*
X165094092Y-113461697D01*
X165094091Y-113461699D01*
X164961699Y-113594091D01*
X164961697Y-113594092D01*
X164857676Y-113749772D01*
X164786027Y-113922748D01*
X164786025Y-113922755D01*
X164749500Y-114106384D01*
X131322842Y-114106384D01*
X131355615Y-114057336D01*
X131428397Y-113881626D01*
X131465500Y-113695093D01*
X131465500Y-113504907D01*
X131428397Y-113318374D01*
X131355615Y-113142664D01*
X131249953Y-112984529D01*
X131115471Y-112850047D01*
X130957336Y-112744385D01*
X130957333Y-112744383D01*
X130957332Y-112744383D01*
X130781626Y-112671603D01*
X130781619Y-112671601D01*
X130641092Y-112643649D01*
X130595093Y-112634500D01*
X130404907Y-112634500D01*
X130368007Y-112641839D01*
X130218380Y-112671601D01*
X130218373Y-112671603D01*
X130042667Y-112744383D01*
X129884529Y-112850046D01*
X129884528Y-112850048D01*
X129750048Y-112984528D01*
X129750046Y-112984529D01*
X129644383Y-113142667D01*
X129571603Y-113318373D01*
X129571601Y-113318380D01*
X129542216Y-113466114D01*
X129534500Y-113504907D01*
X124753629Y-113504907D01*
X124754972Y-113492987D01*
X124754972Y-113492986D01*
X124758000Y-113466112D01*
X124758000Y-113133885D01*
X124720801Y-112803733D01*
X124646873Y-112479834D01*
X124646869Y-112479822D01*
X124537143Y-112166242D01*
X124392990Y-111866906D01*
X124216229Y-111585592D01*
X124061714Y-111391837D01*
X123344258Y-112109292D01*
X123269233Y-112011517D01*
X123088483Y-111830767D01*
X122990705Y-111755739D01*
X123708161Y-111038284D01*
X123708161Y-111038283D01*
X123514407Y-110883770D01*
X123233093Y-110707009D01*
X122933757Y-110562856D01*
X122620177Y-110453130D01*
X122620165Y-110453126D01*
X122296264Y-110379198D01*
X122296267Y-110379198D01*
X121966114Y-110342000D01*
X121633886Y-110342000D01*
X121303733Y-110379198D01*
X120979834Y-110453126D01*
X120979822Y-110453130D01*
X120666242Y-110562856D01*
X120366906Y-110707009D01*
X120085592Y-110883770D01*
X119891837Y-111038283D01*
X119891837Y-111038284D01*
X120609293Y-111755740D01*
X120511517Y-111830767D01*
X120330767Y-112011517D01*
X120255740Y-112109293D01*
X119538284Y-111391837D01*
X119538283Y-111391837D01*
X119383770Y-111585592D01*
X119207009Y-111866906D01*
X119062856Y-112166242D01*
X118953130Y-112479822D01*
X118953126Y-112479834D01*
X118879198Y-112803733D01*
X118842000Y-113133885D01*
X104000500Y-113133885D01*
X104000500Y-108104907D01*
X146234500Y-108104907D01*
X146234500Y-108295092D01*
X146271601Y-108481619D01*
X146271603Y-108481626D01*
X146344385Y-108657336D01*
X146450047Y-108815471D01*
X146584529Y-108949953D01*
X146742664Y-109055615D01*
X146918374Y-109128397D01*
X147104907Y-109165500D01*
X147104908Y-109165500D01*
X147295092Y-109165500D01*
X147295093Y-109165500D01*
X147481626Y-109128397D01*
X147657336Y-109055615D01*
X147815471Y-108949953D01*
X147949953Y-108815471D01*
X148055615Y-108657336D01*
X148128397Y-108481626D01*
X148165500Y-108295093D01*
X148165500Y-108104907D01*
X148128397Y-107918374D01*
X148055615Y-107742664D01*
X147949953Y-107584529D01*
X147870331Y-107504907D01*
X155534500Y-107504907D01*
X155534500Y-107695092D01*
X155571601Y-107881619D01*
X155571603Y-107881626D01*
X155644385Y-108057336D01*
X155750047Y-108215471D01*
X155884529Y-108349953D01*
X156042664Y-108455615D01*
X156218374Y-108528397D01*
X156404907Y-108565500D01*
X156404908Y-108565500D01*
X156595092Y-108565500D01*
X156595093Y-108565500D01*
X156781626Y-108528397D01*
X156957336Y-108455615D01*
X157115471Y-108349953D01*
X157249953Y-108215471D01*
X157355615Y-108057336D01*
X157428397Y-107881626D01*
X157465500Y-107695093D01*
X157465500Y-107504907D01*
X157428397Y-107318374D01*
X157355615Y-107142664D01*
X157249953Y-106984529D01*
X157115471Y-106850047D01*
X156957336Y-106744385D01*
X156957333Y-106744383D01*
X156957332Y-106744383D01*
X156781626Y-106671603D01*
X156781619Y-106671601D01*
X156641092Y-106643649D01*
X156595093Y-106634500D01*
X156404907Y-106634500D01*
X156368007Y-106641839D01*
X156218380Y-106671601D01*
X156218373Y-106671603D01*
X156042667Y-106744383D01*
X155884529Y-106850046D01*
X155884528Y-106850048D01*
X155750048Y-106984528D01*
X155750046Y-106984529D01*
X155644383Y-107142667D01*
X155571603Y-107318373D01*
X155571601Y-107318380D01*
X155534500Y-107504907D01*
X147870331Y-107504907D01*
X147815471Y-107450047D01*
X147657336Y-107344385D01*
X147657333Y-107344383D01*
X147657332Y-107344383D01*
X147481626Y-107271603D01*
X147481619Y-107271601D01*
X147341092Y-107243649D01*
X147295093Y-107234500D01*
X147104907Y-107234500D01*
X147068007Y-107241839D01*
X146918380Y-107271601D01*
X146918373Y-107271603D01*
X146742667Y-107344383D01*
X146584529Y-107450046D01*
X146584528Y-107450048D01*
X146450048Y-107584528D01*
X146450046Y-107584529D01*
X146344383Y-107742667D01*
X146271603Y-107918373D01*
X146271601Y-107918380D01*
X146234500Y-108104907D01*
X104000500Y-108104907D01*
X104000500Y-99922252D01*
X119141500Y-99922252D01*
X119141500Y-104877748D01*
X119147915Y-104910000D01*
X119153133Y-104936232D01*
X119172356Y-104965000D01*
X119197448Y-105002552D01*
X119241560Y-105032027D01*
X119263767Y-105046866D01*
X119263768Y-105046866D01*
X119263769Y-105046867D01*
X119322252Y-105058500D01*
X119322254Y-105058500D01*
X124277746Y-105058500D01*
X124277748Y-105058500D01*
X124336231Y-105046867D01*
X124402552Y-105002552D01*
X124446867Y-104936231D01*
X124458500Y-104877748D01*
X124458500Y-99922252D01*
X124446867Y-99863769D01*
X124402552Y-99797448D01*
X124380343Y-99782608D01*
X124336232Y-99753133D01*
X124336233Y-99753133D01*
X124306989Y-99747316D01*
X124277748Y-99741500D01*
X119322252Y-99741500D01*
X119293010Y-99747316D01*
X119263767Y-99753133D01*
X119197449Y-99797447D01*
X119197447Y-99797449D01*
X119153133Y-99863767D01*
X119153133Y-99863769D01*
X119141500Y-99922252D01*
X104000500Y-99922252D01*
X104000500Y-98150000D01*
X110625261Y-98150000D01*
X111733012Y-98150000D01*
X111715795Y-98159940D01*
X111659940Y-98215795D01*
X111620444Y-98284204D01*
X111600000Y-98360504D01*
X111600000Y-98439496D01*
X111620444Y-98515796D01*
X111659940Y-98584205D01*
X111715795Y-98640060D01*
X111733012Y-98650000D01*
X110625261Y-98650000D01*
X110628317Y-98669294D01*
X110628318Y-98669297D01*
X110684251Y-98841443D01*
X110766433Y-99002732D01*
X110766433Y-99002733D01*
X110872826Y-99149170D01*
X110872834Y-99149180D01*
X111000820Y-99277166D01*
X111000829Y-99277173D01*
X111147266Y-99383566D01*
X111308556Y-99465748D01*
X111308555Y-99465748D01*
X111480697Y-99521680D01*
X111480710Y-99521683D01*
X111659491Y-99550000D01*
X112150000Y-99550000D01*
X112150000Y-98700000D01*
X112650000Y-98700000D01*
X112650000Y-99550000D01*
X113140509Y-99550000D01*
X113319289Y-99521683D01*
X113319302Y-99521680D01*
X113491443Y-99465748D01*
X113652732Y-99383566D01*
X113652733Y-99383566D01*
X113799170Y-99277173D01*
X113799180Y-99277166D01*
X113927166Y-99149180D01*
X113927173Y-99149170D01*
X114033566Y-99002733D01*
X114033566Y-99002732D01*
X114115748Y-98841443D01*
X114171681Y-98669297D01*
X114171682Y-98669294D01*
X114174739Y-98650000D01*
X113066988Y-98650000D01*
X113084205Y-98640060D01*
X113140060Y-98584205D01*
X113179556Y-98515796D01*
X113200000Y-98439496D01*
X113200000Y-98360504D01*
X113179556Y-98284204D01*
X113140060Y-98215795D01*
X113084205Y-98159940D01*
X113066988Y-98150000D01*
X114174738Y-98150000D01*
X114171682Y-98130705D01*
X114171681Y-98130702D01*
X114115748Y-97958556D01*
X114033566Y-97797267D01*
X114033566Y-97797266D01*
X113927173Y-97650829D01*
X113927166Y-97650820D01*
X113799180Y-97522834D01*
X113799170Y-97522826D01*
X113652733Y-97416433D01*
X113491443Y-97334251D01*
X113491444Y-97334251D01*
X113319302Y-97278319D01*
X113319289Y-97278316D01*
X113140509Y-97250000D01*
X112650000Y-97250000D01*
X112650000Y-98100000D01*
X112150000Y-98100000D01*
X112150000Y-97250000D01*
X111659491Y-97250000D01*
X111480710Y-97278316D01*
X111480697Y-97278319D01*
X111308556Y-97334251D01*
X111147267Y-97416433D01*
X111147266Y-97416433D01*
X111000829Y-97522826D01*
X111000820Y-97522834D01*
X110872834Y-97650820D01*
X110872826Y-97650829D01*
X110766433Y-97797266D01*
X110766433Y-97797267D01*
X110684251Y-97958556D01*
X110628318Y-98130702D01*
X110628317Y-98130705D01*
X110625261Y-98150000D01*
X104000500Y-98150000D01*
X104000500Y-93006384D01*
X122849500Y-93006384D01*
X122849500Y-93193615D01*
X122886025Y-93377244D01*
X122886027Y-93377251D01*
X122946107Y-93522298D01*
X122957678Y-93550231D01*
X122978091Y-93580781D01*
X123058098Y-93700521D01*
X123061698Y-93705908D01*
X123194092Y-93838302D01*
X123349769Y-93942322D01*
X123449153Y-93983488D01*
X123453818Y-93985420D01*
X123493867Y-94025468D01*
X123499500Y-94053787D01*
X123499500Y-94919894D01*
X123519977Y-94996315D01*
X123519979Y-94996320D01*
X123545460Y-95040454D01*
X123545461Y-95040456D01*
X123545464Y-95040460D01*
X123559540Y-95064841D01*
X125979210Y-97484511D01*
X126035159Y-97540460D01*
X126103681Y-97580021D01*
X126103682Y-97580021D01*
X126103684Y-97580022D01*
X126141894Y-97590260D01*
X126180105Y-97600499D01*
X126180106Y-97600500D01*
X126180108Y-97600500D01*
X127939564Y-97600500D01*
X127939564Y-97600499D01*
X128015989Y-97580021D01*
X128084511Y-97540460D01*
X128140460Y-97484511D01*
X129227797Y-96397174D01*
X129280123Y-96375500D01*
X129333489Y-96375500D01*
X129383307Y-96367609D01*
X129433126Y-96359719D01*
X129553220Y-96298528D01*
X129648528Y-96203220D01*
X129709719Y-96083126D01*
X129725500Y-95983488D01*
X129725500Y-95416512D01*
X129711540Y-95328374D01*
X129724761Y-95273304D01*
X129773052Y-95243711D01*
X129828125Y-95256932D01*
X129836955Y-95264474D01*
X133156992Y-98584511D01*
X133212941Y-98640460D01*
X133229465Y-98650000D01*
X133280657Y-98679556D01*
X133281463Y-98680021D01*
X133281464Y-98680021D01*
X133281466Y-98680022D01*
X133319676Y-98690260D01*
X133357887Y-98700499D01*
X133357888Y-98700500D01*
X133357890Y-98700500D01*
X133437014Y-98700500D01*
X140162034Y-98700500D01*
X140214360Y-98722174D01*
X140292686Y-98800500D01*
X140406814Y-98866392D01*
X140534105Y-98900499D01*
X140534106Y-98900500D01*
X140534108Y-98900500D01*
X140665894Y-98900500D01*
X140665894Y-98900499D01*
X140793186Y-98866392D01*
X140907314Y-98800500D01*
X141000500Y-98707314D01*
X141066392Y-98593186D01*
X141100499Y-98465894D01*
X141100500Y-98465894D01*
X141100500Y-98334106D01*
X141100499Y-98334105D01*
X141066393Y-98206818D01*
X141066392Y-98206814D01*
X141000500Y-98092686D01*
X140907314Y-97999500D01*
X140836397Y-97958556D01*
X140793190Y-97933610D01*
X140793181Y-97933606D01*
X140665894Y-97899500D01*
X140665892Y-97899500D01*
X140534108Y-97899500D01*
X140534106Y-97899500D01*
X140406818Y-97933606D01*
X140406809Y-97933610D01*
X140292685Y-97999500D01*
X140214360Y-98077826D01*
X140162034Y-98099500D01*
X134204123Y-98099500D01*
X134151797Y-98077826D01*
X134130123Y-98025500D01*
X134151797Y-97973174D01*
X134250994Y-97873977D01*
X134840460Y-97284511D01*
X134880022Y-97215988D01*
X134900500Y-97139562D01*
X134900500Y-97060438D01*
X134900500Y-95986007D01*
X134922174Y-95933681D01*
X134962925Y-95912918D01*
X134983126Y-95909719D01*
X135103220Y-95848528D01*
X135198528Y-95753220D01*
X135259719Y-95633126D01*
X135275500Y-95533488D01*
X135275500Y-95016512D01*
X135273332Y-95002826D01*
X135259719Y-94916874D01*
X135259718Y-94916873D01*
X135257767Y-94913044D01*
X135198528Y-94796780D01*
X135103220Y-94701472D01*
X135103219Y-94701471D01*
X134983126Y-94640281D01*
X134983125Y-94640280D01*
X134883489Y-94624500D01*
X134883488Y-94624500D01*
X134316512Y-94624500D01*
X134316511Y-94624500D01*
X134216874Y-94640280D01*
X134216873Y-94640281D01*
X134096780Y-94701471D01*
X134001471Y-94796780D01*
X133940281Y-94916873D01*
X133940280Y-94916874D01*
X133924500Y-95016511D01*
X133924500Y-95533488D01*
X133940280Y-95633125D01*
X133940281Y-95633126D01*
X134001472Y-95753220D01*
X134096780Y-95848528D01*
X134216874Y-95909719D01*
X134237074Y-95912918D01*
X134285366Y-95942509D01*
X134299500Y-95986007D01*
X134299500Y-96944877D01*
X134277826Y-96997203D01*
X133401052Y-97873977D01*
X133348726Y-97895651D01*
X133296400Y-97873977D01*
X129251799Y-93829376D01*
X129230125Y-93777050D01*
X129251799Y-93724724D01*
X129304125Y-93703050D01*
X129598346Y-93703050D01*
X129598348Y-93703050D01*
X129656831Y-93691417D01*
X129723152Y-93647102D01*
X129767467Y-93580781D01*
X129779100Y-93522298D01*
X129779100Y-93374500D01*
X129800774Y-93322174D01*
X129853100Y-93300500D01*
X132464877Y-93300500D01*
X132517203Y-93322174D01*
X133104540Y-93909511D01*
X133160489Y-93965460D01*
X133229011Y-94005021D01*
X133229012Y-94005021D01*
X133229014Y-94005022D01*
X133267224Y-94015260D01*
X133305435Y-94025499D01*
X133305436Y-94025500D01*
X133305438Y-94025500D01*
X133867952Y-94025500D01*
X133920278Y-94047174D01*
X133936155Y-94078339D01*
X133938480Y-94077584D01*
X133940281Y-94083125D01*
X133940281Y-94083126D01*
X134001472Y-94203220D01*
X134096780Y-94298528D01*
X134216874Y-94359719D01*
X134316511Y-94375500D01*
X134316512Y-94375500D01*
X134883489Y-94375500D01*
X134933307Y-94367609D01*
X134983126Y-94359719D01*
X135103220Y-94298528D01*
X135198528Y-94203220D01*
X135259719Y-94083126D01*
X135275500Y-93983488D01*
X135275500Y-93466512D01*
X135259719Y-93366874D01*
X135198528Y-93246780D01*
X135103220Y-93151472D01*
X135103219Y-93151471D01*
X134983126Y-93090281D01*
X134983125Y-93090280D01*
X134883489Y-93074500D01*
X134883488Y-93074500D01*
X134316512Y-93074500D01*
X134316511Y-93074500D01*
X134216874Y-93090280D01*
X134216873Y-93090281D01*
X134096780Y-93151471D01*
X134001471Y-93246780D01*
X133940281Y-93366873D01*
X133938480Y-93372416D01*
X133935329Y-93371392D01*
X133911454Y-93410363D01*
X133867952Y-93424500D01*
X133500123Y-93424500D01*
X133447797Y-93402826D01*
X133097297Y-93052326D01*
X133075623Y-93000000D01*
X133097297Y-92947674D01*
X136547797Y-89497174D01*
X136600123Y-89475500D01*
X138114746Y-89475500D01*
X138114748Y-89475500D01*
X138173231Y-89463867D01*
X138239552Y-89419552D01*
X138283867Y-89353231D01*
X138295500Y-89294748D01*
X138295500Y-88315355D01*
X138684500Y-88315355D01*
X138684500Y-88484644D01*
X138710981Y-88651844D01*
X138710984Y-88651857D01*
X138763291Y-88812841D01*
X138840149Y-88963685D01*
X138938825Y-89099500D01*
X138939654Y-89100641D01*
X139059359Y-89220346D01*
X139059362Y-89220348D01*
X139059363Y-89220349D01*
X139196314Y-89319850D01*
X139251081Y-89347755D01*
X139347151Y-89396705D01*
X139347154Y-89396705D01*
X139347158Y-89396708D01*
X139508142Y-89449015D01*
X139508148Y-89449016D01*
X139508153Y-89449018D01*
X139601901Y-89463866D01*
X139675355Y-89475500D01*
X139675356Y-89475500D01*
X139844645Y-89475500D01*
X139886444Y-89468879D01*
X140011847Y-89449018D01*
X140011854Y-89449015D01*
X140011857Y-89449015D01*
X140172841Y-89396708D01*
X140172843Y-89396706D01*
X140172849Y-89396705D01*
X140323685Y-89319850D01*
X140460641Y-89220346D01*
X140580346Y-89100641D01*
X140679850Y-88963685D01*
X140756705Y-88812849D01*
X140809018Y-88651847D01*
X140835500Y-88484644D01*
X140835500Y-88315356D01*
X140835500Y-88315355D01*
X141224500Y-88315355D01*
X141224500Y-88484644D01*
X141250981Y-88651844D01*
X141250984Y-88651857D01*
X141303291Y-88812841D01*
X141380149Y-88963685D01*
X141478825Y-89099500D01*
X141479654Y-89100641D01*
X141599359Y-89220346D01*
X141599362Y-89220348D01*
X141599363Y-89220349D01*
X141736314Y-89319850D01*
X141791081Y-89347755D01*
X141887151Y-89396705D01*
X141887154Y-89396705D01*
X141887158Y-89396708D01*
X142048142Y-89449015D01*
X142048148Y-89449016D01*
X142048153Y-89449018D01*
X142141901Y-89463866D01*
X142215355Y-89475500D01*
X142215356Y-89475500D01*
X142384645Y-89475500D01*
X142426444Y-89468879D01*
X142551847Y-89449018D01*
X142551854Y-89449015D01*
X142551857Y-89449015D01*
X142712841Y-89396708D01*
X142712843Y-89396706D01*
X142712849Y-89396705D01*
X142863685Y-89319850D01*
X143000641Y-89220346D01*
X143120346Y-89100641D01*
X143219850Y-88963685D01*
X143296705Y-88812849D01*
X143349018Y-88651847D01*
X143375500Y-88484644D01*
X143375500Y-88315356D01*
X143349018Y-88148153D01*
X143349016Y-88148148D01*
X143349015Y-88148142D01*
X143296708Y-87987158D01*
X143296705Y-87987154D01*
X143296705Y-87987151D01*
X143252554Y-87900500D01*
X143219850Y-87836314D01*
X143120349Y-87699363D01*
X143120348Y-87699362D01*
X143120346Y-87699359D01*
X143000641Y-87579654D01*
X143000638Y-87579651D01*
X143000636Y-87579650D01*
X142863685Y-87480149D01*
X142712841Y-87403291D01*
X142551857Y-87350984D01*
X142551844Y-87350981D01*
X142384645Y-87324500D01*
X142384644Y-87324500D01*
X142215356Y-87324500D01*
X142215355Y-87324500D01*
X142048155Y-87350981D01*
X142048142Y-87350984D01*
X141887158Y-87403291D01*
X141736314Y-87480149D01*
X141599363Y-87579650D01*
X141479650Y-87699363D01*
X141380149Y-87836314D01*
X141303291Y-87987158D01*
X141250984Y-88148142D01*
X141250981Y-88148155D01*
X141224500Y-88315355D01*
X140835500Y-88315355D01*
X140809018Y-88148153D01*
X140809016Y-88148148D01*
X140809015Y-88148142D01*
X140756708Y-87987158D01*
X140756705Y-87987154D01*
X140756705Y-87987151D01*
X140712554Y-87900500D01*
X140679850Y-87836314D01*
X140580349Y-87699363D01*
X140580348Y-87699362D01*
X140580346Y-87699359D01*
X140460641Y-87579654D01*
X140460638Y-87579651D01*
X140460636Y-87579650D01*
X140323685Y-87480149D01*
X140172841Y-87403291D01*
X140011857Y-87350984D01*
X140011844Y-87350981D01*
X139844645Y-87324500D01*
X139844644Y-87324500D01*
X139675356Y-87324500D01*
X139675355Y-87324500D01*
X139508155Y-87350981D01*
X139508142Y-87350984D01*
X139347158Y-87403291D01*
X139196314Y-87480149D01*
X139059363Y-87579650D01*
X138939650Y-87699363D01*
X138840149Y-87836314D01*
X138763291Y-87987158D01*
X138710984Y-88148142D01*
X138710981Y-88148155D01*
X138684500Y-88315355D01*
X138295500Y-88315355D01*
X138295500Y-87505252D01*
X138283867Y-87446769D01*
X138239552Y-87380448D01*
X138217343Y-87365608D01*
X138173232Y-87336133D01*
X138173233Y-87336133D01*
X138143989Y-87330316D01*
X138114748Y-87324500D01*
X138114746Y-87324500D01*
X137594500Y-87324500D01*
X137542174Y-87302826D01*
X137520500Y-87250500D01*
X137520500Y-83780436D01*
X137520499Y-83780435D01*
X137519184Y-83775529D01*
X137500021Y-83704011D01*
X137460460Y-83635489D01*
X137404511Y-83579540D01*
X135798395Y-81973424D01*
X135776721Y-81921098D01*
X135782353Y-81892781D01*
X135828397Y-81781626D01*
X135865500Y-81595093D01*
X135865500Y-81404907D01*
X135828397Y-81218374D01*
X135755615Y-81042664D01*
X135649953Y-80884529D01*
X135515471Y-80750047D01*
X135357336Y-80644385D01*
X135357333Y-80644383D01*
X135357332Y-80644383D01*
X135181626Y-80571603D01*
X135181619Y-80571601D01*
X135041092Y-80543649D01*
X134995093Y-80534500D01*
X134804907Y-80534500D01*
X134768007Y-80541839D01*
X134618380Y-80571601D01*
X134618373Y-80571603D01*
X134442667Y-80644383D01*
X134284529Y-80750046D01*
X134284528Y-80750048D01*
X134150048Y-80884528D01*
X134150046Y-80884529D01*
X134044383Y-81042667D01*
X133971603Y-81218373D01*
X133971601Y-81218380D01*
X133934500Y-81404907D01*
X133934500Y-81595092D01*
X133971601Y-81781619D01*
X133971603Y-81781626D01*
X134036566Y-81938461D01*
X134044385Y-81957336D01*
X134150047Y-82115471D01*
X134284529Y-82249953D01*
X134442664Y-82355615D01*
X134618374Y-82428397D01*
X134804907Y-82465500D01*
X134804908Y-82465500D01*
X134995092Y-82465500D01*
X134995093Y-82465500D01*
X135181626Y-82428397D01*
X135292781Y-82382354D01*
X135349416Y-82382354D01*
X135373424Y-82398395D01*
X136897826Y-83922797D01*
X136919500Y-83975123D01*
X136919500Y-87250500D01*
X136897826Y-87302826D01*
X136845500Y-87324500D01*
X136325252Y-87324500D01*
X136296010Y-87330316D01*
X136266767Y-87336133D01*
X136200449Y-87380447D01*
X136200447Y-87380449D01*
X136156133Y-87446767D01*
X136144500Y-87505253D01*
X136144500Y-89019877D01*
X136122826Y-89072203D01*
X132517203Y-92677826D01*
X132464877Y-92699500D01*
X129853100Y-92699500D01*
X129800774Y-92677826D01*
X129779100Y-92625500D01*
X129779100Y-92477703D01*
X129779100Y-92477702D01*
X129767467Y-92419219D01*
X129723152Y-92352898D01*
X129700943Y-92338058D01*
X129656832Y-92308583D01*
X129656833Y-92308583D01*
X129627589Y-92302766D01*
X129598348Y-92296950D01*
X129101652Y-92296950D01*
X129039437Y-92309325D01*
X129010565Y-92309325D01*
X128948350Y-92296950D01*
X128451654Y-92296950D01*
X128389437Y-92309325D01*
X128360565Y-92309325D01*
X128298348Y-92296950D01*
X127801652Y-92296950D01*
X127739437Y-92309325D01*
X127710565Y-92309325D01*
X127648350Y-92296950D01*
X127151654Y-92296950D01*
X127122412Y-92302766D01*
X127093169Y-92308583D01*
X127026851Y-92352897D01*
X127026849Y-92352899D01*
X126982535Y-92419217D01*
X126982535Y-92419219D01*
X126970902Y-92477702D01*
X126970902Y-93522298D01*
X126976458Y-93550231D01*
X126982535Y-93580782D01*
X127012010Y-93624893D01*
X127026850Y-93647102D01*
X127070962Y-93676577D01*
X127093169Y-93691416D01*
X127093170Y-93691416D01*
X127093171Y-93691417D01*
X127151654Y-93703050D01*
X127151656Y-93703050D01*
X127648348Y-93703050D01*
X127648350Y-93703050D01*
X127661061Y-93700521D01*
X127716609Y-93711567D01*
X127748077Y-93758657D01*
X127749500Y-93773098D01*
X127749500Y-94950500D01*
X127727826Y-95002826D01*
X127675500Y-95024500D01*
X127266511Y-95024500D01*
X127166874Y-95040280D01*
X127166873Y-95040281D01*
X127046780Y-95101471D01*
X126951471Y-95196780D01*
X126890281Y-95316873D01*
X126890280Y-95316874D01*
X126874500Y-95416511D01*
X126874500Y-95983488D01*
X126890280Y-96083125D01*
X126890281Y-96083126D01*
X126950804Y-96201910D01*
X126951472Y-96203220D01*
X127046780Y-96298528D01*
X127166874Y-96359719D01*
X127266511Y-96375500D01*
X127266512Y-96375500D01*
X127783489Y-96375500D01*
X127833307Y-96367609D01*
X127883126Y-96359719D01*
X128003220Y-96298528D01*
X128098528Y-96203220D01*
X128159719Y-96083126D01*
X128175500Y-95983488D01*
X128175500Y-95505123D01*
X128181519Y-95490591D01*
X128181967Y-95474869D01*
X128197174Y-95452797D01*
X128233460Y-95416511D01*
X128284760Y-95365210D01*
X128337085Y-95343537D01*
X128389411Y-95365211D01*
X128408563Y-95398383D01*
X128421236Y-95445675D01*
X128420378Y-95445904D01*
X128424500Y-95466620D01*
X128424500Y-95983488D01*
X128440280Y-96083123D01*
X128440280Y-96083124D01*
X128440281Y-96083126D01*
X128500805Y-96201910D01*
X128505248Y-96258372D01*
X128487196Y-96287831D01*
X127797203Y-96977826D01*
X127744877Y-96999500D01*
X126374793Y-96999500D01*
X126322467Y-96977826D01*
X124122174Y-94777533D01*
X124100500Y-94725207D01*
X124100500Y-94053787D01*
X124122174Y-94001461D01*
X124146182Y-93985420D01*
X124250231Y-93942322D01*
X124405908Y-93838302D01*
X124538302Y-93705908D01*
X124642322Y-93550231D01*
X124713973Y-93377251D01*
X124750500Y-93193616D01*
X124750500Y-93006384D01*
X124713973Y-92822749D01*
X124642322Y-92649769D01*
X124538302Y-92494092D01*
X124405908Y-92361698D01*
X124392739Y-92352899D01*
X124327526Y-92309325D01*
X124250231Y-92257678D01*
X124250228Y-92257676D01*
X124250227Y-92257676D01*
X124077251Y-92186027D01*
X124077244Y-92186025D01*
X123938902Y-92158507D01*
X123893616Y-92149500D01*
X123706384Y-92149500D01*
X123670056Y-92156725D01*
X123522755Y-92186025D01*
X123522748Y-92186027D01*
X123349772Y-92257676D01*
X123194092Y-92361697D01*
X123194091Y-92361699D01*
X123061699Y-92494091D01*
X123061697Y-92494092D01*
X122957676Y-92649772D01*
X122886027Y-92822748D01*
X122886025Y-92822755D01*
X122849500Y-93006384D01*
X104000500Y-93006384D01*
X104000500Y-89900000D01*
X110375885Y-89900000D01*
X111333012Y-89900000D01*
X111315795Y-89909940D01*
X111259940Y-89965795D01*
X111220444Y-90034204D01*
X111200000Y-90110504D01*
X111200000Y-90189496D01*
X111220444Y-90265796D01*
X111259940Y-90334205D01*
X111315795Y-90390060D01*
X111333012Y-90400000D01*
X110375885Y-90400000D01*
X110377086Y-90407586D01*
X110377088Y-90407592D01*
X110430588Y-90572249D01*
X110509197Y-90726526D01*
X110509198Y-90726528D01*
X110610964Y-90866597D01*
X110610972Y-90866607D01*
X110733393Y-90989028D01*
X110733402Y-90989035D01*
X110873471Y-91090801D01*
X110873473Y-91090802D01*
X111027750Y-91169411D01*
X111027749Y-91169411D01*
X111192405Y-91222911D01*
X111192418Y-91222914D01*
X111363426Y-91250000D01*
X111800000Y-91250000D01*
X111800000Y-90450000D01*
X112300000Y-90450000D01*
X112300000Y-91250000D01*
X112736574Y-91250000D01*
X112907581Y-91222914D01*
X112907594Y-91222911D01*
X113072249Y-91169411D01*
X113226526Y-91090802D01*
X113226528Y-91090801D01*
X113366597Y-90989035D01*
X113366607Y-90989028D01*
X113489028Y-90866607D01*
X113489035Y-90866597D01*
X113590801Y-90726528D01*
X113590802Y-90726526D01*
X113669410Y-90572251D01*
X113690812Y-90506384D01*
X122849500Y-90506384D01*
X122849500Y-90693615D01*
X122886025Y-90877244D01*
X122886027Y-90877251D01*
X122956319Y-91046952D01*
X122957678Y-91050231D01*
X122984786Y-91090801D01*
X123060182Y-91203640D01*
X123061698Y-91205908D01*
X123194092Y-91338302D01*
X123349769Y-91442322D01*
X123522749Y-91513973D01*
X123706384Y-91550500D01*
X123706385Y-91550500D01*
X123893615Y-91550500D01*
X123893616Y-91550500D01*
X124077251Y-91513973D01*
X124250231Y-91442322D01*
X124405908Y-91338302D01*
X124538302Y-91205908D01*
X124642322Y-91050231D01*
X124706919Y-90894280D01*
X126671402Y-90894280D01*
X126677804Y-90953827D01*
X126677805Y-90953832D01*
X126728047Y-91088539D01*
X126728048Y-91088540D01*
X126814213Y-91203640D01*
X126929313Y-91289805D01*
X126929314Y-91289806D01*
X127064021Y-91340048D01*
X127064026Y-91340049D01*
X127123573Y-91346452D01*
X127171402Y-91346452D01*
X127171402Y-90572502D01*
X126671402Y-90572502D01*
X126671402Y-90894280D01*
X124706919Y-90894280D01*
X124713973Y-90877251D01*
X124750500Y-90693616D01*
X124750500Y-90506384D01*
X124713973Y-90322749D01*
X124713971Y-90322744D01*
X124670874Y-90218698D01*
X124670874Y-90162061D01*
X124686912Y-90138057D01*
X125031446Y-89793523D01*
X126671402Y-89793523D01*
X126671402Y-90115302D01*
X127171402Y-90115302D01*
X127171402Y-89341352D01*
X127123573Y-89341352D01*
X127064026Y-89347754D01*
X127064021Y-89347755D01*
X126929314Y-89397997D01*
X126929313Y-89397998D01*
X126814213Y-89484163D01*
X126728048Y-89599263D01*
X126728047Y-89599264D01*
X126677805Y-89733971D01*
X126677804Y-89733976D01*
X126671402Y-89793523D01*
X125031446Y-89793523D01*
X126215460Y-88609511D01*
X126255021Y-88540989D01*
X126275499Y-88464564D01*
X126275500Y-88464564D01*
X126275500Y-88204123D01*
X126297174Y-88151797D01*
X126349500Y-88130123D01*
X126401826Y-88151797D01*
X127606928Y-89356899D01*
X127628602Y-89409225D01*
X127628602Y-89775595D01*
X127627180Y-89790031D01*
X127623742Y-89807314D01*
X127620900Y-89821604D01*
X127620900Y-90866200D01*
X127627180Y-90897770D01*
X127628602Y-90912207D01*
X127628602Y-91346452D01*
X127676431Y-91346452D01*
X127735977Y-91340049D01*
X127735982Y-91340048D01*
X127870689Y-91289806D01*
X127870690Y-91289805D01*
X127985790Y-91203640D01*
X128071955Y-91088539D01*
X128073623Y-91085487D01*
X128117723Y-91049949D01*
X128138571Y-91046952D01*
X128298346Y-91046952D01*
X128298348Y-91046952D01*
X128356831Y-91035319D01*
X128356831Y-91035318D01*
X128360564Y-91034576D01*
X128389438Y-91034576D01*
X128393170Y-91035318D01*
X128393171Y-91035319D01*
X128451654Y-91046952D01*
X128451656Y-91046952D01*
X128948348Y-91046952D01*
X128948350Y-91046952D01*
X129006833Y-91035319D01*
X129006834Y-91035317D01*
X129010564Y-91034576D01*
X129039438Y-91034576D01*
X129043167Y-91035317D01*
X129043169Y-91035319D01*
X129101652Y-91046952D01*
X129101654Y-91046952D01*
X129598346Y-91046952D01*
X129598348Y-91046952D01*
X129656831Y-91035319D01*
X129723152Y-90991004D01*
X129767467Y-90924683D01*
X129779100Y-90866200D01*
X129779100Y-90718402D01*
X129800774Y-90666076D01*
X129853100Y-90644402D01*
X130395662Y-90644402D01*
X130395662Y-90644401D01*
X130472087Y-90623923D01*
X130540609Y-90584362D01*
X130596558Y-90528413D01*
X131102796Y-90022173D01*
X131155122Y-90000500D01*
X131265894Y-90000500D01*
X131265894Y-90000499D01*
X131393186Y-89966392D01*
X131507314Y-89900500D01*
X131600500Y-89807314D01*
X131666392Y-89693186D01*
X131700499Y-89565894D01*
X131700500Y-89565894D01*
X131700500Y-89434106D01*
X131700499Y-89434105D01*
X131678829Y-89353232D01*
X131666392Y-89306814D01*
X131600500Y-89192686D01*
X131507314Y-89099500D01*
X131393190Y-89033610D01*
X131393181Y-89033606D01*
X131265894Y-88999500D01*
X131265892Y-88999500D01*
X131134108Y-88999500D01*
X131134106Y-88999500D01*
X131006818Y-89033606D01*
X131006809Y-89033610D01*
X130892685Y-89099500D01*
X130799500Y-89192685D01*
X130733610Y-89306809D01*
X130733606Y-89306818D01*
X130699500Y-89434105D01*
X130699500Y-89544876D01*
X130677826Y-89597202D01*
X130253301Y-90021728D01*
X130200975Y-90043402D01*
X129853100Y-90043402D01*
X129800774Y-90021728D01*
X129779100Y-89969402D01*
X129779100Y-89821605D01*
X129779100Y-89821604D01*
X129767467Y-89763121D01*
X129723152Y-89696800D01*
X129700943Y-89681960D01*
X129656832Y-89652485D01*
X129656833Y-89652485D01*
X129627589Y-89646668D01*
X129598348Y-89640852D01*
X129101652Y-89640852D01*
X129039437Y-89653227D01*
X129010565Y-89653227D01*
X128948350Y-89640852D01*
X128451654Y-89640852D01*
X128445029Y-89642169D01*
X128438933Y-89643382D01*
X128383385Y-89632330D01*
X128351921Y-89585236D01*
X128350500Y-89570803D01*
X128350500Y-89335436D01*
X128350499Y-89335435D01*
X128330022Y-89259014D01*
X128330020Y-89259009D01*
X128317689Y-89237652D01*
X128290460Y-89190489D01*
X128234511Y-89134540D01*
X127396674Y-88296703D01*
X127387684Y-88274999D01*
X127875000Y-88274999D01*
X127881571Y-88274999D01*
X127881583Y-88274998D01*
X127952102Y-88268591D01*
X127952106Y-88268590D01*
X128114393Y-88218020D01*
X128259874Y-88130074D01*
X128380074Y-88009874D01*
X128468020Y-87864393D01*
X128518589Y-87702109D01*
X128518591Y-87702099D01*
X128524999Y-87631582D01*
X128525000Y-87631573D01*
X128525000Y-87550000D01*
X127875000Y-87550000D01*
X127875000Y-88274999D01*
X127387684Y-88274999D01*
X127375000Y-88244377D01*
X127375000Y-87550000D01*
X126704048Y-87550000D01*
X126687474Y-87556862D01*
X126635159Y-87535188D01*
X126597173Y-87497202D01*
X126575499Y-87444876D01*
X126575499Y-86993479D01*
X126575498Y-86993475D01*
X126573099Y-86978321D01*
X126571530Y-86968417D01*
X126725000Y-86968417D01*
X126725000Y-87050000D01*
X127375000Y-87050000D01*
X127875000Y-87050000D01*
X128524999Y-87050000D01*
X128524999Y-86968429D01*
X128524998Y-86968416D01*
X128518591Y-86897897D01*
X128518590Y-86897893D01*
X128468020Y-86735606D01*
X128380074Y-86590125D01*
X128259874Y-86469925D01*
X128114393Y-86381979D01*
X127952109Y-86331410D01*
X127952099Y-86331408D01*
X127881582Y-86325000D01*
X127875000Y-86325000D01*
X127875000Y-87050000D01*
X127375000Y-87050000D01*
X127375000Y-86325000D01*
X127374999Y-86324999D01*
X127368434Y-86325000D01*
X127368411Y-86325001D01*
X127297897Y-86331408D01*
X127297893Y-86331409D01*
X127135606Y-86381979D01*
X126990125Y-86469925D01*
X126869925Y-86590125D01*
X126781979Y-86735606D01*
X126731410Y-86897890D01*
X126731408Y-86897900D01*
X126725000Y-86968417D01*
X126571530Y-86968417D01*
X126566140Y-86934392D01*
X126560646Y-86899696D01*
X126560645Y-86899694D01*
X126560645Y-86899693D01*
X126503049Y-86786657D01*
X126413342Y-86696950D01*
X126315904Y-86647302D01*
X126279122Y-86604235D01*
X126275500Y-86581368D01*
X126275500Y-83380122D01*
X126297173Y-83327797D01*
X127326575Y-82298394D01*
X127378900Y-82276721D01*
X127407218Y-82282353D01*
X127518374Y-82328397D01*
X127704907Y-82365500D01*
X127704908Y-82365500D01*
X127895092Y-82365500D01*
X127895093Y-82365500D01*
X128081626Y-82328397D01*
X128257336Y-82255615D01*
X128415471Y-82149953D01*
X128549953Y-82015471D01*
X128655615Y-81857336D01*
X128728397Y-81681626D01*
X128765500Y-81495093D01*
X128765500Y-81304907D01*
X128728397Y-81118374D01*
X128655615Y-80942664D01*
X128549953Y-80784529D01*
X128415471Y-80650047D01*
X128406997Y-80644385D01*
X128363232Y-80615142D01*
X128257336Y-80544385D01*
X128257333Y-80544383D01*
X128257332Y-80544383D01*
X128081626Y-80471603D01*
X128081619Y-80471601D01*
X127941092Y-80443649D01*
X127895093Y-80434500D01*
X127704907Y-80434500D01*
X127668007Y-80441839D01*
X127518380Y-80471601D01*
X127518373Y-80471603D01*
X127342667Y-80544383D01*
X127184529Y-80650046D01*
X127184528Y-80650048D01*
X127050048Y-80784528D01*
X127050046Y-80784529D01*
X126944383Y-80942667D01*
X126871603Y-81118373D01*
X126871601Y-81118380D01*
X126834500Y-81304907D01*
X126834500Y-81495092D01*
X126871601Y-81681619D01*
X126871604Y-81681630D01*
X126917644Y-81792780D01*
X126917644Y-81849417D01*
X126901603Y-81873424D01*
X125790489Y-82984540D01*
X125734540Y-83040488D01*
X125694979Y-83109009D01*
X125694977Y-83109014D01*
X125674500Y-83185435D01*
X125674500Y-86581368D01*
X125652826Y-86633694D01*
X125634096Y-86647302D01*
X125536657Y-86696950D01*
X125446951Y-86786656D01*
X125389353Y-86899698D01*
X125374500Y-86993480D01*
X125374500Y-87606519D01*
X125389353Y-87700304D01*
X125389354Y-87700306D01*
X125436677Y-87793181D01*
X125446950Y-87813342D01*
X125536658Y-87903050D01*
X125634096Y-87952697D01*
X125670878Y-87995764D01*
X125674500Y-88018631D01*
X125674500Y-88269876D01*
X125652826Y-88322202D01*
X124261943Y-89713084D01*
X124209617Y-89734758D01*
X124181300Y-89729125D01*
X124077251Y-89686027D01*
X124077244Y-89686025D01*
X123938902Y-89658507D01*
X123893616Y-89649500D01*
X123706384Y-89649500D01*
X123687647Y-89653227D01*
X123522755Y-89686025D01*
X123522748Y-89686027D01*
X123349772Y-89757676D01*
X123194092Y-89861697D01*
X123194091Y-89861699D01*
X123061699Y-89994091D01*
X123061697Y-89994092D01*
X122957676Y-90149772D01*
X122886027Y-90322748D01*
X122886025Y-90322755D01*
X122849500Y-90506384D01*
X113690812Y-90506384D01*
X113699424Y-90479881D01*
X113699424Y-90479880D01*
X113722911Y-90407592D01*
X113722913Y-90407586D01*
X113724115Y-90400000D01*
X112766988Y-90400000D01*
X112784205Y-90390060D01*
X112840060Y-90334205D01*
X112879556Y-90265796D01*
X112900000Y-90189496D01*
X112900000Y-90110504D01*
X112879556Y-90034204D01*
X112840060Y-89965795D01*
X112784205Y-89909940D01*
X112766988Y-89900000D01*
X113724115Y-89900000D01*
X113722913Y-89892413D01*
X113722911Y-89892407D01*
X113669411Y-89727750D01*
X113590802Y-89573473D01*
X113590801Y-89573471D01*
X113489035Y-89433402D01*
X113489028Y-89433393D01*
X113366607Y-89310972D01*
X113366597Y-89310964D01*
X113226528Y-89209198D01*
X113226526Y-89209197D01*
X113072249Y-89130588D01*
X113072250Y-89130588D01*
X112907594Y-89077088D01*
X112907581Y-89077085D01*
X112736574Y-89050000D01*
X112300000Y-89050000D01*
X112300000Y-89850000D01*
X111800000Y-89850000D01*
X111800000Y-89050000D01*
X111363426Y-89050000D01*
X111192418Y-89077085D01*
X111192405Y-89077088D01*
X111027750Y-89130588D01*
X110873473Y-89209197D01*
X110873471Y-89209198D01*
X110733402Y-89310964D01*
X110733393Y-89310972D01*
X110610972Y-89433393D01*
X110610964Y-89433402D01*
X110509198Y-89573471D01*
X110509197Y-89573473D01*
X110430588Y-89727750D01*
X110377088Y-89892407D01*
X110377086Y-89892413D01*
X110375885Y-89900000D01*
X104000500Y-89900000D01*
X104000500Y-86845450D01*
X115692000Y-86845450D01*
X115692000Y-87154549D01*
X115732346Y-87461008D01*
X115812347Y-87759578D01*
X115930635Y-88045151D01*
X115930636Y-88045153D01*
X116085185Y-88312841D01*
X116085189Y-88312847D01*
X116214750Y-88481694D01*
X116934728Y-87761716D01*
X117020278Y-87879466D01*
X117170534Y-88029722D01*
X117288281Y-88115270D01*
X116568304Y-88835248D01*
X116737152Y-88964810D01*
X116737158Y-88964814D01*
X117004846Y-89119363D01*
X117004848Y-89119364D01*
X117290421Y-89237652D01*
X117588991Y-89317653D01*
X117895451Y-89358000D01*
X118204549Y-89358000D01*
X118511008Y-89317653D01*
X118809578Y-89237652D01*
X119095151Y-89119364D01*
X119095153Y-89119363D01*
X119362844Y-88964812D01*
X119531694Y-88835248D01*
X118811717Y-88115271D01*
X118929466Y-88029722D01*
X119079722Y-87879466D01*
X119165271Y-87761717D01*
X119885248Y-88481694D01*
X120014812Y-88312844D01*
X120169363Y-88045153D01*
X120169364Y-88045151D01*
X120287652Y-87759578D01*
X120367653Y-87461008D01*
X120408000Y-87154549D01*
X120408000Y-86845450D01*
X120367653Y-86538991D01*
X120287652Y-86240421D01*
X120169364Y-85954848D01*
X120169363Y-85954846D01*
X120014814Y-85687158D01*
X120014810Y-85687152D01*
X119885248Y-85518304D01*
X119165270Y-86238281D01*
X119079722Y-86120534D01*
X118929466Y-85970278D01*
X118811716Y-85884728D01*
X119531694Y-85164750D01*
X119362847Y-85035189D01*
X119362841Y-85035185D01*
X119095153Y-84880636D01*
X119095151Y-84880635D01*
X118809578Y-84762347D01*
X118511008Y-84682346D01*
X118204549Y-84642000D01*
X117895451Y-84642000D01*
X117588991Y-84682346D01*
X117290421Y-84762347D01*
X117004848Y-84880635D01*
X117004846Y-84880636D01*
X116737158Y-85035185D01*
X116737152Y-85035189D01*
X116568304Y-85164750D01*
X117288282Y-85884728D01*
X117170534Y-85970278D01*
X117020278Y-86120534D01*
X116934728Y-86238282D01*
X116214750Y-85518304D01*
X116085189Y-85687152D01*
X116085185Y-85687158D01*
X115930636Y-85954846D01*
X115930635Y-85954848D01*
X115812347Y-86240421D01*
X115732346Y-86538991D01*
X115692000Y-86845450D01*
X104000500Y-86845450D01*
X104000500Y-77922252D01*
X115991500Y-77922252D01*
X115991500Y-81677748D01*
X115999255Y-81716736D01*
X116003133Y-81736232D01*
X116032608Y-81780343D01*
X116047448Y-81802552D01*
X116091560Y-81832027D01*
X116113767Y-81846866D01*
X116113768Y-81846866D01*
X116113769Y-81846867D01*
X116172252Y-81858500D01*
X116172254Y-81858500D01*
X119927746Y-81858500D01*
X119927748Y-81858500D01*
X119986231Y-81846867D01*
X120052552Y-81802552D01*
X120096867Y-81736231D01*
X120108500Y-81677748D01*
X120108500Y-77922252D01*
X120096867Y-77863769D01*
X120052552Y-77797448D01*
X120030343Y-77782608D01*
X119986232Y-77753133D01*
X119986233Y-77753133D01*
X119956989Y-77747316D01*
X119927748Y-77741500D01*
X116172252Y-77741500D01*
X116143010Y-77747316D01*
X116113767Y-77753133D01*
X116047449Y-77797447D01*
X116047447Y-77797449D01*
X116003133Y-77863767D01*
X116003133Y-77863769D01*
X115991500Y-77922252D01*
X104000500Y-77922252D01*
X104000500Y-76400000D01*
X110375885Y-76400000D01*
X111333012Y-76400000D01*
X111315795Y-76409940D01*
X111259940Y-76465795D01*
X111220444Y-76534204D01*
X111200000Y-76610504D01*
X111200000Y-76689496D01*
X111220444Y-76765796D01*
X111259940Y-76834205D01*
X111315795Y-76890060D01*
X111333012Y-76900000D01*
X110375885Y-76900000D01*
X110377086Y-76907586D01*
X110377088Y-76907592D01*
X110430588Y-77072249D01*
X110509197Y-77226526D01*
X110509198Y-77226528D01*
X110610964Y-77366597D01*
X110610972Y-77366607D01*
X110733393Y-77489028D01*
X110733402Y-77489035D01*
X110873471Y-77590801D01*
X110873473Y-77590802D01*
X111027750Y-77669411D01*
X111027749Y-77669411D01*
X111192405Y-77722911D01*
X111192418Y-77722914D01*
X111363426Y-77750000D01*
X111800000Y-77750000D01*
X111800000Y-76950000D01*
X112300000Y-76950000D01*
X112300000Y-77750000D01*
X112736574Y-77750000D01*
X112907581Y-77722914D01*
X112907594Y-77722911D01*
X113072249Y-77669411D01*
X113226526Y-77590802D01*
X113226528Y-77590801D01*
X113366597Y-77489035D01*
X113366607Y-77489028D01*
X113489028Y-77366607D01*
X113489035Y-77366597D01*
X113590801Y-77226528D01*
X113590802Y-77226526D01*
X113669411Y-77072249D01*
X113722911Y-76907592D01*
X113722913Y-76907586D01*
X113724115Y-76900000D01*
X112766988Y-76900000D01*
X112784205Y-76890060D01*
X112840060Y-76834205D01*
X112879556Y-76765796D01*
X112900000Y-76689496D01*
X112900000Y-76610504D01*
X112879556Y-76534204D01*
X112840060Y-76465795D01*
X112784205Y-76409940D01*
X112766988Y-76400000D01*
X113724115Y-76400000D01*
X113722913Y-76392413D01*
X113722911Y-76392407D01*
X113669411Y-76227750D01*
X113590802Y-76073473D01*
X113590801Y-76073471D01*
X113489035Y-75933402D01*
X113489028Y-75933393D01*
X113366607Y-75810972D01*
X113366597Y-75810964D01*
X113226528Y-75709198D01*
X113226526Y-75709197D01*
X113072249Y-75630588D01*
X113072250Y-75630588D01*
X112907594Y-75577088D01*
X112907581Y-75577085D01*
X112736574Y-75550000D01*
X112300000Y-75550000D01*
X112300000Y-76350000D01*
X111800000Y-76350000D01*
X111800000Y-75550000D01*
X111363426Y-75550000D01*
X111192418Y-75577085D01*
X111192405Y-75577088D01*
X111027750Y-75630588D01*
X110873473Y-75709197D01*
X110873471Y-75709198D01*
X110733402Y-75810964D01*
X110733393Y-75810972D01*
X110610972Y-75933393D01*
X110610964Y-75933402D01*
X110509198Y-76073471D01*
X110509197Y-76073473D01*
X110430588Y-76227750D01*
X110377088Y-76392407D01*
X110377086Y-76392413D01*
X110375885Y-76400000D01*
X104000500Y-76400000D01*
X104000500Y-71600000D01*
X110375885Y-71600000D01*
X111333012Y-71600000D01*
X111315795Y-71609940D01*
X111259940Y-71665795D01*
X111220444Y-71734204D01*
X111200000Y-71810504D01*
X111200000Y-71889496D01*
X111220444Y-71965796D01*
X111259940Y-72034205D01*
X111315795Y-72090060D01*
X111333012Y-72100000D01*
X110375885Y-72100000D01*
X110377086Y-72107586D01*
X110377088Y-72107592D01*
X110430588Y-72272249D01*
X110509197Y-72426526D01*
X110509198Y-72426528D01*
X110610964Y-72566597D01*
X110610972Y-72566607D01*
X110733393Y-72689028D01*
X110733402Y-72689035D01*
X110873471Y-72790801D01*
X110873473Y-72790802D01*
X111027750Y-72869411D01*
X111027749Y-72869411D01*
X111192405Y-72922911D01*
X111192418Y-72922914D01*
X111363426Y-72950000D01*
X111800000Y-72950000D01*
X111800000Y-72150000D01*
X112300000Y-72150000D01*
X112300000Y-72950000D01*
X112736574Y-72950000D01*
X112907581Y-72922914D01*
X112907594Y-72922911D01*
X113072249Y-72869411D01*
X113226526Y-72790802D01*
X113226528Y-72790801D01*
X113366597Y-72689035D01*
X113366607Y-72689028D01*
X113489028Y-72566607D01*
X113489035Y-72566597D01*
X113590801Y-72426528D01*
X113590805Y-72426521D01*
X113663301Y-72284243D01*
X113663301Y-72284242D01*
X113669411Y-72272249D01*
X113722911Y-72107592D01*
X113722913Y-72107586D01*
X113724115Y-72100000D01*
X112766988Y-72100000D01*
X112784205Y-72090060D01*
X112840060Y-72034205D01*
X112879556Y-71965796D01*
X112900000Y-71889496D01*
X112900000Y-71810504D01*
X112879556Y-71734204D01*
X112840060Y-71665795D01*
X112784205Y-71609940D01*
X112766988Y-71600000D01*
X113724115Y-71600000D01*
X113722913Y-71592413D01*
X113722911Y-71592407D01*
X113669411Y-71427750D01*
X113590802Y-71273473D01*
X113590801Y-71273471D01*
X113489035Y-71133402D01*
X113489028Y-71133393D01*
X113366607Y-71010972D01*
X113366597Y-71010964D01*
X113226528Y-70909198D01*
X113226526Y-70909197D01*
X113072249Y-70830588D01*
X113072250Y-70830588D01*
X112907594Y-70777088D01*
X112907581Y-70777085D01*
X112736574Y-70750000D01*
X112300000Y-70750000D01*
X112300000Y-71550000D01*
X111800000Y-71550000D01*
X111800000Y-70750000D01*
X111363426Y-70750000D01*
X111192418Y-70777085D01*
X111192405Y-70777088D01*
X111027750Y-70830588D01*
X110873473Y-70909197D01*
X110873471Y-70909198D01*
X110733402Y-71010964D01*
X110733393Y-71010972D01*
X110610972Y-71133393D01*
X110610964Y-71133402D01*
X110509198Y-71273471D01*
X110509197Y-71273473D01*
X110430588Y-71427750D01*
X110377088Y-71592407D01*
X110377086Y-71592413D01*
X110375885Y-71600000D01*
X104000500Y-71600000D01*
X104000500Y-68545450D01*
X115692000Y-68545450D01*
X115692000Y-68854549D01*
X115732346Y-69161008D01*
X115812347Y-69459578D01*
X115930635Y-69745151D01*
X115930636Y-69745153D01*
X116085185Y-70012841D01*
X116085189Y-70012847D01*
X116214750Y-70181694D01*
X116934728Y-69461716D01*
X117020278Y-69579466D01*
X117170534Y-69729722D01*
X117288281Y-69815270D01*
X116568304Y-70535248D01*
X116737152Y-70664810D01*
X116737158Y-70664814D01*
X117004846Y-70819363D01*
X117004848Y-70819364D01*
X117290421Y-70937652D01*
X117588991Y-71017653D01*
X117895451Y-71058000D01*
X118204549Y-71058000D01*
X118511008Y-71017653D01*
X118809578Y-70937652D01*
X118842827Y-70923880D01*
X143947500Y-70923880D01*
X143947500Y-71176119D01*
X143986958Y-71425250D01*
X143986961Y-71425263D01*
X144064902Y-71665140D01*
X144179418Y-71889892D01*
X144253957Y-71992486D01*
X144883901Y-71362542D01*
X144898652Y-71398153D01*
X144979088Y-71518535D01*
X145081465Y-71620912D01*
X145201847Y-71701348D01*
X145237455Y-71716097D01*
X144607512Y-72346041D01*
X144710107Y-72420581D01*
X144934859Y-72535097D01*
X145174736Y-72613038D01*
X145174749Y-72613041D01*
X145423880Y-72652500D01*
X145676120Y-72652500D01*
X145925250Y-72613041D01*
X145925263Y-72613038D01*
X146165140Y-72535097D01*
X146389894Y-72420579D01*
X146492486Y-72346041D01*
X145862543Y-71716097D01*
X145898153Y-71701348D01*
X146018535Y-71620912D01*
X146120912Y-71518535D01*
X146201348Y-71398153D01*
X146216098Y-71362543D01*
X146846041Y-71992486D01*
X146865633Y-71965521D01*
X146913924Y-71935928D01*
X146968996Y-71949150D01*
X146998589Y-71997441D01*
X146999500Y-72009017D01*
X146999500Y-103039564D01*
X147007034Y-103067684D01*
X147007034Y-103105983D01*
X146999500Y-103134103D01*
X146999500Y-103265894D01*
X147033606Y-103393181D01*
X147033610Y-103393190D01*
X147039717Y-103403767D01*
X147099500Y-103507314D01*
X147192686Y-103600500D01*
X147306814Y-103666392D01*
X147434105Y-103700499D01*
X147434106Y-103700500D01*
X147434108Y-103700500D01*
X147565894Y-103700500D01*
X147565894Y-103700499D01*
X147693186Y-103666392D01*
X147807314Y-103600500D01*
X147807373Y-103600441D01*
X180635000Y-103600441D01*
X180635000Y-103799558D01*
X180666147Y-103996219D01*
X180666150Y-103996232D01*
X180727676Y-104185588D01*
X180818076Y-104363006D01*
X180818076Y-104363007D01*
X180845581Y-104400863D01*
X181408871Y-103837572D01*
X181424755Y-103896853D01*
X181491898Y-104013147D01*
X181586853Y-104108102D01*
X181703147Y-104175245D01*
X181762424Y-104191128D01*
X181199135Y-104754418D01*
X181236992Y-104781923D01*
X181414411Y-104872323D01*
X181603767Y-104933849D01*
X181603780Y-104933852D01*
X181800441Y-104965000D01*
X181999559Y-104965000D01*
X182196219Y-104933852D01*
X182196232Y-104933849D01*
X182385588Y-104872323D01*
X182563010Y-104781922D01*
X182563012Y-104781920D01*
X182600863Y-104754418D01*
X182600864Y-104754417D01*
X182037575Y-104191128D01*
X182096853Y-104175245D01*
X182213147Y-104108102D01*
X182308102Y-104013147D01*
X182375245Y-103896853D01*
X182391128Y-103837574D01*
X182954417Y-104400864D01*
X182954418Y-104400863D01*
X182981920Y-104363012D01*
X182981922Y-104363010D01*
X183013803Y-104300441D01*
X187435000Y-104300441D01*
X187435000Y-104499558D01*
X187466147Y-104696219D01*
X187466150Y-104696232D01*
X187527676Y-104885588D01*
X187618076Y-105063006D01*
X187618076Y-105063007D01*
X187645581Y-105100863D01*
X188208871Y-104537572D01*
X188224755Y-104596853D01*
X188291898Y-104713147D01*
X188386853Y-104808102D01*
X188503147Y-104875245D01*
X188562424Y-104891128D01*
X187999135Y-105454418D01*
X188036992Y-105481923D01*
X188214411Y-105572323D01*
X188403767Y-105633849D01*
X188403780Y-105633852D01*
X188600441Y-105665000D01*
X188799559Y-105665000D01*
X188996219Y-105633852D01*
X188996232Y-105633849D01*
X189185588Y-105572323D01*
X189363010Y-105481922D01*
X189363012Y-105481920D01*
X189400863Y-105454418D01*
X189400864Y-105454417D01*
X188837575Y-104891128D01*
X188896853Y-104875245D01*
X189013147Y-104808102D01*
X189108102Y-104713147D01*
X189175245Y-104596853D01*
X189191128Y-104537574D01*
X189754417Y-105100864D01*
X189754418Y-105100863D01*
X189781920Y-105063012D01*
X189781922Y-105063010D01*
X189872323Y-104885588D01*
X189933849Y-104696232D01*
X189933852Y-104696219D01*
X189965000Y-104499558D01*
X189965000Y-104300441D01*
X189933852Y-104103780D01*
X189933849Y-104103767D01*
X189872323Y-103914411D01*
X189781923Y-103736993D01*
X189781923Y-103736992D01*
X189754418Y-103699135D01*
X189191127Y-104262424D01*
X189175245Y-104203147D01*
X189108102Y-104086853D01*
X189013147Y-103991898D01*
X188896853Y-103924755D01*
X188837572Y-103908871D01*
X189400863Y-103345581D01*
X189363007Y-103318076D01*
X189185588Y-103227676D01*
X188996232Y-103166150D01*
X188996219Y-103166147D01*
X188799559Y-103135000D01*
X188600441Y-103135000D01*
X188403780Y-103166147D01*
X188403767Y-103166150D01*
X188214413Y-103227675D01*
X188036994Y-103318074D01*
X187999135Y-103345580D01*
X187999135Y-103345581D01*
X188562425Y-103908871D01*
X188503147Y-103924755D01*
X188386853Y-103991898D01*
X188291898Y-104086853D01*
X188224755Y-104203147D01*
X188208871Y-104262425D01*
X187645581Y-103699135D01*
X187645580Y-103699135D01*
X187618074Y-103736994D01*
X187527675Y-103914413D01*
X187466150Y-104103767D01*
X187466147Y-104103780D01*
X187435000Y-104300441D01*
X183013803Y-104300441D01*
X183032402Y-104263939D01*
X183032402Y-104263938D01*
X183072321Y-104185594D01*
X183072323Y-104185588D01*
X183133849Y-103996232D01*
X183133852Y-103996219D01*
X183165000Y-103799558D01*
X183165000Y-103600441D01*
X183133852Y-103403780D01*
X183133849Y-103403767D01*
X183131537Y-103396651D01*
X183072323Y-103214411D01*
X182981923Y-103036993D01*
X182981923Y-103036992D01*
X182954418Y-102999135D01*
X182391127Y-103562424D01*
X182375245Y-103503147D01*
X182308102Y-103386853D01*
X182213147Y-103291898D01*
X182096853Y-103224755D01*
X182037572Y-103208871D01*
X182600863Y-102645581D01*
X182563007Y-102618076D01*
X182385588Y-102527676D01*
X182196232Y-102466150D01*
X182196219Y-102466147D01*
X181999559Y-102435000D01*
X181800441Y-102435000D01*
X181603780Y-102466147D01*
X181603767Y-102466150D01*
X181414413Y-102527675D01*
X181236994Y-102618074D01*
X181199135Y-102645580D01*
X181199135Y-102645581D01*
X181762425Y-103208871D01*
X181703147Y-103224755D01*
X181586853Y-103291898D01*
X181491898Y-103386853D01*
X181424755Y-103503147D01*
X181408871Y-103562425D01*
X180845581Y-102999135D01*
X180845580Y-102999135D01*
X180818074Y-103036994D01*
X180727675Y-103214413D01*
X180666150Y-103403767D01*
X180666147Y-103403780D01*
X180635000Y-103600441D01*
X147807373Y-103600441D01*
X147900500Y-103507314D01*
X147966392Y-103393186D01*
X148000499Y-103265894D01*
X148000500Y-103265894D01*
X148000500Y-103134106D01*
X148000499Y-103134105D01*
X148000498Y-103134103D01*
X147966392Y-103006814D01*
X147900500Y-102892686D01*
X147807314Y-102799500D01*
X147693186Y-102733608D01*
X147652818Y-102722791D01*
X147650331Y-102721932D01*
X147630953Y-102704749D01*
X147610414Y-102688989D01*
X147609552Y-102685774D01*
X147607953Y-102684356D01*
X147607600Y-102678489D01*
X147600500Y-102651990D01*
X147600500Y-96734105D01*
X148999500Y-96734105D01*
X148999500Y-96865894D01*
X149033606Y-96993181D01*
X149033607Y-96993184D01*
X149033608Y-96993186D01*
X149099500Y-97107314D01*
X149192686Y-97200500D01*
X149306814Y-97266392D01*
X149434105Y-97300499D01*
X149434106Y-97300500D01*
X149434108Y-97300500D01*
X149565894Y-97300500D01*
X149565894Y-97300499D01*
X149693186Y-97266392D01*
X149807314Y-97200500D01*
X149885640Y-97122174D01*
X149937966Y-97100500D01*
X174339564Y-97100500D01*
X174339564Y-97100499D01*
X174415989Y-97080021D01*
X174484511Y-97040460D01*
X174540460Y-96984511D01*
X183402796Y-88122173D01*
X183455122Y-88100500D01*
X183565894Y-88100500D01*
X183565894Y-88100499D01*
X183693186Y-88066392D01*
X183807314Y-88000500D01*
X183900500Y-87907314D01*
X183966392Y-87793186D01*
X184000499Y-87665894D01*
X184000500Y-87665894D01*
X184000500Y-87534106D01*
X184000499Y-87534105D01*
X183976590Y-87444876D01*
X183966392Y-87406814D01*
X183900500Y-87292686D01*
X183807314Y-87199500D01*
X183729457Y-87154549D01*
X183693190Y-87133610D01*
X183693181Y-87133606D01*
X183565894Y-87099500D01*
X183565892Y-87099500D01*
X183434108Y-87099500D01*
X183434106Y-87099500D01*
X183306818Y-87133606D01*
X183306809Y-87133610D01*
X183192685Y-87199500D01*
X183099500Y-87292685D01*
X183033610Y-87406809D01*
X183033606Y-87406818D01*
X182999500Y-87534105D01*
X182999500Y-87644876D01*
X182977826Y-87697202D01*
X174197203Y-96477826D01*
X174144877Y-96499500D01*
X149937966Y-96499500D01*
X149885640Y-96477826D01*
X149807314Y-96399500D01*
X149693190Y-96333610D01*
X149693181Y-96333606D01*
X149565894Y-96299500D01*
X149565892Y-96299500D01*
X149434108Y-96299500D01*
X149434106Y-96299500D01*
X149306818Y-96333606D01*
X149306809Y-96333610D01*
X149192685Y-96399500D01*
X149099500Y-96492685D01*
X149033610Y-96606809D01*
X149033606Y-96606818D01*
X148999500Y-96734105D01*
X147600500Y-96734105D01*
X147600500Y-72268480D01*
X151824500Y-72268480D01*
X151824500Y-72731519D01*
X151839353Y-72825304D01*
X151839354Y-72825306D01*
X151889087Y-72922911D01*
X151896950Y-72938342D01*
X151986658Y-73028050D01*
X152099696Y-73085646D01*
X152193481Y-73100500D01*
X152806518Y-73100499D01*
X152806519Y-73100499D01*
X152900304Y-73085646D01*
X152900306Y-73085645D01*
X152902419Y-73084568D01*
X153013342Y-73028050D01*
X153103050Y-72938342D01*
X153152697Y-72840903D01*
X153195764Y-72804122D01*
X153218631Y-72800500D01*
X157281368Y-72800500D01*
X157333694Y-72822174D01*
X157347302Y-72840904D01*
X157389087Y-72922911D01*
X157396950Y-72938342D01*
X157486658Y-73028050D01*
X157599696Y-73085646D01*
X157637075Y-73091566D01*
X157685367Y-73121158D01*
X157699500Y-73164655D01*
X157699500Y-83639564D01*
X157719977Y-83715986D01*
X157719979Y-83715989D01*
X157757188Y-83780438D01*
X157759540Y-83784511D01*
X168677826Y-94702797D01*
X168699500Y-94755122D01*
X168699500Y-94865894D01*
X168733606Y-94993181D01*
X168733610Y-94993190D01*
X168747075Y-95016512D01*
X168799500Y-95107314D01*
X168892686Y-95200500D01*
X169006814Y-95266392D01*
X169134105Y-95300499D01*
X169134106Y-95300500D01*
X169134108Y-95300500D01*
X169265894Y-95300500D01*
X169265894Y-95300499D01*
X169393186Y-95266392D01*
X169507314Y-95200500D01*
X169585640Y-95122174D01*
X169637966Y-95100500D01*
X170239564Y-95100500D01*
X170239564Y-95100499D01*
X170315989Y-95080021D01*
X170384511Y-95040460D01*
X170440460Y-94984511D01*
X177402796Y-88022173D01*
X177455122Y-88000500D01*
X177565894Y-88000500D01*
X177565894Y-88000499D01*
X177693186Y-87966392D01*
X177807314Y-87900500D01*
X177900500Y-87807314D01*
X177966392Y-87693186D01*
X178000499Y-87565894D01*
X178000500Y-87565894D01*
X178000500Y-87434106D01*
X178000499Y-87434105D01*
X177993186Y-87406814D01*
X177966392Y-87306814D01*
X177900500Y-87192686D01*
X177807314Y-87099500D01*
X177721578Y-87050000D01*
X177693190Y-87033610D01*
X177693181Y-87033606D01*
X177565894Y-86999500D01*
X177565892Y-86999500D01*
X177434108Y-86999500D01*
X177434106Y-86999500D01*
X177306818Y-87033606D01*
X177306809Y-87033610D01*
X177192685Y-87099500D01*
X177099500Y-87192685D01*
X177033610Y-87306809D01*
X177033606Y-87306818D01*
X176999500Y-87434105D01*
X176999500Y-87544876D01*
X176977826Y-87597202D01*
X170097203Y-94477826D01*
X170044877Y-94499500D01*
X169637966Y-94499500D01*
X169585640Y-94477826D01*
X169507314Y-94399500D01*
X169393190Y-94333610D01*
X169393181Y-94333606D01*
X169265894Y-94299500D01*
X169265892Y-94299500D01*
X169155123Y-94299500D01*
X169102797Y-94277826D01*
X162259076Y-87434105D01*
X174999500Y-87434105D01*
X174999500Y-87565894D01*
X175033606Y-87693181D01*
X175033610Y-87693190D01*
X175091340Y-87793181D01*
X175099500Y-87807314D01*
X175192686Y-87900500D01*
X175306814Y-87966392D01*
X175434105Y-88000499D01*
X175434106Y-88000500D01*
X175434108Y-88000500D01*
X175565894Y-88000500D01*
X175565894Y-88000499D01*
X175693186Y-87966392D01*
X175807314Y-87900500D01*
X175900500Y-87807314D01*
X175966392Y-87693186D01*
X176000499Y-87565894D01*
X176000500Y-87565894D01*
X176000500Y-87455122D01*
X176022174Y-87402796D01*
X177579593Y-85845377D01*
X179340460Y-84084511D01*
X179346649Y-84073789D01*
X179354346Y-84060461D01*
X179367183Y-84038224D01*
X179380021Y-84015989D01*
X179400499Y-83939564D01*
X179400500Y-83939564D01*
X179400500Y-78070024D01*
X179422174Y-78017698D01*
X179446181Y-78001657D01*
X179557336Y-77955615D01*
X179715471Y-77849953D01*
X179849953Y-77715471D01*
X179955615Y-77557336D01*
X180028397Y-77381626D01*
X180065500Y-77195093D01*
X180065500Y-77004907D01*
X180028397Y-76818374D01*
X179955615Y-76642664D01*
X179849953Y-76484529D01*
X179715471Y-76350047D01*
X179557336Y-76244385D01*
X179557333Y-76244383D01*
X179557332Y-76244383D01*
X179381626Y-76171603D01*
X179381619Y-76171601D01*
X179241092Y-76143649D01*
X179195093Y-76134500D01*
X179004907Y-76134500D01*
X178968007Y-76141839D01*
X178818380Y-76171601D01*
X178818373Y-76171603D01*
X178642667Y-76244383D01*
X178484529Y-76350046D01*
X178484528Y-76350048D01*
X178350048Y-76484528D01*
X178350046Y-76484529D01*
X178244383Y-76642667D01*
X178171603Y-76818373D01*
X178171601Y-76818380D01*
X178134500Y-77004907D01*
X178134500Y-77195092D01*
X178171601Y-77381619D01*
X178171603Y-77381626D01*
X178216093Y-77489035D01*
X178244385Y-77557336D01*
X178350047Y-77715471D01*
X178484529Y-77849953D01*
X178642664Y-77955615D01*
X178753819Y-78001657D01*
X178793867Y-78041706D01*
X178799500Y-78070024D01*
X178799500Y-83744876D01*
X178777826Y-83797202D01*
X175597202Y-86977826D01*
X175544876Y-86999500D01*
X175434106Y-86999500D01*
X175306818Y-87033606D01*
X175306809Y-87033610D01*
X175192685Y-87099500D01*
X175099500Y-87192685D01*
X175033610Y-87306809D01*
X175033606Y-87306818D01*
X174999500Y-87434105D01*
X162259076Y-87434105D01*
X158322174Y-83497203D01*
X158300500Y-83444877D01*
X158300500Y-73164654D01*
X158322174Y-73112328D01*
X158362924Y-73091565D01*
X158400304Y-73085646D01*
X158513342Y-73028050D01*
X158603050Y-72938342D01*
X158660646Y-72825304D01*
X158675500Y-72731519D01*
X158675499Y-72347451D01*
X164547000Y-72347451D01*
X164547000Y-72552548D01*
X164579083Y-72755117D01*
X164579086Y-72755130D01*
X164642459Y-72950170D01*
X164735574Y-73132921D01*
X164856123Y-73298842D01*
X164856127Y-73298847D01*
X165001153Y-73443873D01*
X165001156Y-73443875D01*
X165001157Y-73443876D01*
X165167078Y-73564425D01*
X165253601Y-73608510D01*
X165349822Y-73657537D01*
X165349825Y-73657537D01*
X165349829Y-73657540D01*
X165544869Y-73720913D01*
X165544875Y-73720914D01*
X165544880Y-73720916D01*
X165679928Y-73742305D01*
X165747451Y-73753000D01*
X165747452Y-73753000D01*
X165952549Y-73753000D01*
X166003191Y-73744979D01*
X166155120Y-73720916D01*
X166155127Y-73720913D01*
X166155130Y-73720913D01*
X166350170Y-73657540D01*
X166350172Y-73657538D01*
X166350178Y-73657537D01*
X166532921Y-73564425D01*
X166698847Y-73443873D01*
X166843873Y-73298847D01*
X166964425Y-73132921D01*
X167057537Y-72950178D01*
X167061383Y-72938343D01*
X167120913Y-72755130D01*
X167120913Y-72755127D01*
X167120916Y-72755120D01*
X167153000Y-72552548D01*
X167153000Y-72347452D01*
X167153000Y-72347451D01*
X168347000Y-72347451D01*
X168347000Y-72552548D01*
X168379083Y-72755117D01*
X168379086Y-72755130D01*
X168442459Y-72950170D01*
X168535574Y-73132921D01*
X168656123Y-73298842D01*
X168656127Y-73298847D01*
X168801153Y-73443873D01*
X168801156Y-73443875D01*
X168801157Y-73443876D01*
X168967078Y-73564425D01*
X169053601Y-73608510D01*
X169149822Y-73657537D01*
X169149825Y-73657537D01*
X169149829Y-73657540D01*
X169344869Y-73720913D01*
X169344875Y-73720914D01*
X169344880Y-73720916D01*
X169479928Y-73742305D01*
X169547451Y-73753000D01*
X169547452Y-73753000D01*
X169752549Y-73753000D01*
X169803191Y-73744979D01*
X169955120Y-73720916D01*
X169955127Y-73720913D01*
X169955130Y-73720913D01*
X170150170Y-73657540D01*
X170150172Y-73657538D01*
X170150178Y-73657537D01*
X170332921Y-73564425D01*
X170498847Y-73443873D01*
X170643873Y-73298847D01*
X170764425Y-73132921D01*
X170857537Y-72950178D01*
X170861383Y-72938343D01*
X170920913Y-72755130D01*
X170920913Y-72755127D01*
X170920916Y-72755120D01*
X170953000Y-72552548D01*
X170953000Y-72347452D01*
X170920916Y-72144880D01*
X170920914Y-72144875D01*
X170920913Y-72144869D01*
X170857540Y-71949829D01*
X170857537Y-71949825D01*
X170857537Y-71949822D01*
X170786551Y-71810504D01*
X170764425Y-71767078D01*
X170643876Y-71601157D01*
X170643875Y-71601156D01*
X170643873Y-71601153D01*
X170498847Y-71456127D01*
X170498844Y-71456124D01*
X170498842Y-71456123D01*
X170332921Y-71335574D01*
X170150170Y-71242459D01*
X169955130Y-71179086D01*
X169955117Y-71179083D01*
X169752549Y-71147000D01*
X169752548Y-71147000D01*
X169547452Y-71147000D01*
X169547451Y-71147000D01*
X169344882Y-71179083D01*
X169344869Y-71179086D01*
X169149829Y-71242459D01*
X168967078Y-71335574D01*
X168801157Y-71456123D01*
X168656123Y-71601157D01*
X168535574Y-71767078D01*
X168442459Y-71949829D01*
X168379086Y-72144869D01*
X168379083Y-72144882D01*
X168347000Y-72347451D01*
X167153000Y-72347451D01*
X167120916Y-72144880D01*
X167120914Y-72144875D01*
X167120913Y-72144869D01*
X167057540Y-71949829D01*
X167057537Y-71949825D01*
X167057537Y-71949822D01*
X166986551Y-71810504D01*
X166964425Y-71767078D01*
X166843876Y-71601157D01*
X166843875Y-71601156D01*
X166843873Y-71601153D01*
X166698847Y-71456127D01*
X166698844Y-71456124D01*
X166698842Y-71456123D01*
X166532921Y-71335574D01*
X166350170Y-71242459D01*
X166155130Y-71179086D01*
X166155117Y-71179083D01*
X165952549Y-71147000D01*
X165952548Y-71147000D01*
X165747452Y-71147000D01*
X165747451Y-71147000D01*
X165544882Y-71179083D01*
X165544869Y-71179086D01*
X165349829Y-71242459D01*
X165167078Y-71335574D01*
X165001157Y-71456123D01*
X164856123Y-71601157D01*
X164735574Y-71767078D01*
X164642459Y-71949829D01*
X164579086Y-72144869D01*
X164579083Y-72144882D01*
X164547000Y-72347451D01*
X158675499Y-72347451D01*
X158675499Y-72268482D01*
X158660646Y-72174696D01*
X158660646Y-72174695D01*
X158660645Y-72174693D01*
X158622586Y-72100000D01*
X158603050Y-72061658D01*
X158513342Y-71971950D01*
X158400304Y-71914354D01*
X158400302Y-71914353D01*
X158400301Y-71914353D01*
X158306519Y-71899500D01*
X157693480Y-71899500D01*
X157599695Y-71914353D01*
X157599693Y-71914354D01*
X157486657Y-71971950D01*
X157396951Y-72061656D01*
X157396950Y-72061658D01*
X157347302Y-72159096D01*
X157304236Y-72195878D01*
X157281369Y-72199500D01*
X153218632Y-72199500D01*
X153166306Y-72177826D01*
X153152698Y-72159096D01*
X153122586Y-72100000D01*
X153103050Y-72061658D01*
X153013342Y-71971950D01*
X152900304Y-71914354D01*
X152900302Y-71914353D01*
X152900301Y-71914353D01*
X152806519Y-71899500D01*
X152193480Y-71899500D01*
X152099695Y-71914353D01*
X152099693Y-71914354D01*
X151986657Y-71971950D01*
X151896951Y-72061656D01*
X151839353Y-72174698D01*
X151824500Y-72268480D01*
X147600500Y-72268480D01*
X147600500Y-65737966D01*
X147622174Y-65685640D01*
X147645698Y-65662116D01*
X147700500Y-65607314D01*
X147766392Y-65493186D01*
X147800499Y-65365894D01*
X147800500Y-65365894D01*
X147800500Y-65234106D01*
X147800499Y-65234105D01*
X147789613Y-65193479D01*
X147766392Y-65106814D01*
X147700500Y-64992686D01*
X147607314Y-64899500D01*
X147516905Y-64847302D01*
X147493190Y-64833610D01*
X147493181Y-64833606D01*
X147365894Y-64799500D01*
X147365892Y-64799500D01*
X147234108Y-64799500D01*
X147234106Y-64799500D01*
X147106818Y-64833606D01*
X147106809Y-64833610D01*
X146992685Y-64899500D01*
X146899500Y-64992685D01*
X146833610Y-65106809D01*
X146833606Y-65106818D01*
X146799500Y-65234105D01*
X146799500Y-65365894D01*
X146833606Y-65493181D01*
X146833610Y-65493190D01*
X146899500Y-65607314D01*
X146977826Y-65685640D01*
X146999500Y-65737966D01*
X146999500Y-70090981D01*
X146977826Y-70143307D01*
X146925500Y-70164981D01*
X146873174Y-70143307D01*
X146865633Y-70134478D01*
X146846040Y-70107512D01*
X146216097Y-70737455D01*
X146201348Y-70701847D01*
X146120912Y-70581465D01*
X146018535Y-70479088D01*
X145898153Y-70398652D01*
X145862542Y-70383901D01*
X146492486Y-69753957D01*
X146389892Y-69679418D01*
X146165140Y-69564902D01*
X145925263Y-69486961D01*
X145925250Y-69486958D01*
X145676120Y-69447500D01*
X145423880Y-69447500D01*
X145174749Y-69486958D01*
X145174736Y-69486961D01*
X144934859Y-69564902D01*
X144710111Y-69679416D01*
X144607512Y-69753958D01*
X145237456Y-70383902D01*
X145201847Y-70398652D01*
X145081465Y-70479088D01*
X144979088Y-70581465D01*
X144898652Y-70701847D01*
X144883902Y-70737456D01*
X144253958Y-70107512D01*
X144179416Y-70210111D01*
X144064902Y-70434859D01*
X143986961Y-70674736D01*
X143986958Y-70674749D01*
X143947500Y-70923880D01*
X118842827Y-70923880D01*
X119014896Y-70852607D01*
X119095150Y-70819364D01*
X119095153Y-70819363D01*
X119362844Y-70664812D01*
X119531694Y-70535248D01*
X118811717Y-69815271D01*
X118929466Y-69729722D01*
X119079722Y-69579466D01*
X119165271Y-69461717D01*
X119885248Y-70181694D01*
X120014812Y-70012844D01*
X120169359Y-69745161D01*
X120169359Y-69745160D01*
X120169360Y-69745157D01*
X120169364Y-69745151D01*
X120287652Y-69459578D01*
X120367653Y-69161008D01*
X120408000Y-68854549D01*
X120408000Y-68545450D01*
X120367653Y-68238991D01*
X120287652Y-67940421D01*
X120169364Y-67654848D01*
X120169363Y-67654846D01*
X120014814Y-67387158D01*
X120014810Y-67387152D01*
X119885248Y-67218304D01*
X119165270Y-67938281D01*
X119079722Y-67820534D01*
X118929466Y-67670278D01*
X118811716Y-67584728D01*
X119531694Y-66864750D01*
X119362847Y-66735189D01*
X119362841Y-66735185D01*
X119095153Y-66580636D01*
X119095151Y-66580635D01*
X118809578Y-66462347D01*
X118511008Y-66382346D01*
X118204549Y-66342000D01*
X117895451Y-66342000D01*
X117588991Y-66382346D01*
X117290421Y-66462347D01*
X117004848Y-66580635D01*
X117004846Y-66580636D01*
X116737158Y-66735185D01*
X116737152Y-66735189D01*
X116568304Y-66864750D01*
X117288282Y-67584728D01*
X117170534Y-67670278D01*
X117020278Y-67820534D01*
X116934728Y-67938282D01*
X116214750Y-67218304D01*
X116085189Y-67387152D01*
X116085185Y-67387158D01*
X115930636Y-67654846D01*
X115930635Y-67654848D01*
X115812347Y-67940421D01*
X115732346Y-68238991D01*
X115692000Y-68545450D01*
X104000500Y-68545450D01*
X104000500Y-59622253D01*
X115991500Y-59622253D01*
X115991500Y-63377746D01*
X116003133Y-63436232D01*
X116010464Y-63447203D01*
X116047448Y-63502552D01*
X116091560Y-63532027D01*
X116113767Y-63546866D01*
X116113768Y-63546866D01*
X116113769Y-63546867D01*
X116172252Y-63558500D01*
X116172254Y-63558500D01*
X119927746Y-63558500D01*
X119927748Y-63558500D01*
X119986231Y-63546867D01*
X120052552Y-63502552D01*
X120096867Y-63436231D01*
X120108500Y-63377748D01*
X120108500Y-63347451D01*
X144247000Y-63347451D01*
X144247000Y-63552548D01*
X144279083Y-63755117D01*
X144279086Y-63755130D01*
X144342459Y-63950170D01*
X144435574Y-64132921D01*
X144556123Y-64298842D01*
X144556127Y-64298847D01*
X144701153Y-64443873D01*
X144701156Y-64443875D01*
X144701157Y-64443876D01*
X144867078Y-64564425D01*
X144937362Y-64600236D01*
X145049822Y-64657537D01*
X145049825Y-64657537D01*
X145049829Y-64657540D01*
X145244869Y-64720913D01*
X145244875Y-64720914D01*
X145244880Y-64720916D01*
X145379928Y-64742305D01*
X145447451Y-64753000D01*
X145447452Y-64753000D01*
X145652549Y-64753000D01*
X145703191Y-64744979D01*
X145855120Y-64720916D01*
X145855127Y-64720913D01*
X145855130Y-64720913D01*
X146050170Y-64657540D01*
X146050172Y-64657538D01*
X146050178Y-64657537D01*
X146232921Y-64564425D01*
X146398847Y-64443873D01*
X146543873Y-64298847D01*
X146664425Y-64132921D01*
X146757537Y-63950178D01*
X146820916Y-63755120D01*
X146853000Y-63552548D01*
X146853000Y-63347452D01*
X146820916Y-63144880D01*
X146820914Y-63144875D01*
X146820913Y-63144869D01*
X146757540Y-62949829D01*
X146757537Y-62949825D01*
X146757537Y-62949822D01*
X146693697Y-62824529D01*
X146664425Y-62767078D01*
X146543876Y-62601157D01*
X146543875Y-62601156D01*
X146543873Y-62601153D01*
X146398847Y-62456127D01*
X146398844Y-62456124D01*
X146398842Y-62456123D01*
X146232921Y-62335574D01*
X146050170Y-62242459D01*
X145855130Y-62179086D01*
X145855117Y-62179083D01*
X145652549Y-62147000D01*
X145652548Y-62147000D01*
X145447452Y-62147000D01*
X145447451Y-62147000D01*
X145244882Y-62179083D01*
X145244869Y-62179086D01*
X145049829Y-62242459D01*
X144867078Y-62335574D01*
X144701157Y-62456123D01*
X144556123Y-62601157D01*
X144435574Y-62767078D01*
X144342459Y-62949829D01*
X144279086Y-63144869D01*
X144279083Y-63144882D01*
X144247000Y-63347451D01*
X120108500Y-63347451D01*
X120108500Y-59622252D01*
X120096867Y-59563769D01*
X120085963Y-59547451D01*
X144247000Y-59547451D01*
X144247000Y-59752548D01*
X144279083Y-59955117D01*
X144279086Y-59955130D01*
X144342459Y-60150170D01*
X144435574Y-60332921D01*
X144499166Y-60420447D01*
X144556127Y-60498847D01*
X144701153Y-60643873D01*
X144701156Y-60643875D01*
X144701157Y-60643876D01*
X144867078Y-60764425D01*
X144953601Y-60808510D01*
X145049822Y-60857537D01*
X145049825Y-60857537D01*
X145049829Y-60857540D01*
X145244869Y-60920913D01*
X145244875Y-60920914D01*
X145244880Y-60920916D01*
X145379928Y-60942305D01*
X145447451Y-60953000D01*
X145447452Y-60953000D01*
X145652549Y-60953000D01*
X145703191Y-60944979D01*
X145855120Y-60920916D01*
X145855127Y-60920913D01*
X145855130Y-60920913D01*
X146050170Y-60857540D01*
X146050172Y-60857538D01*
X146050178Y-60857537D01*
X146232921Y-60764425D01*
X146398847Y-60643873D01*
X146543873Y-60498847D01*
X146664425Y-60332921D01*
X146757537Y-60150178D01*
X146761596Y-60137688D01*
X146820913Y-59955130D01*
X146820913Y-59955127D01*
X146820916Y-59955120D01*
X146853000Y-59752548D01*
X146853000Y-59547452D01*
X146820916Y-59344880D01*
X146820914Y-59344875D01*
X146820913Y-59344869D01*
X146757540Y-59149829D01*
X146757537Y-59149825D01*
X146757537Y-59149822D01*
X146672186Y-58982311D01*
X146664425Y-58967078D01*
X146543876Y-58801157D01*
X146543875Y-58801156D01*
X146543873Y-58801153D01*
X146398847Y-58656127D01*
X146398844Y-58656124D01*
X146398842Y-58656123D01*
X146232921Y-58535574D01*
X146050170Y-58442459D01*
X145855130Y-58379086D01*
X145855117Y-58379083D01*
X145652549Y-58347000D01*
X145652548Y-58347000D01*
X145447452Y-58347000D01*
X145447451Y-58347000D01*
X145244882Y-58379083D01*
X145244869Y-58379086D01*
X145049829Y-58442459D01*
X144867078Y-58535574D01*
X144701157Y-58656123D01*
X144556123Y-58801157D01*
X144435574Y-58967078D01*
X144342459Y-59149829D01*
X144279086Y-59344869D01*
X144279083Y-59344882D01*
X144247000Y-59547451D01*
X120085963Y-59547451D01*
X120082027Y-59541560D01*
X120052552Y-59497448D01*
X120030343Y-59482608D01*
X119986232Y-59453133D01*
X119986233Y-59453133D01*
X119956989Y-59447316D01*
X119927748Y-59441500D01*
X116172252Y-59441500D01*
X116143010Y-59447316D01*
X116113767Y-59453133D01*
X116047449Y-59497447D01*
X116047447Y-59497449D01*
X116003133Y-59563767D01*
X115991500Y-59622253D01*
X104000500Y-59622253D01*
X104000500Y-58100000D01*
X110375885Y-58100000D01*
X111333012Y-58100000D01*
X111315795Y-58109940D01*
X111259940Y-58165795D01*
X111220444Y-58234204D01*
X111200000Y-58310504D01*
X111200000Y-58389496D01*
X111220444Y-58465796D01*
X111259940Y-58534205D01*
X111315795Y-58590060D01*
X111333012Y-58600000D01*
X110375885Y-58600000D01*
X110377086Y-58607586D01*
X110377088Y-58607592D01*
X110430588Y-58772249D01*
X110509197Y-58926526D01*
X110509198Y-58926528D01*
X110610964Y-59066597D01*
X110610972Y-59066607D01*
X110733393Y-59189028D01*
X110733402Y-59189035D01*
X110873471Y-59290801D01*
X110873473Y-59290802D01*
X111027750Y-59369411D01*
X111027749Y-59369411D01*
X111192405Y-59422911D01*
X111192418Y-59422914D01*
X111363426Y-59450000D01*
X111800000Y-59450000D01*
X111800000Y-58650000D01*
X112300000Y-58650000D01*
X112300000Y-59450000D01*
X112736574Y-59450000D01*
X112907581Y-59422914D01*
X112907594Y-59422911D01*
X113072249Y-59369411D01*
X113226526Y-59290802D01*
X113226528Y-59290801D01*
X113366597Y-59189035D01*
X113366607Y-59189028D01*
X113489028Y-59066607D01*
X113489035Y-59066597D01*
X113590801Y-58926528D01*
X113590802Y-58926526D01*
X113669411Y-58772249D01*
X113722911Y-58607592D01*
X113722913Y-58607586D01*
X113724115Y-58600000D01*
X112766988Y-58600000D01*
X112784205Y-58590060D01*
X112840060Y-58534205D01*
X112879556Y-58465796D01*
X112900000Y-58389496D01*
X112900000Y-58310504D01*
X112879556Y-58234204D01*
X112840060Y-58165795D01*
X112784205Y-58109940D01*
X112766988Y-58100000D01*
X113724115Y-58100000D01*
X113722913Y-58092413D01*
X113722911Y-58092407D01*
X113669411Y-57927750D01*
X113590802Y-57773473D01*
X113590801Y-57773471D01*
X113489035Y-57633402D01*
X113489028Y-57633393D01*
X113366607Y-57510972D01*
X113366597Y-57510964D01*
X113226528Y-57409198D01*
X113226526Y-57409197D01*
X113072249Y-57330588D01*
X113072250Y-57330588D01*
X112907594Y-57277088D01*
X112907581Y-57277085D01*
X112736574Y-57250000D01*
X112300000Y-57250000D01*
X112300000Y-58050000D01*
X111800000Y-58050000D01*
X111800000Y-57250000D01*
X111363426Y-57250000D01*
X111192418Y-57277085D01*
X111192405Y-57277088D01*
X111027750Y-57330588D01*
X110873473Y-57409197D01*
X110873471Y-57409198D01*
X110733402Y-57510964D01*
X110733393Y-57510972D01*
X110610972Y-57633393D01*
X110610964Y-57633402D01*
X110509198Y-57773471D01*
X110509197Y-57773473D01*
X110430588Y-57927750D01*
X110377088Y-58092407D01*
X110377086Y-58092413D01*
X110375885Y-58100000D01*
X104000500Y-58100000D01*
X104000500Y-54727753D01*
X144247000Y-54727753D01*
X144247000Y-56972246D01*
X144258633Y-57030732D01*
X144277136Y-57058422D01*
X144302948Y-57097052D01*
X144336121Y-57119218D01*
X144369267Y-57141366D01*
X144369268Y-57141366D01*
X144369269Y-57141367D01*
X144427752Y-57153000D01*
X144427754Y-57153000D01*
X146672246Y-57153000D01*
X146672248Y-57153000D01*
X146730731Y-57141367D01*
X146797052Y-57097052D01*
X146841367Y-57030731D01*
X146853000Y-56972248D01*
X146853000Y-54727752D01*
X146841367Y-54669269D01*
X146797052Y-54602948D01*
X146774843Y-54588108D01*
X146730732Y-54558633D01*
X146730733Y-54558633D01*
X146701489Y-54552816D01*
X146672248Y-54547000D01*
X144427752Y-54547000D01*
X144398510Y-54552816D01*
X144369267Y-54558633D01*
X144302949Y-54602947D01*
X144302947Y-54602949D01*
X144258633Y-54669267D01*
X144247000Y-54727753D01*
X104000500Y-54727753D01*
X104000500Y-48852495D01*
X106249500Y-48852495D01*
X106249500Y-49147504D01*
X106288006Y-49439991D01*
X106364361Y-49724953D01*
X106477253Y-49997498D01*
X106477256Y-49997506D01*
X106533598Y-50095093D01*
X106624762Y-50252994D01*
X106804354Y-50487042D01*
X107012958Y-50695646D01*
X107247006Y-50875238D01*
X107502493Y-51022743D01*
X107775048Y-51135639D01*
X108060007Y-51211993D01*
X108352494Y-51250500D01*
X108352496Y-51250500D01*
X108647504Y-51250500D01*
X108647506Y-51250500D01*
X108939993Y-51211993D01*
X109224952Y-51135639D01*
X109497507Y-51022743D01*
X109752994Y-50875238D01*
X109987042Y-50695646D01*
X110195646Y-50487042D01*
X110375238Y-50252994D01*
X110522743Y-49997507D01*
X110561099Y-49904907D01*
X117134500Y-49904907D01*
X117134500Y-50095092D01*
X117171601Y-50281619D01*
X117171603Y-50281626D01*
X117234763Y-50434108D01*
X117244385Y-50457336D01*
X117287327Y-50521603D01*
X117335956Y-50594383D01*
X117350047Y-50615471D01*
X117484529Y-50749953D01*
X117642664Y-50855615D01*
X117818374Y-50928397D01*
X118004907Y-50965500D01*
X118004908Y-50965500D01*
X118195092Y-50965500D01*
X118195093Y-50965500D01*
X118381626Y-50928397D01*
X118557336Y-50855615D01*
X118715471Y-50749953D01*
X118849953Y-50615471D01*
X118955615Y-50457336D01*
X118965238Y-50434105D01*
X150999500Y-50434105D01*
X150999500Y-50565894D01*
X151033606Y-50693181D01*
X151033610Y-50693190D01*
X151099500Y-50807314D01*
X151192686Y-50900500D01*
X151306814Y-50966392D01*
X151434105Y-51000499D01*
X151434106Y-51000500D01*
X151544877Y-51000500D01*
X151597203Y-51022174D01*
X152177826Y-51602797D01*
X152199500Y-51655123D01*
X152199500Y-70185345D01*
X152177826Y-70237671D01*
X152137075Y-70258434D01*
X152099695Y-70264353D01*
X152099693Y-70264354D01*
X151986657Y-70321950D01*
X151896951Y-70411656D01*
X151839353Y-70524698D01*
X151824500Y-70618480D01*
X151824500Y-71081519D01*
X151839353Y-71175304D01*
X151839354Y-71175306D01*
X151873571Y-71242459D01*
X151896950Y-71288342D01*
X151986658Y-71378050D01*
X152099696Y-71435646D01*
X152193481Y-71450500D01*
X152806518Y-71450499D01*
X152806519Y-71450499D01*
X152900304Y-71435646D01*
X152900306Y-71435645D01*
X152902419Y-71434568D01*
X153013342Y-71378050D01*
X153103050Y-71288342D01*
X153160646Y-71175304D01*
X153175500Y-71081519D01*
X153175499Y-70618482D01*
X153160646Y-70524696D01*
X153160646Y-70524695D01*
X153160645Y-70524693D01*
X153130770Y-70466061D01*
X153103050Y-70411658D01*
X153013342Y-70321950D01*
X152900304Y-70264354D01*
X152900302Y-70264353D01*
X152900301Y-70264353D01*
X152862923Y-70258433D01*
X152814632Y-70228839D01*
X152800500Y-70185344D01*
X152800500Y-65193480D01*
X155574500Y-65193480D01*
X155574500Y-65806519D01*
X155589353Y-65900304D01*
X155589354Y-65900306D01*
X155646950Y-66013342D01*
X155736658Y-66103050D01*
X155834096Y-66152697D01*
X155870878Y-66195764D01*
X155874500Y-66218631D01*
X155874500Y-67281368D01*
X155852826Y-67333694D01*
X155834096Y-67347302D01*
X155736657Y-67396950D01*
X155646951Y-67486656D01*
X155589353Y-67599698D01*
X155574500Y-67693480D01*
X155574500Y-68306519D01*
X155589353Y-68400304D01*
X155589354Y-68400306D01*
X155618517Y-68457540D01*
X155646950Y-68513342D01*
X155736658Y-68603050D01*
X155849696Y-68660646D01*
X155943481Y-68675500D01*
X156406518Y-68675499D01*
X156406519Y-68675499D01*
X156500304Y-68660646D01*
X156500306Y-68660645D01*
X156502419Y-68659568D01*
X156613342Y-68603050D01*
X156703050Y-68513342D01*
X156760646Y-68400304D01*
X156775500Y-68306519D01*
X156775499Y-67693482D01*
X156775499Y-67693480D01*
X157224500Y-67693480D01*
X157224500Y-68306519D01*
X157239353Y-68400304D01*
X157239354Y-68400306D01*
X157268517Y-68457540D01*
X157296950Y-68513342D01*
X157386658Y-68603050D01*
X157484096Y-68652697D01*
X157520878Y-68695764D01*
X157524500Y-68718631D01*
X157524500Y-70257321D01*
X157502826Y-70309647D01*
X157491104Y-70318164D01*
X157491368Y-70318528D01*
X157486658Y-70321949D01*
X157396951Y-70411656D01*
X157339353Y-70524698D01*
X157324500Y-70618480D01*
X157324500Y-71081519D01*
X157339353Y-71175304D01*
X157339354Y-71175306D01*
X157373571Y-71242459D01*
X157396950Y-71288342D01*
X157486658Y-71378050D01*
X157599696Y-71435646D01*
X157693481Y-71450500D01*
X158306518Y-71450499D01*
X158306519Y-71450499D01*
X158400304Y-71435646D01*
X158400306Y-71435645D01*
X158402419Y-71434568D01*
X158513342Y-71378050D01*
X158603050Y-71288342D01*
X158652697Y-71190903D01*
X158695764Y-71154122D01*
X158718631Y-71150500D01*
X163189564Y-71150500D01*
X163189564Y-71150499D01*
X163265989Y-71130021D01*
X163334511Y-71090460D01*
X163390460Y-71034511D01*
X163507040Y-70917931D01*
X171435000Y-70917931D01*
X171435000Y-71182068D01*
X171469476Y-71443949D01*
X171537840Y-71699086D01*
X171537842Y-71699093D01*
X171638919Y-71943115D01*
X171638922Y-71943123D01*
X171770992Y-72171875D01*
X171859380Y-72287064D01*
X172580216Y-71566227D01*
X172665482Y-71693837D01*
X172806163Y-71834518D01*
X172933770Y-71919782D01*
X172212934Y-72640618D01*
X172328124Y-72729007D01*
X172556876Y-72861077D01*
X172556884Y-72861080D01*
X172800906Y-72962157D01*
X172800913Y-72962159D01*
X173056050Y-73030523D01*
X173317932Y-73065000D01*
X173582068Y-73065000D01*
X173843949Y-73030523D01*
X174099086Y-72962159D01*
X174099093Y-72962157D01*
X174343115Y-72861080D01*
X174343123Y-72861077D01*
X174571875Y-72729007D01*
X174687064Y-72640618D01*
X173966229Y-71919782D01*
X174093837Y-71834518D01*
X174234518Y-71693837D01*
X174319782Y-71566228D01*
X175040618Y-72287064D01*
X175129007Y-72171875D01*
X175261077Y-71943123D01*
X175261080Y-71943115D01*
X175362157Y-71699093D01*
X175362159Y-71699086D01*
X175430523Y-71443949D01*
X175465000Y-71182068D01*
X175465000Y-70917931D01*
X175430523Y-70656050D01*
X175362159Y-70400913D01*
X175362157Y-70400906D01*
X175261080Y-70156884D01*
X175261077Y-70156876D01*
X175129007Y-69928124D01*
X175040618Y-69812934D01*
X174319782Y-70533769D01*
X174234518Y-70406163D01*
X174093837Y-70265482D01*
X173966227Y-70180216D01*
X174687064Y-69459380D01*
X174571875Y-69370992D01*
X174343123Y-69238922D01*
X174343115Y-69238919D01*
X174099093Y-69137842D01*
X174099086Y-69137840D01*
X173843949Y-69069476D01*
X173582068Y-69035000D01*
X173317932Y-69035000D01*
X173056050Y-69069476D01*
X172800913Y-69137840D01*
X172800906Y-69137842D01*
X172556884Y-69238919D01*
X172556876Y-69238922D01*
X172328127Y-69370990D01*
X172328121Y-69370994D01*
X172212934Y-69459380D01*
X172933771Y-70180217D01*
X172806163Y-70265482D01*
X172665482Y-70406163D01*
X172580217Y-70533771D01*
X171859380Y-69812934D01*
X171770994Y-69928121D01*
X171770990Y-69928127D01*
X171638922Y-70156876D01*
X171638919Y-70156884D01*
X171537842Y-70400906D01*
X171537840Y-70400913D01*
X171469476Y-70656050D01*
X171435000Y-70917931D01*
X163507040Y-70917931D01*
X163669577Y-70755394D01*
X163902796Y-70522174D01*
X163955122Y-70500500D01*
X164065894Y-70500500D01*
X164065894Y-70500499D01*
X164193186Y-70466392D01*
X164307314Y-70400500D01*
X164400500Y-70307314D01*
X164466392Y-70193186D01*
X164500499Y-70065894D01*
X164500500Y-70065894D01*
X164500500Y-69934106D01*
X164500499Y-69934105D01*
X164498896Y-69928124D01*
X164466392Y-69806814D01*
X164400500Y-69692686D01*
X164307314Y-69599500D01*
X164193186Y-69533608D01*
X164193183Y-69533607D01*
X164193181Y-69533606D01*
X164065894Y-69499500D01*
X164065892Y-69499500D01*
X163934108Y-69499500D01*
X163934106Y-69499500D01*
X163806818Y-69533606D01*
X163806809Y-69533610D01*
X163692685Y-69599500D01*
X163599500Y-69692685D01*
X163533610Y-69806809D01*
X163533606Y-69806818D01*
X163499500Y-69934105D01*
X163499500Y-70044876D01*
X163477826Y-70097202D01*
X163047203Y-70527826D01*
X162994877Y-70549500D01*
X158718632Y-70549500D01*
X158666306Y-70527826D01*
X158652698Y-70509096D01*
X158624720Y-70454188D01*
X158603050Y-70411658D01*
X158513342Y-70321950D01*
X158400304Y-70264354D01*
X158400302Y-70264353D01*
X158400301Y-70264353D01*
X158306520Y-70249500D01*
X158306519Y-70249500D01*
X158199500Y-70249500D01*
X158147174Y-70227826D01*
X158125500Y-70175500D01*
X158125500Y-68718631D01*
X158147174Y-68666305D01*
X158165901Y-68652698D01*
X158263342Y-68603050D01*
X158353050Y-68513342D01*
X158410646Y-68400304D01*
X158425500Y-68306519D01*
X158425500Y-68274976D01*
X168350001Y-68274976D01*
X168360494Y-68377696D01*
X168415642Y-68544121D01*
X168507683Y-68693343D01*
X168507686Y-68693347D01*
X168631653Y-68817314D01*
X168631656Y-68817316D01*
X168780878Y-68909357D01*
X168947302Y-68964505D01*
X169050025Y-68974999D01*
X169300000Y-68974999D01*
X169800000Y-68974999D01*
X170049971Y-68974999D01*
X170049976Y-68974998D01*
X170152696Y-68964505D01*
X170319121Y-68909357D01*
X170468343Y-68817316D01*
X170468347Y-68817314D01*
X170592314Y-68693347D01*
X170592316Y-68693343D01*
X170684357Y-68544121D01*
X170739505Y-68377697D01*
X170749999Y-68274975D01*
X170750000Y-68274973D01*
X170750000Y-68212500D01*
X169800000Y-68212500D01*
X169800000Y-68974999D01*
X169300000Y-68974999D01*
X169300000Y-68212500D01*
X168350001Y-68212500D01*
X168350001Y-68274976D01*
X158425500Y-68274976D01*
X158425499Y-67992446D01*
X158425499Y-67693480D01*
X158420151Y-67659712D01*
X158418617Y-67650024D01*
X168350000Y-67650024D01*
X168350000Y-67712500D01*
X170749999Y-67712500D01*
X170749999Y-67650029D01*
X170749998Y-67650023D01*
X170739505Y-67547303D01*
X170684357Y-67380878D01*
X170592316Y-67231656D01*
X170592314Y-67231653D01*
X170508112Y-67147451D01*
X172147000Y-67147451D01*
X172147000Y-67352548D01*
X172179083Y-67555117D01*
X172179086Y-67555130D01*
X172242459Y-67750170D01*
X172335574Y-67932921D01*
X172456123Y-68098842D01*
X172456127Y-68098847D01*
X172601153Y-68243873D01*
X172601156Y-68243875D01*
X172601157Y-68243876D01*
X172767078Y-68364425D01*
X172853601Y-68408510D01*
X172949822Y-68457537D01*
X172949825Y-68457537D01*
X172949829Y-68457540D01*
X173144869Y-68520913D01*
X173144875Y-68520914D01*
X173144880Y-68520916D01*
X173279928Y-68542305D01*
X173347451Y-68553000D01*
X173347452Y-68553000D01*
X173552549Y-68553000D01*
X173608608Y-68544121D01*
X173755120Y-68520916D01*
X173755127Y-68520913D01*
X173755130Y-68520913D01*
X173950170Y-68457540D01*
X173950172Y-68457538D01*
X173950178Y-68457537D01*
X174132921Y-68364425D01*
X174298847Y-68243873D01*
X174443873Y-68098847D01*
X174564425Y-67932921D01*
X174657537Y-67750178D01*
X174669780Y-67712500D01*
X174720913Y-67555130D01*
X174720913Y-67555127D01*
X174720916Y-67555120D01*
X174753000Y-67352548D01*
X174753000Y-67204907D01*
X177534500Y-67204907D01*
X177534500Y-67395093D01*
X177534870Y-67396951D01*
X177571601Y-67581619D01*
X177571603Y-67581626D01*
X177641416Y-67750170D01*
X177644385Y-67757336D01*
X177750047Y-67915471D01*
X177884529Y-68049953D01*
X178042664Y-68155615D01*
X178218374Y-68228397D01*
X178404907Y-68265500D01*
X178404908Y-68265500D01*
X178595092Y-68265500D01*
X178595093Y-68265500D01*
X178781626Y-68228397D01*
X178957336Y-68155615D01*
X179115471Y-68049953D01*
X179249953Y-67915471D01*
X179355615Y-67757336D01*
X179428397Y-67581626D01*
X179465500Y-67395093D01*
X179465500Y-67204907D01*
X179428397Y-67018374D01*
X179355615Y-66842664D01*
X179249953Y-66684529D01*
X179115471Y-66550047D01*
X178957336Y-66444385D01*
X178957333Y-66444383D01*
X178957332Y-66444383D01*
X178781626Y-66371603D01*
X178781619Y-66371601D01*
X178632799Y-66342000D01*
X178595093Y-66334500D01*
X178404907Y-66334500D01*
X178368007Y-66341839D01*
X178218380Y-66371601D01*
X178218373Y-66371603D01*
X178042667Y-66444383D01*
X177884529Y-66550046D01*
X177884528Y-66550048D01*
X177750048Y-66684528D01*
X177750046Y-66684529D01*
X177644383Y-66842667D01*
X177571603Y-67018373D01*
X177571601Y-67018380D01*
X177553838Y-67107686D01*
X177534500Y-67204907D01*
X174753000Y-67204907D01*
X174753000Y-67147452D01*
X174720916Y-66944880D01*
X174720914Y-66944875D01*
X174720913Y-66944869D01*
X174657540Y-66749829D01*
X174657537Y-66749825D01*
X174657537Y-66749822D01*
X174571333Y-66580636D01*
X174564425Y-66567078D01*
X174443876Y-66401157D01*
X174443875Y-66401156D01*
X174443873Y-66401153D01*
X174298847Y-66256127D01*
X174298844Y-66256124D01*
X174298842Y-66256123D01*
X174132921Y-66135574D01*
X173950170Y-66042459D01*
X173755130Y-65979086D01*
X173755117Y-65979083D01*
X173552549Y-65947000D01*
X173552548Y-65947000D01*
X173347452Y-65947000D01*
X173347451Y-65947000D01*
X173144882Y-65979083D01*
X173144869Y-65979086D01*
X172949829Y-66042459D01*
X172767078Y-66135574D01*
X172601157Y-66256123D01*
X172456123Y-66401157D01*
X172335574Y-66567078D01*
X172242459Y-66749829D01*
X172179086Y-66944869D01*
X172179083Y-66944882D01*
X172147000Y-67147451D01*
X170508112Y-67147451D01*
X170468347Y-67107686D01*
X170468343Y-67107683D01*
X170319121Y-67015642D01*
X170158358Y-66962370D01*
X170115506Y-66925337D01*
X170111391Y-66868849D01*
X170148424Y-66825997D01*
X170157186Y-66822281D01*
X170212882Y-66802793D01*
X170322150Y-66722150D01*
X170402793Y-66612882D01*
X170418820Y-66567079D01*
X170446646Y-66487559D01*
X170484386Y-66445328D01*
X170516493Y-66438000D01*
X170802064Y-66438000D01*
X170802064Y-66437999D01*
X170878489Y-66417521D01*
X170947011Y-66377960D01*
X171002960Y-66322011D01*
X172724734Y-64600235D01*
X172777059Y-64578562D01*
X172810652Y-64586626D01*
X172949822Y-64657537D01*
X172949825Y-64657537D01*
X172949829Y-64657540D01*
X173144869Y-64720913D01*
X173144875Y-64720914D01*
X173144880Y-64720916D01*
X173279928Y-64742305D01*
X173347451Y-64753000D01*
X173347452Y-64753000D01*
X173552549Y-64753000D01*
X173603191Y-64744979D01*
X173755120Y-64720916D01*
X173755127Y-64720913D01*
X173755130Y-64720913D01*
X173950170Y-64657540D01*
X173950172Y-64657538D01*
X173950178Y-64657537D01*
X174132921Y-64564425D01*
X174298847Y-64443873D01*
X174443873Y-64298847D01*
X174564425Y-64132921D01*
X174657537Y-63950178D01*
X174720916Y-63755120D01*
X174753000Y-63552548D01*
X174753000Y-63347452D01*
X174720916Y-63144880D01*
X174720914Y-63144875D01*
X174720913Y-63144869D01*
X174657540Y-62949829D01*
X174657537Y-62949825D01*
X174657537Y-62949822D01*
X174593697Y-62824529D01*
X174564425Y-62767078D01*
X174443876Y-62601157D01*
X174443875Y-62601156D01*
X174443873Y-62601153D01*
X174298847Y-62456127D01*
X174298844Y-62456124D01*
X174298842Y-62456123D01*
X174132921Y-62335574D01*
X173950170Y-62242459D01*
X173755130Y-62179086D01*
X173755117Y-62179083D01*
X173552549Y-62147000D01*
X173552548Y-62147000D01*
X173347452Y-62147000D01*
X173347451Y-62147000D01*
X173144882Y-62179083D01*
X173144869Y-62179086D01*
X172949829Y-62242459D01*
X172767078Y-62335574D01*
X172601157Y-62456123D01*
X172456123Y-62601157D01*
X172335574Y-62767078D01*
X172242459Y-62949829D01*
X172179086Y-63144869D01*
X172179083Y-63144882D01*
X172147000Y-63347451D01*
X172147000Y-63552548D01*
X172179083Y-63755117D01*
X172179086Y-63755130D01*
X172242459Y-63950170D01*
X172313371Y-64089344D01*
X172317814Y-64145807D01*
X172299762Y-64175265D01*
X170659703Y-65815326D01*
X170607377Y-65837000D01*
X170516493Y-65837000D01*
X170464167Y-65815326D01*
X170446646Y-65787441D01*
X170402793Y-65662118D01*
X170402792Y-65662116D01*
X170322153Y-65552853D01*
X170322146Y-65552846D01*
X170212883Y-65472207D01*
X170212881Y-65472206D01*
X170084704Y-65427355D01*
X170084705Y-65427355D01*
X170084700Y-65427354D01*
X170084699Y-65427354D01*
X170054266Y-65424500D01*
X169045734Y-65424500D01*
X169015301Y-65427354D01*
X169015299Y-65427354D01*
X169015295Y-65427355D01*
X168887118Y-65472206D01*
X168887116Y-65472207D01*
X168777853Y-65552846D01*
X168777846Y-65552853D01*
X168697207Y-65662116D01*
X168697206Y-65662118D01*
X168652355Y-65790295D01*
X168652354Y-65790299D01*
X168652354Y-65790301D01*
X168649500Y-65820734D01*
X168649500Y-66454266D01*
X168652354Y-66484699D01*
X168652354Y-66484701D01*
X168652355Y-66484704D01*
X168697206Y-66612881D01*
X168697207Y-66612883D01*
X168777846Y-66722146D01*
X168777853Y-66722153D01*
X168887116Y-66802792D01*
X168887119Y-66802794D01*
X168942804Y-66822279D01*
X168985036Y-66860018D01*
X168988211Y-66916566D01*
X168950472Y-66958798D01*
X168941641Y-66962370D01*
X168780878Y-67015642D01*
X168631656Y-67107683D01*
X168507683Y-67231656D01*
X168415642Y-67380878D01*
X168360494Y-67547302D01*
X168350000Y-67650024D01*
X158418617Y-67650024D01*
X158410646Y-67599695D01*
X158410645Y-67599693D01*
X158353049Y-67486657D01*
X158263343Y-67396951D01*
X158263342Y-67396950D01*
X158150304Y-67339354D01*
X158150302Y-67339353D01*
X158150301Y-67339353D01*
X158056519Y-67324500D01*
X157593480Y-67324500D01*
X157499695Y-67339353D01*
X157499693Y-67339354D01*
X157386657Y-67396950D01*
X157296951Y-67486656D01*
X157239353Y-67599698D01*
X157224500Y-67693480D01*
X156775499Y-67693480D01*
X156769380Y-67654848D01*
X156760646Y-67599695D01*
X156760645Y-67599693D01*
X156703049Y-67486657D01*
X156613342Y-67396950D01*
X156515904Y-67347302D01*
X156479122Y-67304235D01*
X156475500Y-67281368D01*
X156475500Y-66218631D01*
X156497174Y-66166305D01*
X156515901Y-66152698D01*
X156613342Y-66103050D01*
X156703050Y-66013342D01*
X156760646Y-65900304D01*
X156771530Y-65831583D01*
X156925001Y-65831583D01*
X156931408Y-65902102D01*
X156931409Y-65902106D01*
X156981979Y-66064393D01*
X157069925Y-66209874D01*
X157190125Y-66330074D01*
X157335606Y-66418020D01*
X157497890Y-66468589D01*
X157497901Y-66468591D01*
X157568421Y-66474999D01*
X158075000Y-66474999D01*
X158081571Y-66474999D01*
X158081583Y-66474998D01*
X158152102Y-66468591D01*
X158152106Y-66468590D01*
X158314393Y-66418020D01*
X158459874Y-66330074D01*
X158580074Y-66209874D01*
X158668020Y-66064393D01*
X158718589Y-65902109D01*
X158718591Y-65902099D01*
X158724999Y-65831582D01*
X158725000Y-65831573D01*
X158725000Y-65750000D01*
X158075000Y-65750000D01*
X158075000Y-66474999D01*
X157568421Y-66474999D01*
X157575000Y-66474998D01*
X157575000Y-65750000D01*
X156925001Y-65750000D01*
X156925001Y-65831583D01*
X156771530Y-65831583D01*
X156775500Y-65806519D01*
X156775499Y-65493190D01*
X156775499Y-65193479D01*
X156775498Y-65193475D01*
X156773099Y-65178321D01*
X156771530Y-65168417D01*
X156925000Y-65168417D01*
X156925000Y-65250000D01*
X157575000Y-65250000D01*
X158075000Y-65250000D01*
X158724999Y-65250000D01*
X158724999Y-65168429D01*
X158724998Y-65168416D01*
X158718591Y-65097897D01*
X158718590Y-65097893D01*
X158668020Y-64935606D01*
X158580074Y-64790125D01*
X158459874Y-64669925D01*
X158314393Y-64581979D01*
X158152109Y-64531410D01*
X158152099Y-64531408D01*
X158081582Y-64525000D01*
X158075000Y-64525000D01*
X158075000Y-65250000D01*
X157575000Y-65250000D01*
X157575000Y-64525000D01*
X157574999Y-64524999D01*
X157568434Y-64525000D01*
X157568411Y-64525001D01*
X157497897Y-64531408D01*
X157497893Y-64531409D01*
X157335606Y-64581979D01*
X157190125Y-64669925D01*
X157069925Y-64790125D01*
X156981979Y-64935606D01*
X156931410Y-65097890D01*
X156931408Y-65097900D01*
X156925000Y-65168417D01*
X156771530Y-65168417D01*
X156766140Y-65134392D01*
X156760646Y-65099696D01*
X156760645Y-65099694D01*
X156760645Y-65099693D01*
X156706121Y-64992686D01*
X156703050Y-64986658D01*
X156613342Y-64896950D01*
X156515904Y-64847302D01*
X156479122Y-64804235D01*
X156475500Y-64781368D01*
X156475500Y-64480123D01*
X156497174Y-64427797D01*
X158323823Y-62601148D01*
X160240460Y-60684511D01*
X160280021Y-60615989D01*
X160300499Y-60539564D01*
X160300500Y-60539564D01*
X160300500Y-59547451D01*
X172147000Y-59547451D01*
X172147000Y-59752548D01*
X172179083Y-59955117D01*
X172179086Y-59955130D01*
X172242459Y-60150170D01*
X172335574Y-60332921D01*
X172399166Y-60420447D01*
X172456127Y-60498847D01*
X172601153Y-60643873D01*
X172601156Y-60643875D01*
X172601157Y-60643876D01*
X172767078Y-60764425D01*
X172853601Y-60808510D01*
X172949822Y-60857537D01*
X172949825Y-60857537D01*
X172949829Y-60857540D01*
X173144869Y-60920913D01*
X173144875Y-60920914D01*
X173144880Y-60920916D01*
X173279928Y-60942305D01*
X173347451Y-60953000D01*
X173347452Y-60953000D01*
X173552549Y-60953000D01*
X173603191Y-60944979D01*
X173755120Y-60920916D01*
X173755127Y-60920913D01*
X173755130Y-60920913D01*
X173950170Y-60857540D01*
X173950172Y-60857538D01*
X173950178Y-60857537D01*
X174132921Y-60764425D01*
X174298847Y-60643873D01*
X174443873Y-60498847D01*
X174564425Y-60332921D01*
X174657537Y-60150178D01*
X174661596Y-60137688D01*
X174720913Y-59955130D01*
X174720913Y-59955127D01*
X174720916Y-59955120D01*
X174753000Y-59752548D01*
X174753000Y-59547452D01*
X174720916Y-59344880D01*
X174720914Y-59344875D01*
X174720913Y-59344869D01*
X174657540Y-59149829D01*
X174657537Y-59149825D01*
X174657537Y-59149822D01*
X174572186Y-58982311D01*
X174564425Y-58967078D01*
X174443876Y-58801157D01*
X174443875Y-58801156D01*
X174443873Y-58801153D01*
X174298847Y-58656127D01*
X174298844Y-58656124D01*
X174298842Y-58656123D01*
X174132921Y-58535574D01*
X173950170Y-58442459D01*
X173755130Y-58379086D01*
X173755117Y-58379083D01*
X173552549Y-58347000D01*
X173552548Y-58347000D01*
X173347452Y-58347000D01*
X173347451Y-58347000D01*
X173144882Y-58379083D01*
X173144869Y-58379086D01*
X172949829Y-58442459D01*
X172767078Y-58535574D01*
X172601157Y-58656123D01*
X172456123Y-58801157D01*
X172335574Y-58967078D01*
X172242459Y-59149829D01*
X172179086Y-59344869D01*
X172179083Y-59344882D01*
X172147000Y-59547451D01*
X160300500Y-59547451D01*
X160300500Y-55737560D01*
X171734500Y-55737560D01*
X171734500Y-55962440D01*
X171739231Y-55998377D01*
X171763852Y-56185394D01*
X171822055Y-56402609D01*
X171822057Y-56402616D01*
X171908109Y-56610365D01*
X171908112Y-56610373D01*
X172020550Y-56805122D01*
X172020554Y-56805128D01*
X172072532Y-56872867D01*
X172157451Y-56983535D01*
X172316465Y-57142549D01*
X172330085Y-57153000D01*
X172491799Y-57277088D01*
X172494874Y-57279447D01*
X172689626Y-57391887D01*
X172897387Y-57477944D01*
X173114604Y-57536147D01*
X173337560Y-57565500D01*
X173337562Y-57565500D01*
X173562438Y-57565500D01*
X173562440Y-57565500D01*
X173785396Y-57536147D01*
X174002613Y-57477944D01*
X174210374Y-57391887D01*
X174405126Y-57279447D01*
X174583535Y-57142549D01*
X174742549Y-56983535D01*
X174879447Y-56805126D01*
X174991887Y-56610374D01*
X175077944Y-56402613D01*
X175136147Y-56185396D01*
X175165500Y-55962440D01*
X175165500Y-55806384D01*
X189149500Y-55806384D01*
X189149500Y-55993615D01*
X189186025Y-56177244D01*
X189186027Y-56177251D01*
X189240227Y-56308102D01*
X189257678Y-56350231D01*
X189361698Y-56505908D01*
X189494092Y-56638302D01*
X189649769Y-56742322D01*
X189822749Y-56813973D01*
X190006384Y-56850500D01*
X190006385Y-56850500D01*
X190193615Y-56850500D01*
X190193616Y-56850500D01*
X190377251Y-56813973D01*
X190550231Y-56742322D01*
X190705908Y-56638302D01*
X190838302Y-56505908D01*
X190942322Y-56350231D01*
X191013973Y-56177251D01*
X191050500Y-55993616D01*
X191050500Y-55806384D01*
X191049553Y-55801622D01*
X191350000Y-55801622D01*
X191350000Y-55998377D01*
X191380778Y-56192706D01*
X191380781Y-56192719D01*
X191441577Y-56379828D01*
X191441579Y-56379833D01*
X191530903Y-56555142D01*
X191556319Y-56590124D01*
X192108871Y-56037572D01*
X192124755Y-56096853D01*
X192191898Y-56213147D01*
X192286853Y-56308102D01*
X192403147Y-56375245D01*
X192462425Y-56391128D01*
X191909874Y-56943679D01*
X191944860Y-56969097D01*
X192120166Y-57058420D01*
X192120171Y-57058422D01*
X192307280Y-57119218D01*
X192307293Y-57119221D01*
X192501622Y-57150000D01*
X192698378Y-57150000D01*
X192892706Y-57119221D01*
X192892719Y-57119218D01*
X193079828Y-57058422D01*
X193079843Y-57058415D01*
X193255143Y-56969096D01*
X193255144Y-56969095D01*
X193290124Y-56943679D01*
X193290125Y-56943679D01*
X192737574Y-56391128D01*
X192796853Y-56375245D01*
X192913147Y-56308102D01*
X193008102Y-56213147D01*
X193075245Y-56096853D01*
X193091128Y-56037574D01*
X193643679Y-56590125D01*
X193643679Y-56590124D01*
X193669095Y-56555144D01*
X193669096Y-56555143D01*
X193758415Y-56379843D01*
X193758422Y-56379828D01*
X193819218Y-56192719D01*
X193819221Y-56192706D01*
X193850000Y-55998377D01*
X193850000Y-55801622D01*
X193819221Y-55607293D01*
X193819218Y-55607280D01*
X193758422Y-55420171D01*
X193758420Y-55420166D01*
X193669097Y-55244860D01*
X193643678Y-55209874D01*
X193091128Y-55762425D01*
X193075245Y-55703147D01*
X193008102Y-55586853D01*
X192913147Y-55491898D01*
X192796853Y-55424755D01*
X192737572Y-55408871D01*
X193290124Y-54856319D01*
X193255142Y-54830903D01*
X193079833Y-54741579D01*
X193079828Y-54741577D01*
X192892719Y-54680781D01*
X192892706Y-54680778D01*
X192698378Y-54650000D01*
X192501622Y-54650000D01*
X192307293Y-54680778D01*
X192307280Y-54680781D01*
X192120171Y-54741577D01*
X192120166Y-54741579D01*
X191944854Y-54830905D01*
X191909874Y-54856319D01*
X191909874Y-54856320D01*
X192462425Y-55408871D01*
X192403147Y-55424755D01*
X192286853Y-55491898D01*
X192191898Y-55586853D01*
X192124755Y-55703147D01*
X192108871Y-55762425D01*
X191556320Y-55209874D01*
X191556319Y-55209874D01*
X191530905Y-55244854D01*
X191441579Y-55420166D01*
X191441577Y-55420171D01*
X191380781Y-55607280D01*
X191380778Y-55607293D01*
X191350000Y-55801622D01*
X191049553Y-55801622D01*
X191013973Y-55622749D01*
X190942322Y-55449769D01*
X190838302Y-55294092D01*
X190705908Y-55161698D01*
X190550231Y-55057678D01*
X190550228Y-55057676D01*
X190550227Y-55057676D01*
X190377251Y-54986027D01*
X190377244Y-54986025D01*
X190231829Y-54957101D01*
X190193616Y-54949500D01*
X190006384Y-54949500D01*
X189970056Y-54956725D01*
X189822755Y-54986025D01*
X189822748Y-54986027D01*
X189649772Y-55057676D01*
X189494092Y-55161697D01*
X189494091Y-55161699D01*
X189361699Y-55294091D01*
X189361697Y-55294092D01*
X189257676Y-55449772D01*
X189186027Y-55622748D01*
X189186025Y-55622755D01*
X189149500Y-55806384D01*
X175165500Y-55806384D01*
X175165500Y-55737560D01*
X175136147Y-55514604D01*
X175077944Y-55297387D01*
X174991887Y-55089626D01*
X174879447Y-54894874D01*
X174849863Y-54856320D01*
X174802123Y-54794104D01*
X174742549Y-54716465D01*
X174583535Y-54557451D01*
X174569915Y-54547000D01*
X174405128Y-54420554D01*
X174405122Y-54420550D01*
X174210373Y-54308112D01*
X174210365Y-54308109D01*
X174002616Y-54222057D01*
X174002614Y-54222056D01*
X174002613Y-54222056D01*
X173973508Y-54214257D01*
X173785394Y-54163852D01*
X173621144Y-54142228D01*
X173562440Y-54134500D01*
X173337560Y-54134500D01*
X173285685Y-54141329D01*
X173114605Y-54163852D01*
X172897390Y-54222055D01*
X172897383Y-54222057D01*
X172689634Y-54308109D01*
X172689626Y-54308112D01*
X172494877Y-54420550D01*
X172494871Y-54420554D01*
X172316464Y-54557451D01*
X172157451Y-54716464D01*
X172020554Y-54894871D01*
X172020550Y-54894877D01*
X171908112Y-55089626D01*
X171908109Y-55089634D01*
X171822057Y-55297383D01*
X171822055Y-55297390D01*
X171763852Y-55514605D01*
X171739031Y-55703147D01*
X171734500Y-55737560D01*
X160300500Y-55737560D01*
X160300500Y-51354907D01*
X185534500Y-51354907D01*
X185534500Y-51545092D01*
X185571601Y-51731619D01*
X185571603Y-51731626D01*
X185634724Y-51884014D01*
X185644385Y-51907336D01*
X185750047Y-52065471D01*
X185884529Y-52199953D01*
X186042664Y-52305615D01*
X186218374Y-52378397D01*
X186404907Y-52415500D01*
X186404908Y-52415500D01*
X186595092Y-52415500D01*
X186595093Y-52415500D01*
X186781626Y-52378397D01*
X186957336Y-52305615D01*
X187115471Y-52199953D01*
X187249953Y-52065471D01*
X187355615Y-51907336D01*
X187428397Y-51731626D01*
X187465500Y-51545093D01*
X187465500Y-51354907D01*
X187428397Y-51168374D01*
X187355615Y-50992664D01*
X187249953Y-50834529D01*
X187115471Y-50700047D01*
X187108884Y-50695646D01*
X187063232Y-50665142D01*
X186957336Y-50594385D01*
X186957333Y-50594383D01*
X186957332Y-50594383D01*
X186781626Y-50521603D01*
X186781619Y-50521601D01*
X186641092Y-50493649D01*
X186595093Y-50484500D01*
X186404907Y-50484500D01*
X186368007Y-50491839D01*
X186218380Y-50521601D01*
X186218373Y-50521603D01*
X186042667Y-50594383D01*
X185884529Y-50700046D01*
X185884528Y-50700048D01*
X185750048Y-50834528D01*
X185750046Y-50834529D01*
X185644383Y-50992667D01*
X185571603Y-51168373D01*
X185571601Y-51168380D01*
X185534500Y-51354907D01*
X160300500Y-51354907D01*
X160300500Y-48970024D01*
X160322174Y-48917698D01*
X160346181Y-48901657D01*
X160457336Y-48855615D01*
X160462005Y-48852495D01*
X190249500Y-48852495D01*
X190249500Y-49147504D01*
X190288006Y-49439991D01*
X190364361Y-49724953D01*
X190477253Y-49997498D01*
X190477256Y-49997506D01*
X190533598Y-50095093D01*
X190624762Y-50252994D01*
X190804354Y-50487042D01*
X191012958Y-50695646D01*
X191247006Y-50875238D01*
X191502493Y-51022743D01*
X191775048Y-51135639D01*
X192060007Y-51211993D01*
X192352494Y-51250500D01*
X192352496Y-51250500D01*
X192647504Y-51250500D01*
X192647506Y-51250500D01*
X192939993Y-51211993D01*
X193224952Y-51135639D01*
X193497507Y-51022743D01*
X193752994Y-50875238D01*
X193987042Y-50695646D01*
X194195646Y-50487042D01*
X194375238Y-50252994D01*
X194522743Y-49997507D01*
X194635639Y-49724952D01*
X194711993Y-49439993D01*
X194750500Y-49147506D01*
X194750500Y-48852494D01*
X194711993Y-48560007D01*
X194635639Y-48275048D01*
X194522743Y-48002493D01*
X194375238Y-47747006D01*
X194195646Y-47512958D01*
X193987042Y-47304354D01*
X193752994Y-47124762D01*
X193660920Y-47071603D01*
X193497506Y-46977256D01*
X193497498Y-46977253D01*
X193224953Y-46864361D01*
X192939991Y-46788006D01*
X192724518Y-46759638D01*
X192647506Y-46749500D01*
X192352494Y-46749500D01*
X192284441Y-46758459D01*
X192060008Y-46788006D01*
X191775046Y-46864361D01*
X191502501Y-46977253D01*
X191502493Y-46977256D01*
X191247010Y-47124759D01*
X191012953Y-47304358D01*
X190804358Y-47512953D01*
X190804354Y-47512957D01*
X190804354Y-47512958D01*
X190646733Y-47718373D01*
X190624759Y-47747010D01*
X190477256Y-48002493D01*
X190477253Y-48002501D01*
X190364361Y-48275046D01*
X190288006Y-48560008D01*
X190249500Y-48852495D01*
X160462005Y-48852495D01*
X160615471Y-48749953D01*
X160749953Y-48615471D01*
X160855615Y-48457336D01*
X160928397Y-48281626D01*
X160965500Y-48095093D01*
X160965500Y-47904907D01*
X160928397Y-47718374D01*
X160855615Y-47542664D01*
X160749953Y-47384529D01*
X160615471Y-47250047D01*
X160457336Y-47144385D01*
X160457333Y-47144383D01*
X160457332Y-47144383D01*
X160281626Y-47071603D01*
X160281619Y-47071601D01*
X160141092Y-47043649D01*
X160095093Y-47034500D01*
X159904907Y-47034500D01*
X159868007Y-47041839D01*
X159718380Y-47071601D01*
X159718373Y-47071603D01*
X159542667Y-47144383D01*
X159384529Y-47250046D01*
X159384528Y-47250048D01*
X159250048Y-47384528D01*
X159250046Y-47384529D01*
X159144383Y-47542667D01*
X159071603Y-47718373D01*
X159071601Y-47718380D01*
X159034500Y-47904907D01*
X159034500Y-48095092D01*
X159071601Y-48281619D01*
X159071603Y-48281626D01*
X159144385Y-48457336D01*
X159250047Y-48615471D01*
X159384529Y-48749953D01*
X159542664Y-48855615D01*
X159653819Y-48901657D01*
X159693867Y-48941706D01*
X159699500Y-48970024D01*
X159699500Y-60344877D01*
X159677826Y-60397203D01*
X157376826Y-62698203D01*
X157324500Y-62719877D01*
X157272174Y-62698203D01*
X157250500Y-62645877D01*
X157250500Y-60420447D01*
X157272174Y-60368121D01*
X157283387Y-60358919D01*
X157322295Y-60332921D01*
X157373624Y-60298624D01*
X157434515Y-60207495D01*
X157450500Y-60127133D01*
X157450499Y-58992868D01*
X157434515Y-58912505D01*
X157373624Y-58821376D01*
X157282495Y-58760485D01*
X157202133Y-58744500D01*
X157202131Y-58744500D01*
X156697869Y-58744500D01*
X156617504Y-58760485D01*
X156617503Y-58760485D01*
X156526377Y-58821375D01*
X156526375Y-58821377D01*
X156465485Y-58912504D01*
X156449500Y-58992868D01*
X156449500Y-60127130D01*
X156465485Y-60207495D01*
X156465485Y-60207496D01*
X156505986Y-60268108D01*
X156526376Y-60298624D01*
X156577705Y-60332921D01*
X156616613Y-60358919D01*
X156648078Y-60406011D01*
X156649500Y-60420447D01*
X156649500Y-63394877D01*
X156627826Y-63447203D01*
X155934540Y-64140488D01*
X155894979Y-64209009D01*
X155894977Y-64209014D01*
X155874500Y-64285435D01*
X155874500Y-64781368D01*
X155852826Y-64833694D01*
X155834096Y-64847302D01*
X155736657Y-64896950D01*
X155646951Y-64986656D01*
X155589353Y-65099698D01*
X155574500Y-65193480D01*
X152800500Y-65193480D01*
X152800500Y-60137688D01*
X154250000Y-60137688D01*
X154264799Y-60250104D01*
X154322737Y-60389979D01*
X154414905Y-60510094D01*
X154535020Y-60602262D01*
X154674895Y-60660200D01*
X154787312Y-60675000D01*
X154800000Y-60675000D01*
X155300000Y-60675000D01*
X155312688Y-60675000D01*
X155425104Y-60660200D01*
X155564979Y-60602262D01*
X155685094Y-60510094D01*
X155777262Y-60389979D01*
X155835200Y-60250104D01*
X155850000Y-60137688D01*
X155850000Y-59810000D01*
X155300000Y-59810000D01*
X155300000Y-60675000D01*
X154800000Y-60675000D01*
X154800000Y-59810000D01*
X154250000Y-59810000D01*
X154250000Y-60137688D01*
X152800500Y-60137688D01*
X152800500Y-58982311D01*
X154250000Y-58982311D01*
X154250000Y-59310000D01*
X154800000Y-59310000D01*
X155300000Y-59310000D01*
X155850000Y-59310000D01*
X155850000Y-58982311D01*
X155835200Y-58869895D01*
X155777262Y-58730020D01*
X155685094Y-58609905D01*
X155564979Y-58517737D01*
X155425104Y-58459799D01*
X155312688Y-58445000D01*
X155300000Y-58445000D01*
X155300000Y-59310000D01*
X154800000Y-59310000D01*
X154800000Y-58445000D01*
X154787312Y-58445000D01*
X154674895Y-58459799D01*
X154535020Y-58517737D01*
X154414905Y-58609905D01*
X154322737Y-58730020D01*
X154264799Y-58869895D01*
X154250000Y-58982311D01*
X152800500Y-58982311D01*
X152800500Y-51460440D01*
X152800500Y-51460438D01*
X152780022Y-51384012D01*
X152740460Y-51315489D01*
X152022174Y-50597203D01*
X152000500Y-50544877D01*
X152000500Y-50434106D01*
X152000499Y-50434105D01*
X153999500Y-50434105D01*
X153999500Y-50565894D01*
X154033606Y-50693181D01*
X154033610Y-50693190D01*
X154099500Y-50807314D01*
X154192686Y-50900500D01*
X154306814Y-50966392D01*
X154434105Y-51000499D01*
X154434106Y-51000500D01*
X154544877Y-51000500D01*
X154597203Y-51022174D01*
X155677826Y-52102797D01*
X155699500Y-52155123D01*
X155699500Y-56579552D01*
X155677826Y-56631878D01*
X155666613Y-56641080D01*
X155576377Y-56701375D01*
X155576375Y-56701377D01*
X155515485Y-56792504D01*
X155499500Y-56872868D01*
X155499500Y-58007130D01*
X155515485Y-58087495D01*
X155515485Y-58087496D01*
X155530482Y-58109940D01*
X155576376Y-58178624D01*
X155667505Y-58239515D01*
X155747867Y-58255500D01*
X156252132Y-58255499D01*
X156332495Y-58239515D01*
X156423624Y-58178624D01*
X156484515Y-58087495D01*
X156500500Y-58007133D01*
X156500499Y-56872868D01*
X156484515Y-56792505D01*
X156423624Y-56701376D01*
X156401256Y-56686430D01*
X156333387Y-56641080D01*
X156301922Y-56593988D01*
X156300500Y-56579552D01*
X156300500Y-51960436D01*
X156300499Y-51960435D01*
X156280022Y-51884014D01*
X156280020Y-51884009D01*
X156240459Y-51815488D01*
X155022174Y-50597203D01*
X155000500Y-50544877D01*
X155000500Y-50434106D01*
X155000499Y-50434105D01*
X154966393Y-50306818D01*
X154966392Y-50306814D01*
X154900500Y-50192686D01*
X154807314Y-50099500D01*
X154748206Y-50065374D01*
X154693190Y-50033610D01*
X154693181Y-50033606D01*
X154565894Y-49999500D01*
X154565892Y-49999500D01*
X154434108Y-49999500D01*
X154434106Y-49999500D01*
X154306818Y-50033606D01*
X154306809Y-50033610D01*
X154192685Y-50099500D01*
X154099500Y-50192685D01*
X154033610Y-50306809D01*
X154033606Y-50306818D01*
X153999500Y-50434105D01*
X152000499Y-50434105D01*
X151966393Y-50306818D01*
X151966392Y-50306814D01*
X151900500Y-50192686D01*
X151807314Y-50099500D01*
X151748206Y-50065374D01*
X151693190Y-50033610D01*
X151693181Y-50033606D01*
X151565894Y-49999500D01*
X151565892Y-49999500D01*
X151434108Y-49999500D01*
X151434106Y-49999500D01*
X151306818Y-50033606D01*
X151306809Y-50033610D01*
X151192685Y-50099500D01*
X151099500Y-50192685D01*
X151033610Y-50306809D01*
X151033606Y-50306818D01*
X150999500Y-50434105D01*
X118965238Y-50434105D01*
X119028397Y-50281626D01*
X119065500Y-50095093D01*
X119065500Y-49904907D01*
X119028397Y-49718374D01*
X118955615Y-49542664D01*
X118849953Y-49384529D01*
X118715471Y-49250047D01*
X118557336Y-49144385D01*
X118557333Y-49144383D01*
X118557332Y-49144383D01*
X118381626Y-49071603D01*
X118381619Y-49071601D01*
X118241092Y-49043649D01*
X118195093Y-49034500D01*
X118004907Y-49034500D01*
X117968007Y-49041839D01*
X117818380Y-49071601D01*
X117818373Y-49071603D01*
X117642667Y-49144383D01*
X117484529Y-49250046D01*
X117484528Y-49250048D01*
X117350048Y-49384528D01*
X117350046Y-49384529D01*
X117244383Y-49542667D01*
X117171603Y-49718373D01*
X117171601Y-49718380D01*
X117134500Y-49904907D01*
X110561099Y-49904907D01*
X110635639Y-49724952D01*
X110711993Y-49439993D01*
X110750500Y-49147506D01*
X110750500Y-48852494D01*
X110711993Y-48560007D01*
X110635639Y-48275048D01*
X110522743Y-48002493D01*
X110375238Y-47747006D01*
X110195646Y-47512958D01*
X109987042Y-47304354D01*
X109752994Y-47124762D01*
X109660920Y-47071603D01*
X109497506Y-46977256D01*
X109497498Y-46977253D01*
X109224953Y-46864361D01*
X108939991Y-46788006D01*
X108724518Y-46759638D01*
X108647506Y-46749500D01*
X108352494Y-46749500D01*
X108284441Y-46758459D01*
X108060008Y-46788006D01*
X107775046Y-46864361D01*
X107502501Y-46977253D01*
X107502493Y-46977256D01*
X107247010Y-47124759D01*
X107012953Y-47304358D01*
X106804358Y-47512953D01*
X106804354Y-47512957D01*
X106804354Y-47512958D01*
X106646733Y-47718373D01*
X106624759Y-47747010D01*
X106477256Y-48002493D01*
X106477253Y-48002501D01*
X106364361Y-48275046D01*
X106288006Y-48560008D01*
X106249500Y-48852495D01*
X104000500Y-48852495D01*
X104000500Y-44574500D01*
X104022174Y-44522174D01*
X104074500Y-44500500D01*
X196925500Y-44500500D01*
X196977826Y-44522174D01*
G37*
%TD.AperFunction*%
%TD*%
M02*
