%TF.GenerationSoftware,KiCad,Pcbnew,9.0.7-9.0.7~ubuntu24.04.1*%
%TF.CreationDate,2026-04-06T00:42:39-04:00*%
%TF.ProjectId,VECTAR-PSU-REV2,56454354-4152-42d5-9053-552d52455632,rev?*%
%TF.SameCoordinates,Original*%
%TF.FileFunction,Soldermask,Bot*%
%TF.FilePolarity,Negative*%
%FSLAX46Y46*%
G04 Gerber Fmt 4.6, Leading zero omitted, Abs format (unit mm)*
G04 Created by KiCad (PCBNEW 9.0.7-9.0.7~ubuntu24.04.1) date 2026-04-06 00:42:39*
%MOMM*%
%LPD*%
G01*
G04 APERTURE LIST*
G04 Aperture macros list*
%AMRoundRect*
0 Rectangle with rounded corners*
0 $1 Rounding radius*
0 $2 $3 $4 $5 $6 $7 $8 $9 X,Y pos of 4 corners*
0 Add a 4 corners polygon primitive as box body*
4,1,4,$2,$3,$4,$5,$6,$7,$8,$9,$2,$3,0*
0 Add four circle primitives for the rounded corners*
1,1,$1+$1,$2,$3*
1,1,$1+$1,$4,$5*
1,1,$1+$1,$6,$7*
1,1,$1+$1,$8,$9*
0 Add four rect primitives between the rounded corners*
20,1,$1+$1,$2,$3,$4,$5,0*
20,1,$1+$1,$4,$5,$6,$7,0*
20,1,$1+$1,$6,$7,$8,$9,0*
20,1,$1+$1,$8,$9,$2,$3,0*%
G04 Aperture macros list end*
%ADD10RoundRect,0.102000X-2.458000X2.458000X-2.458000X-2.458000X2.458000X-2.458000X2.458000X2.458000X0*%
%ADD11C,5.120000*%
%ADD12O,2.804000X1.504000*%
%ADD13RoundRect,0.102000X-1.858000X1.858000X-1.858000X-1.858000X1.858000X-1.858000X1.858000X1.858000X0*%
%ADD14C,3.920000*%
%ADD15O,2.604000X1.404000*%
%ADD16C,1.500000*%
%ADD17R,0.457200X1.005100*%
%ADD18R,1.750000X1.750000*%
%ADD19C,1.750000*%
%ADD20C,1.734000*%
%ADD21RoundRect,0.225000X0.225000X0.250000X-0.225000X0.250000X-0.225000X-0.250000X0.225000X-0.250000X0*%
%ADD22RoundRect,0.102000X-1.102500X-1.102500X1.102500X-1.102500X1.102500X1.102500X-1.102500X1.102500X0*%
%ADD23C,2.409000*%
%ADD24C,3.234000*%
%ADD25RoundRect,0.225000X-0.250000X0.225000X-0.250000X-0.225000X0.250000X-0.225000X0.250000X0.225000X0*%
%ADD26RoundRect,0.200000X-0.200000X-0.275000X0.200000X-0.275000X0.200000X0.275000X-0.200000X0.275000X0*%
%ADD27RoundRect,0.200000X-0.275000X0.200000X-0.275000X-0.200000X0.275000X-0.200000X0.275000X0.200000X0*%
%ADD28RoundRect,0.100500X0.301500X-0.616500X0.301500X0.616500X-0.301500X0.616500X-0.301500X-0.616500X0*%
%ADD29RoundRect,0.200000X0.200000X0.275000X-0.200000X0.275000X-0.200000X-0.275000X0.200000X-0.275000X0*%
%ADD30RoundRect,0.250000X-0.450000X0.262500X-0.450000X-0.262500X0.450000X-0.262500X0.450000X0.262500X0*%
%ADD31RoundRect,0.200000X0.275000X-0.200000X0.275000X0.200000X-0.275000X0.200000X-0.275000X-0.200000X0*%
G04 APERTURE END LIST*
D10*
%TO.C,J6*%
X121800000Y-102400000D03*
D11*
X121800000Y-113300000D03*
D12*
X112400000Y-98400000D03*
X112400000Y-117300000D03*
%TD*%
D13*
%TO.C,J1*%
X118050000Y-61500000D03*
D14*
X118050000Y-68700000D03*
D15*
X112050000Y-58350000D03*
X112050000Y-71850000D03*
%TD*%
D13*
%TO.C,J2*%
X118050000Y-79800000D03*
D14*
X118050000Y-87000000D03*
D15*
X112050000Y-76650000D03*
X112050000Y-90150000D03*
%TD*%
D16*
%TO.C,J5*%
X178200000Y-114200000D03*
X175700000Y-114200000D03*
X173200000Y-114200000D03*
X170700000Y-114200000D03*
X168200000Y-114200000D03*
X165700000Y-114200000D03*
%TD*%
D17*
%TO.C,U1*%
X129350000Y-93000000D03*
X128700002Y-93000000D03*
X128050000Y-93000000D03*
X127400002Y-93000000D03*
X127400002Y-90343902D03*
X128050000Y-90343902D03*
X128700002Y-90343902D03*
X129350000Y-90343902D03*
%TD*%
D18*
%TO.C,Q3*%
X137220000Y-88400000D03*
D19*
X139760000Y-88400000D03*
X142300000Y-88400000D03*
%TD*%
D20*
%TO.C,TP3*%
X167100000Y-120400000D03*
%TD*%
%TO.C,TP10*%
X127800000Y-81400000D03*
%TD*%
%TO.C,TP7*%
X160000000Y-48000000D03*
%TD*%
%TO.C,TP15*%
X181900000Y-103700000D03*
%TD*%
%TO.C,TP9*%
X134900000Y-81500000D03*
%TD*%
%TO.C,TP16*%
X118100000Y-50000000D03*
%TD*%
%TO.C,TP14*%
X141700000Y-118100000D03*
%TD*%
D21*
%TO.C,C10*%
X127525000Y-95700000D03*
X129075000Y-95700000D03*
%TD*%
D20*
%TO.C,TP8*%
X179100000Y-77100000D03*
%TD*%
%TO.C,TP6*%
X178500000Y-67300000D03*
%TD*%
%TO.C,TP1*%
X130500000Y-113600000D03*
%TD*%
%TO.C,TP4*%
X147200000Y-108200000D03*
%TD*%
%TO.C,TP2*%
X186500000Y-51450000D03*
%TD*%
%TO.C,TP12*%
X181200000Y-120700000D03*
%TD*%
D22*
%TO.C,PS78*%
X145550000Y-55850000D03*
D23*
X145550000Y-63450000D03*
X145550000Y-71050000D03*
D24*
X173450000Y-71050000D03*
D23*
X173450000Y-67250000D03*
X173450000Y-63450000D03*
X173450000Y-59650000D03*
D24*
X173450000Y-55850000D03*
D23*
X165850000Y-72450000D03*
X169650000Y-72450000D03*
X145550000Y-59650000D03*
%TD*%
D20*
%TO.C,TP5*%
X156500000Y-107600000D03*
%TD*%
%TO.C,TP13*%
X188700000Y-104400000D03*
%TD*%
D25*
%TO.C,C21*%
X134600000Y-93725000D03*
X134600000Y-95275000D03*
%TD*%
D26*
%TO.C,R11*%
X127625000Y-87300000D03*
X125975000Y-87300000D03*
%TD*%
D27*
%TO.C,R6*%
X152500000Y-70850000D03*
X152500000Y-72500000D03*
%TD*%
D28*
%TO.C,Q1*%
X156950000Y-59560000D03*
X155050000Y-59560000D03*
X156000000Y-57440000D03*
%TD*%
D29*
%TO.C,R5*%
X157825000Y-65500000D03*
X156175000Y-65500000D03*
%TD*%
%TO.C,R4*%
X157825000Y-68000000D03*
X156175000Y-68000000D03*
%TD*%
D30*
%TO.C,R1*%
X169550000Y-66137500D03*
X169550000Y-67962500D03*
%TD*%
D31*
%TO.C,R3*%
X158000000Y-72500000D03*
X158000000Y-70850000D03*
%TD*%
D16*
%TO.C,SW2*%
X123800000Y-93100000D03*
X123800000Y-90600000D03*
%TD*%
%TO.C,J3*%
X190100000Y-55900000D03*
X192600000Y-55900000D03*
%TD*%
M02*
