%TF.GenerationSoftware,KiCad,Pcbnew,9.0.7-9.0.7~ubuntu24.04.1*%
%TF.CreationDate,2026-04-06T00:42:38-04:00*%
%TF.ProjectId,VECTAR-PSU-REV2,56454354-4152-42d5-9053-552d52455632,rev?*%
%TF.SameCoordinates,Original*%
%TF.FileFunction,Legend,Top*%
%TF.FilePolarity,Positive*%
%FSLAX46Y46*%
G04 Gerber Fmt 4.6, Leading zero omitted, Abs format (unit mm)*
G04 Created by KiCad (PCBNEW 9.0.7-9.0.7~ubuntu24.04.1) date 2026-04-06 00:42:38*
%MOMM*%
%LPD*%
G01*
G04 APERTURE LIST*
%ADD10C,0.150000*%
%ADD11C,0.127000*%
%ADD12C,0.120000*%
%ADD13C,0.152400*%
%ADD14C,0.200000*%
%ADD15C,0.250000*%
G04 APERTURE END LIST*
D10*
X122569563Y-60659880D02*
X123284163Y-60659880D01*
X123284163Y-60659880D02*
X123427083Y-60707520D01*
X123427083Y-60707520D02*
X123522364Y-60802800D01*
X123522364Y-60802800D02*
X123570004Y-60945720D01*
X123570004Y-60945720D02*
X123570004Y-61041000D01*
X123570004Y-59659439D02*
X123570004Y-60231119D01*
X123570004Y-59945279D02*
X122569563Y-59945279D01*
X122569563Y-59945279D02*
X122712483Y-60040559D01*
X122712483Y-60040559D02*
X122807763Y-60135839D01*
X122807763Y-60135839D02*
X122855403Y-60231119D01*
X122569563Y-78959880D02*
X123284163Y-78959880D01*
X123284163Y-78959880D02*
X123427083Y-79007520D01*
X123427083Y-79007520D02*
X123522364Y-79102800D01*
X123522364Y-79102800D02*
X123570004Y-79245720D01*
X123570004Y-79245720D02*
X123570004Y-79341000D01*
X122664843Y-78531119D02*
X122617203Y-78483479D01*
X122617203Y-78483479D02*
X122569563Y-78388199D01*
X122569563Y-78388199D02*
X122569563Y-78149999D01*
X122569563Y-78149999D02*
X122617203Y-78054719D01*
X122617203Y-78054719D02*
X122664843Y-78007079D01*
X122664843Y-78007079D02*
X122760123Y-77959439D01*
X122760123Y-77959439D02*
X122855403Y-77959439D01*
X122855403Y-77959439D02*
X122998323Y-78007079D01*
X122998323Y-78007079D02*
X123570004Y-78578759D01*
X123570004Y-78578759D02*
X123570004Y-77959439D01*
X192566666Y-89254819D02*
X192566666Y-89969104D01*
X192566666Y-89969104D02*
X192519047Y-90111961D01*
X192519047Y-90111961D02*
X192423809Y-90207200D01*
X192423809Y-90207200D02*
X192280952Y-90254819D01*
X192280952Y-90254819D02*
X192185714Y-90254819D01*
X193042857Y-90254819D02*
X193042857Y-89254819D01*
X193042857Y-89254819D02*
X193423809Y-89254819D01*
X193423809Y-89254819D02*
X193519047Y-89302438D01*
X193519047Y-89302438D02*
X193566666Y-89350057D01*
X193566666Y-89350057D02*
X193614285Y-89445295D01*
X193614285Y-89445295D02*
X193614285Y-89588152D01*
X193614285Y-89588152D02*
X193566666Y-89683390D01*
X193566666Y-89683390D02*
X193519047Y-89731009D01*
X193519047Y-89731009D02*
X193423809Y-89778628D01*
X193423809Y-89778628D02*
X193042857Y-89778628D01*
X194471428Y-89588152D02*
X194471428Y-90254819D01*
X194233333Y-89207200D02*
X193995238Y-89921485D01*
X193995238Y-89921485D02*
X194614285Y-89921485D01*
X166324381Y-117841876D02*
X166690095Y-117841876D01*
X166507238Y-118481876D02*
X166507238Y-117841876D01*
X166903428Y-118481876D02*
X166903428Y-117841876D01*
X166903428Y-117841876D02*
X167147238Y-117841876D01*
X167147238Y-117841876D02*
X167208190Y-117872352D01*
X167208190Y-117872352D02*
X167238667Y-117902828D01*
X167238667Y-117902828D02*
X167269143Y-117963780D01*
X167269143Y-117963780D02*
X167269143Y-118055209D01*
X167269143Y-118055209D02*
X167238667Y-118116161D01*
X167238667Y-118116161D02*
X167208190Y-118146638D01*
X167208190Y-118146638D02*
X167147238Y-118177114D01*
X167147238Y-118177114D02*
X166903428Y-118177114D01*
X167482476Y-117841876D02*
X167878667Y-117841876D01*
X167878667Y-117841876D02*
X167665333Y-118085685D01*
X167665333Y-118085685D02*
X167756762Y-118085685D01*
X167756762Y-118085685D02*
X167817714Y-118116161D01*
X167817714Y-118116161D02*
X167848190Y-118146638D01*
X167848190Y-118146638D02*
X167878667Y-118207590D01*
X167878667Y-118207590D02*
X167878667Y-118359971D01*
X167878667Y-118359971D02*
X167848190Y-118420923D01*
X167848190Y-118420923D02*
X167817714Y-118451400D01*
X167817714Y-118451400D02*
X167756762Y-118481876D01*
X167756762Y-118481876D02*
X167573905Y-118481876D01*
X167573905Y-118481876D02*
X167512952Y-118451400D01*
X167512952Y-118451400D02*
X167482476Y-118420923D01*
X126719619Y-78841876D02*
X127085333Y-78841876D01*
X126902476Y-79481876D02*
X126902476Y-78841876D01*
X127298666Y-79481876D02*
X127298666Y-78841876D01*
X127298666Y-78841876D02*
X127542476Y-78841876D01*
X127542476Y-78841876D02*
X127603428Y-78872352D01*
X127603428Y-78872352D02*
X127633905Y-78902828D01*
X127633905Y-78902828D02*
X127664381Y-78963780D01*
X127664381Y-78963780D02*
X127664381Y-79055209D01*
X127664381Y-79055209D02*
X127633905Y-79116161D01*
X127633905Y-79116161D02*
X127603428Y-79146638D01*
X127603428Y-79146638D02*
X127542476Y-79177114D01*
X127542476Y-79177114D02*
X127298666Y-79177114D01*
X128273905Y-79481876D02*
X127908190Y-79481876D01*
X128091047Y-79481876D02*
X128091047Y-78841876D01*
X128091047Y-78841876D02*
X128030095Y-78933304D01*
X128030095Y-78933304D02*
X127969143Y-78994257D01*
X127969143Y-78994257D02*
X127908190Y-79024733D01*
X128670095Y-78841876D02*
X128731048Y-78841876D01*
X128731048Y-78841876D02*
X128792000Y-78872352D01*
X128792000Y-78872352D02*
X128822476Y-78902828D01*
X128822476Y-78902828D02*
X128852952Y-78963780D01*
X128852952Y-78963780D02*
X128883429Y-79085685D01*
X128883429Y-79085685D02*
X128883429Y-79238066D01*
X128883429Y-79238066D02*
X128852952Y-79359971D01*
X128852952Y-79359971D02*
X128822476Y-79420923D01*
X128822476Y-79420923D02*
X128792000Y-79451400D01*
X128792000Y-79451400D02*
X128731048Y-79481876D01*
X128731048Y-79481876D02*
X128670095Y-79481876D01*
X128670095Y-79481876D02*
X128609143Y-79451400D01*
X128609143Y-79451400D02*
X128578667Y-79420923D01*
X128578667Y-79420923D02*
X128548190Y-79359971D01*
X128548190Y-79359971D02*
X128517714Y-79238066D01*
X128517714Y-79238066D02*
X128517714Y-79085685D01*
X128517714Y-79085685D02*
X128548190Y-78963780D01*
X128548190Y-78963780D02*
X128578667Y-78902828D01*
X128578667Y-78902828D02*
X128609143Y-78872352D01*
X128609143Y-78872352D02*
X128670095Y-78841876D01*
X159224381Y-45441876D02*
X159590095Y-45441876D01*
X159407238Y-46081876D02*
X159407238Y-45441876D01*
X159803428Y-46081876D02*
X159803428Y-45441876D01*
X159803428Y-45441876D02*
X160047238Y-45441876D01*
X160047238Y-45441876D02*
X160108190Y-45472352D01*
X160108190Y-45472352D02*
X160138667Y-45502828D01*
X160138667Y-45502828D02*
X160169143Y-45563780D01*
X160169143Y-45563780D02*
X160169143Y-45655209D01*
X160169143Y-45655209D02*
X160138667Y-45716161D01*
X160138667Y-45716161D02*
X160108190Y-45746638D01*
X160108190Y-45746638D02*
X160047238Y-45777114D01*
X160047238Y-45777114D02*
X159803428Y-45777114D01*
X160382476Y-45441876D02*
X160809143Y-45441876D01*
X160809143Y-45441876D02*
X160534857Y-46081876D01*
X180819619Y-101141876D02*
X181185333Y-101141876D01*
X181002476Y-101781876D02*
X181002476Y-101141876D01*
X181398666Y-101781876D02*
X181398666Y-101141876D01*
X181398666Y-101141876D02*
X181642476Y-101141876D01*
X181642476Y-101141876D02*
X181703428Y-101172352D01*
X181703428Y-101172352D02*
X181733905Y-101202828D01*
X181733905Y-101202828D02*
X181764381Y-101263780D01*
X181764381Y-101263780D02*
X181764381Y-101355209D01*
X181764381Y-101355209D02*
X181733905Y-101416161D01*
X181733905Y-101416161D02*
X181703428Y-101446638D01*
X181703428Y-101446638D02*
X181642476Y-101477114D01*
X181642476Y-101477114D02*
X181398666Y-101477114D01*
X182373905Y-101781876D02*
X182008190Y-101781876D01*
X182191047Y-101781876D02*
X182191047Y-101141876D01*
X182191047Y-101141876D02*
X182130095Y-101233304D01*
X182130095Y-101233304D02*
X182069143Y-101294257D01*
X182069143Y-101294257D02*
X182008190Y-101324733D01*
X182952952Y-101141876D02*
X182648190Y-101141876D01*
X182648190Y-101141876D02*
X182617714Y-101446638D01*
X182617714Y-101446638D02*
X182648190Y-101416161D01*
X182648190Y-101416161D02*
X182709143Y-101385685D01*
X182709143Y-101385685D02*
X182861524Y-101385685D01*
X182861524Y-101385685D02*
X182922476Y-101416161D01*
X182922476Y-101416161D02*
X182952952Y-101446638D01*
X182952952Y-101446638D02*
X182983429Y-101507590D01*
X182983429Y-101507590D02*
X182983429Y-101659971D01*
X182983429Y-101659971D02*
X182952952Y-101720923D01*
X182952952Y-101720923D02*
X182922476Y-101751400D01*
X182922476Y-101751400D02*
X182861524Y-101781876D01*
X182861524Y-101781876D02*
X182709143Y-101781876D01*
X182709143Y-101781876D02*
X182648190Y-101751400D01*
X182648190Y-101751400D02*
X182617714Y-101720923D01*
X153413095Y-98152200D02*
X153555952Y-98199819D01*
X153555952Y-98199819D02*
X153794047Y-98199819D01*
X153794047Y-98199819D02*
X153889285Y-98152200D01*
X153889285Y-98152200D02*
X153936904Y-98104580D01*
X153936904Y-98104580D02*
X153984523Y-98009342D01*
X153984523Y-98009342D02*
X153984523Y-97914104D01*
X153984523Y-97914104D02*
X153936904Y-97818866D01*
X153936904Y-97818866D02*
X153889285Y-97771247D01*
X153889285Y-97771247D02*
X153794047Y-97723628D01*
X153794047Y-97723628D02*
X153603571Y-97676009D01*
X153603571Y-97676009D02*
X153508333Y-97628390D01*
X153508333Y-97628390D02*
X153460714Y-97580771D01*
X153460714Y-97580771D02*
X153413095Y-97485533D01*
X153413095Y-97485533D02*
X153413095Y-97390295D01*
X153413095Y-97390295D02*
X153460714Y-97295057D01*
X153460714Y-97295057D02*
X153508333Y-97247438D01*
X153508333Y-97247438D02*
X153603571Y-97199819D01*
X153603571Y-97199819D02*
X153841666Y-97199819D01*
X153841666Y-97199819D02*
X153984523Y-97247438D01*
X154936904Y-98199819D02*
X154365476Y-98199819D01*
X154651190Y-98199819D02*
X154651190Y-97199819D01*
X154651190Y-97199819D02*
X154555952Y-97342676D01*
X154555952Y-97342676D02*
X154460714Y-97437914D01*
X154460714Y-97437914D02*
X154365476Y-97485533D01*
X192541666Y-72154819D02*
X192541666Y-72869104D01*
X192541666Y-72869104D02*
X192494047Y-73011961D01*
X192494047Y-73011961D02*
X192398809Y-73107200D01*
X192398809Y-73107200D02*
X192255952Y-73154819D01*
X192255952Y-73154819D02*
X192160714Y-73154819D01*
X193017857Y-73154819D02*
X193017857Y-72154819D01*
X193017857Y-72154819D02*
X193398809Y-72154819D01*
X193398809Y-72154819D02*
X193494047Y-72202438D01*
X193494047Y-72202438D02*
X193541666Y-72250057D01*
X193541666Y-72250057D02*
X193589285Y-72345295D01*
X193589285Y-72345295D02*
X193589285Y-72488152D01*
X193589285Y-72488152D02*
X193541666Y-72583390D01*
X193541666Y-72583390D02*
X193494047Y-72631009D01*
X193494047Y-72631009D02*
X193398809Y-72678628D01*
X193398809Y-72678628D02*
X193017857Y-72678628D01*
X193922619Y-72154819D02*
X194541666Y-72154819D01*
X194541666Y-72154819D02*
X194208333Y-72535771D01*
X194208333Y-72535771D02*
X194351190Y-72535771D01*
X194351190Y-72535771D02*
X194446428Y-72583390D01*
X194446428Y-72583390D02*
X194494047Y-72631009D01*
X194494047Y-72631009D02*
X194541666Y-72726247D01*
X194541666Y-72726247D02*
X194541666Y-72964342D01*
X194541666Y-72964342D02*
X194494047Y-73059580D01*
X194494047Y-73059580D02*
X194446428Y-73107200D01*
X194446428Y-73107200D02*
X194351190Y-73154819D01*
X194351190Y-73154819D02*
X194065476Y-73154819D01*
X194065476Y-73154819D02*
X193970238Y-73107200D01*
X193970238Y-73107200D02*
X193922619Y-73059580D01*
X134124381Y-78941876D02*
X134490095Y-78941876D01*
X134307238Y-79581876D02*
X134307238Y-78941876D01*
X134703428Y-79581876D02*
X134703428Y-78941876D01*
X134703428Y-78941876D02*
X134947238Y-78941876D01*
X134947238Y-78941876D02*
X135008190Y-78972352D01*
X135008190Y-78972352D02*
X135038667Y-79002828D01*
X135038667Y-79002828D02*
X135069143Y-79063780D01*
X135069143Y-79063780D02*
X135069143Y-79155209D01*
X135069143Y-79155209D02*
X135038667Y-79216161D01*
X135038667Y-79216161D02*
X135008190Y-79246638D01*
X135008190Y-79246638D02*
X134947238Y-79277114D01*
X134947238Y-79277114D02*
X134703428Y-79277114D01*
X135373905Y-79581876D02*
X135495809Y-79581876D01*
X135495809Y-79581876D02*
X135556762Y-79551400D01*
X135556762Y-79551400D02*
X135587238Y-79520923D01*
X135587238Y-79520923D02*
X135648190Y-79429495D01*
X135648190Y-79429495D02*
X135678667Y-79307590D01*
X135678667Y-79307590D02*
X135678667Y-79063780D01*
X135678667Y-79063780D02*
X135648190Y-79002828D01*
X135648190Y-79002828D02*
X135617714Y-78972352D01*
X135617714Y-78972352D02*
X135556762Y-78941876D01*
X135556762Y-78941876D02*
X135434857Y-78941876D01*
X135434857Y-78941876D02*
X135373905Y-78972352D01*
X135373905Y-78972352D02*
X135343428Y-79002828D01*
X135343428Y-79002828D02*
X135312952Y-79063780D01*
X135312952Y-79063780D02*
X135312952Y-79216161D01*
X135312952Y-79216161D02*
X135343428Y-79277114D01*
X135343428Y-79277114D02*
X135373905Y-79307590D01*
X135373905Y-79307590D02*
X135434857Y-79338066D01*
X135434857Y-79338066D02*
X135556762Y-79338066D01*
X135556762Y-79338066D02*
X135617714Y-79307590D01*
X135617714Y-79307590D02*
X135648190Y-79277114D01*
X135648190Y-79277114D02*
X135678667Y-79216161D01*
X117019619Y-47441876D02*
X117385333Y-47441876D01*
X117202476Y-48081876D02*
X117202476Y-47441876D01*
X117598666Y-48081876D02*
X117598666Y-47441876D01*
X117598666Y-47441876D02*
X117842476Y-47441876D01*
X117842476Y-47441876D02*
X117903428Y-47472352D01*
X117903428Y-47472352D02*
X117933905Y-47502828D01*
X117933905Y-47502828D02*
X117964381Y-47563780D01*
X117964381Y-47563780D02*
X117964381Y-47655209D01*
X117964381Y-47655209D02*
X117933905Y-47716161D01*
X117933905Y-47716161D02*
X117903428Y-47746638D01*
X117903428Y-47746638D02*
X117842476Y-47777114D01*
X117842476Y-47777114D02*
X117598666Y-47777114D01*
X118573905Y-48081876D02*
X118208190Y-48081876D01*
X118391047Y-48081876D02*
X118391047Y-47441876D01*
X118391047Y-47441876D02*
X118330095Y-47533304D01*
X118330095Y-47533304D02*
X118269143Y-47594257D01*
X118269143Y-47594257D02*
X118208190Y-47624733D01*
X119122476Y-47441876D02*
X119000571Y-47441876D01*
X119000571Y-47441876D02*
X118939619Y-47472352D01*
X118939619Y-47472352D02*
X118909143Y-47502828D01*
X118909143Y-47502828D02*
X118848190Y-47594257D01*
X118848190Y-47594257D02*
X118817714Y-47716161D01*
X118817714Y-47716161D02*
X118817714Y-47959971D01*
X118817714Y-47959971D02*
X118848190Y-48020923D01*
X118848190Y-48020923D02*
X118878667Y-48051400D01*
X118878667Y-48051400D02*
X118939619Y-48081876D01*
X118939619Y-48081876D02*
X119061524Y-48081876D01*
X119061524Y-48081876D02*
X119122476Y-48051400D01*
X119122476Y-48051400D02*
X119152952Y-48020923D01*
X119152952Y-48020923D02*
X119183429Y-47959971D01*
X119183429Y-47959971D02*
X119183429Y-47807590D01*
X119183429Y-47807590D02*
X119152952Y-47746638D01*
X119152952Y-47746638D02*
X119122476Y-47716161D01*
X119122476Y-47716161D02*
X119061524Y-47685685D01*
X119061524Y-47685685D02*
X118939619Y-47685685D01*
X118939619Y-47685685D02*
X118878667Y-47716161D01*
X118878667Y-47716161D02*
X118848190Y-47746638D01*
X118848190Y-47746638D02*
X118817714Y-47807590D01*
X140619619Y-115541876D02*
X140985333Y-115541876D01*
X140802476Y-116181876D02*
X140802476Y-115541876D01*
X141198666Y-116181876D02*
X141198666Y-115541876D01*
X141198666Y-115541876D02*
X141442476Y-115541876D01*
X141442476Y-115541876D02*
X141503428Y-115572352D01*
X141503428Y-115572352D02*
X141533905Y-115602828D01*
X141533905Y-115602828D02*
X141564381Y-115663780D01*
X141564381Y-115663780D02*
X141564381Y-115755209D01*
X141564381Y-115755209D02*
X141533905Y-115816161D01*
X141533905Y-115816161D02*
X141503428Y-115846638D01*
X141503428Y-115846638D02*
X141442476Y-115877114D01*
X141442476Y-115877114D02*
X141198666Y-115877114D01*
X142173905Y-116181876D02*
X141808190Y-116181876D01*
X141991047Y-116181876D02*
X141991047Y-115541876D01*
X141991047Y-115541876D02*
X141930095Y-115633304D01*
X141930095Y-115633304D02*
X141869143Y-115694257D01*
X141869143Y-115694257D02*
X141808190Y-115724733D01*
X142722476Y-115755209D02*
X142722476Y-116181876D01*
X142570095Y-115511400D02*
X142417714Y-115968542D01*
X142417714Y-115968542D02*
X142813905Y-115968542D01*
X178324381Y-74541876D02*
X178690095Y-74541876D01*
X178507238Y-75181876D02*
X178507238Y-74541876D01*
X178903428Y-75181876D02*
X178903428Y-74541876D01*
X178903428Y-74541876D02*
X179147238Y-74541876D01*
X179147238Y-74541876D02*
X179208190Y-74572352D01*
X179208190Y-74572352D02*
X179238667Y-74602828D01*
X179238667Y-74602828D02*
X179269143Y-74663780D01*
X179269143Y-74663780D02*
X179269143Y-74755209D01*
X179269143Y-74755209D02*
X179238667Y-74816161D01*
X179238667Y-74816161D02*
X179208190Y-74846638D01*
X179208190Y-74846638D02*
X179147238Y-74877114D01*
X179147238Y-74877114D02*
X178903428Y-74877114D01*
X179634857Y-74816161D02*
X179573905Y-74785685D01*
X179573905Y-74785685D02*
X179543428Y-74755209D01*
X179543428Y-74755209D02*
X179512952Y-74694257D01*
X179512952Y-74694257D02*
X179512952Y-74663780D01*
X179512952Y-74663780D02*
X179543428Y-74602828D01*
X179543428Y-74602828D02*
X179573905Y-74572352D01*
X179573905Y-74572352D02*
X179634857Y-74541876D01*
X179634857Y-74541876D02*
X179756762Y-74541876D01*
X179756762Y-74541876D02*
X179817714Y-74572352D01*
X179817714Y-74572352D02*
X179848190Y-74602828D01*
X179848190Y-74602828D02*
X179878667Y-74663780D01*
X179878667Y-74663780D02*
X179878667Y-74694257D01*
X179878667Y-74694257D02*
X179848190Y-74755209D01*
X179848190Y-74755209D02*
X179817714Y-74785685D01*
X179817714Y-74785685D02*
X179756762Y-74816161D01*
X179756762Y-74816161D02*
X179634857Y-74816161D01*
X179634857Y-74816161D02*
X179573905Y-74846638D01*
X179573905Y-74846638D02*
X179543428Y-74877114D01*
X179543428Y-74877114D02*
X179512952Y-74938066D01*
X179512952Y-74938066D02*
X179512952Y-75059971D01*
X179512952Y-75059971D02*
X179543428Y-75120923D01*
X179543428Y-75120923D02*
X179573905Y-75151400D01*
X179573905Y-75151400D02*
X179634857Y-75181876D01*
X179634857Y-75181876D02*
X179756762Y-75181876D01*
X179756762Y-75181876D02*
X179817714Y-75151400D01*
X179817714Y-75151400D02*
X179848190Y-75120923D01*
X179848190Y-75120923D02*
X179878667Y-75059971D01*
X179878667Y-75059971D02*
X179878667Y-74938066D01*
X179878667Y-74938066D02*
X179848190Y-74877114D01*
X179848190Y-74877114D02*
X179817714Y-74846638D01*
X179817714Y-74846638D02*
X179756762Y-74816161D01*
X177724381Y-64741876D02*
X178090095Y-64741876D01*
X177907238Y-65381876D02*
X177907238Y-64741876D01*
X178303428Y-65381876D02*
X178303428Y-64741876D01*
X178303428Y-64741876D02*
X178547238Y-64741876D01*
X178547238Y-64741876D02*
X178608190Y-64772352D01*
X178608190Y-64772352D02*
X178638667Y-64802828D01*
X178638667Y-64802828D02*
X178669143Y-64863780D01*
X178669143Y-64863780D02*
X178669143Y-64955209D01*
X178669143Y-64955209D02*
X178638667Y-65016161D01*
X178638667Y-65016161D02*
X178608190Y-65046638D01*
X178608190Y-65046638D02*
X178547238Y-65077114D01*
X178547238Y-65077114D02*
X178303428Y-65077114D01*
X179217714Y-64741876D02*
X179095809Y-64741876D01*
X179095809Y-64741876D02*
X179034857Y-64772352D01*
X179034857Y-64772352D02*
X179004381Y-64802828D01*
X179004381Y-64802828D02*
X178943428Y-64894257D01*
X178943428Y-64894257D02*
X178912952Y-65016161D01*
X178912952Y-65016161D02*
X178912952Y-65259971D01*
X178912952Y-65259971D02*
X178943428Y-65320923D01*
X178943428Y-65320923D02*
X178973905Y-65351400D01*
X178973905Y-65351400D02*
X179034857Y-65381876D01*
X179034857Y-65381876D02*
X179156762Y-65381876D01*
X179156762Y-65381876D02*
X179217714Y-65351400D01*
X179217714Y-65351400D02*
X179248190Y-65320923D01*
X179248190Y-65320923D02*
X179278667Y-65259971D01*
X179278667Y-65259971D02*
X179278667Y-65107590D01*
X179278667Y-65107590D02*
X179248190Y-65046638D01*
X179248190Y-65046638D02*
X179217714Y-65016161D01*
X179217714Y-65016161D02*
X179156762Y-64985685D01*
X179156762Y-64985685D02*
X179034857Y-64985685D01*
X179034857Y-64985685D02*
X178973905Y-65016161D01*
X178973905Y-65016161D02*
X178943428Y-65046638D01*
X178943428Y-65046638D02*
X178912952Y-65107590D01*
X152166666Y-111454819D02*
X152166666Y-112169104D01*
X152166666Y-112169104D02*
X152119047Y-112311961D01*
X152119047Y-112311961D02*
X152023809Y-112407200D01*
X152023809Y-112407200D02*
X151880952Y-112454819D01*
X151880952Y-112454819D02*
X151785714Y-112454819D01*
X152642857Y-112454819D02*
X152642857Y-111454819D01*
X152642857Y-111454819D02*
X153023809Y-111454819D01*
X153023809Y-111454819D02*
X153119047Y-111502438D01*
X153119047Y-111502438D02*
X153166666Y-111550057D01*
X153166666Y-111550057D02*
X153214285Y-111645295D01*
X153214285Y-111645295D02*
X153214285Y-111788152D01*
X153214285Y-111788152D02*
X153166666Y-111883390D01*
X153166666Y-111883390D02*
X153119047Y-111931009D01*
X153119047Y-111931009D02*
X153023809Y-111978628D01*
X153023809Y-111978628D02*
X152642857Y-111978628D01*
X153595238Y-111550057D02*
X153642857Y-111502438D01*
X153642857Y-111502438D02*
X153738095Y-111454819D01*
X153738095Y-111454819D02*
X153976190Y-111454819D01*
X153976190Y-111454819D02*
X154071428Y-111502438D01*
X154071428Y-111502438D02*
X154119047Y-111550057D01*
X154119047Y-111550057D02*
X154166666Y-111645295D01*
X154166666Y-111645295D02*
X154166666Y-111740533D01*
X154166666Y-111740533D02*
X154119047Y-111883390D01*
X154119047Y-111883390D02*
X153547619Y-112454819D01*
X153547619Y-112454819D02*
X154166666Y-112454819D01*
X129724381Y-111041876D02*
X130090095Y-111041876D01*
X129907238Y-111681876D02*
X129907238Y-111041876D01*
X130303428Y-111681876D02*
X130303428Y-111041876D01*
X130303428Y-111041876D02*
X130547238Y-111041876D01*
X130547238Y-111041876D02*
X130608190Y-111072352D01*
X130608190Y-111072352D02*
X130638667Y-111102828D01*
X130638667Y-111102828D02*
X130669143Y-111163780D01*
X130669143Y-111163780D02*
X130669143Y-111255209D01*
X130669143Y-111255209D02*
X130638667Y-111316161D01*
X130638667Y-111316161D02*
X130608190Y-111346638D01*
X130608190Y-111346638D02*
X130547238Y-111377114D01*
X130547238Y-111377114D02*
X130303428Y-111377114D01*
X131278667Y-111681876D02*
X130912952Y-111681876D01*
X131095809Y-111681876D02*
X131095809Y-111041876D01*
X131095809Y-111041876D02*
X131034857Y-111133304D01*
X131034857Y-111133304D02*
X130973905Y-111194257D01*
X130973905Y-111194257D02*
X130912952Y-111224733D01*
X146424381Y-105641876D02*
X146790095Y-105641876D01*
X146607238Y-106281876D02*
X146607238Y-105641876D01*
X147003428Y-106281876D02*
X147003428Y-105641876D01*
X147003428Y-105641876D02*
X147247238Y-105641876D01*
X147247238Y-105641876D02*
X147308190Y-105672352D01*
X147308190Y-105672352D02*
X147338667Y-105702828D01*
X147338667Y-105702828D02*
X147369143Y-105763780D01*
X147369143Y-105763780D02*
X147369143Y-105855209D01*
X147369143Y-105855209D02*
X147338667Y-105916161D01*
X147338667Y-105916161D02*
X147308190Y-105946638D01*
X147308190Y-105946638D02*
X147247238Y-105977114D01*
X147247238Y-105977114D02*
X147003428Y-105977114D01*
X147917714Y-105855209D02*
X147917714Y-106281876D01*
X147765333Y-105611400D02*
X147612952Y-106068542D01*
X147612952Y-106068542D02*
X148009143Y-106068542D01*
X185724381Y-48891876D02*
X186090095Y-48891876D01*
X185907238Y-49531876D02*
X185907238Y-48891876D01*
X186303428Y-49531876D02*
X186303428Y-48891876D01*
X186303428Y-48891876D02*
X186547238Y-48891876D01*
X186547238Y-48891876D02*
X186608190Y-48922352D01*
X186608190Y-48922352D02*
X186638667Y-48952828D01*
X186638667Y-48952828D02*
X186669143Y-49013780D01*
X186669143Y-49013780D02*
X186669143Y-49105209D01*
X186669143Y-49105209D02*
X186638667Y-49166161D01*
X186638667Y-49166161D02*
X186608190Y-49196638D01*
X186608190Y-49196638D02*
X186547238Y-49227114D01*
X186547238Y-49227114D02*
X186303428Y-49227114D01*
X186912952Y-48952828D02*
X186943428Y-48922352D01*
X186943428Y-48922352D02*
X187004381Y-48891876D01*
X187004381Y-48891876D02*
X187156762Y-48891876D01*
X187156762Y-48891876D02*
X187217714Y-48922352D01*
X187217714Y-48922352D02*
X187248190Y-48952828D01*
X187248190Y-48952828D02*
X187278667Y-49013780D01*
X187278667Y-49013780D02*
X187278667Y-49074733D01*
X187278667Y-49074733D02*
X187248190Y-49166161D01*
X187248190Y-49166161D02*
X186882476Y-49531876D01*
X186882476Y-49531876D02*
X187278667Y-49531876D01*
X180119619Y-118141876D02*
X180485333Y-118141876D01*
X180302476Y-118781876D02*
X180302476Y-118141876D01*
X180698666Y-118781876D02*
X180698666Y-118141876D01*
X180698666Y-118141876D02*
X180942476Y-118141876D01*
X180942476Y-118141876D02*
X181003428Y-118172352D01*
X181003428Y-118172352D02*
X181033905Y-118202828D01*
X181033905Y-118202828D02*
X181064381Y-118263780D01*
X181064381Y-118263780D02*
X181064381Y-118355209D01*
X181064381Y-118355209D02*
X181033905Y-118416161D01*
X181033905Y-118416161D02*
X181003428Y-118446638D01*
X181003428Y-118446638D02*
X180942476Y-118477114D01*
X180942476Y-118477114D02*
X180698666Y-118477114D01*
X181673905Y-118781876D02*
X181308190Y-118781876D01*
X181491047Y-118781876D02*
X181491047Y-118141876D01*
X181491047Y-118141876D02*
X181430095Y-118233304D01*
X181430095Y-118233304D02*
X181369143Y-118294257D01*
X181369143Y-118294257D02*
X181308190Y-118324733D01*
X181917714Y-118202828D02*
X181948190Y-118172352D01*
X181948190Y-118172352D02*
X182009143Y-118141876D01*
X182009143Y-118141876D02*
X182161524Y-118141876D01*
X182161524Y-118141876D02*
X182222476Y-118172352D01*
X182222476Y-118172352D02*
X182252952Y-118202828D01*
X182252952Y-118202828D02*
X182283429Y-118263780D01*
X182283429Y-118263780D02*
X182283429Y-118324733D01*
X182283429Y-118324733D02*
X182252952Y-118416161D01*
X182252952Y-118416161D02*
X181887238Y-118781876D01*
X181887238Y-118781876D02*
X182283429Y-118781876D01*
X149266666Y-111254819D02*
X149266666Y-111969104D01*
X149266666Y-111969104D02*
X149219047Y-112111961D01*
X149219047Y-112111961D02*
X149123809Y-112207200D01*
X149123809Y-112207200D02*
X148980952Y-112254819D01*
X148980952Y-112254819D02*
X148885714Y-112254819D01*
X149742857Y-112254819D02*
X149742857Y-111254819D01*
X149742857Y-111254819D02*
X150123809Y-111254819D01*
X150123809Y-111254819D02*
X150219047Y-111302438D01*
X150219047Y-111302438D02*
X150266666Y-111350057D01*
X150266666Y-111350057D02*
X150314285Y-111445295D01*
X150314285Y-111445295D02*
X150314285Y-111588152D01*
X150314285Y-111588152D02*
X150266666Y-111683390D01*
X150266666Y-111683390D02*
X150219047Y-111731009D01*
X150219047Y-111731009D02*
X150123809Y-111778628D01*
X150123809Y-111778628D02*
X149742857Y-111778628D01*
X151266666Y-112254819D02*
X150695238Y-112254819D01*
X150980952Y-112254819D02*
X150980952Y-111254819D01*
X150980952Y-111254819D02*
X150885714Y-111397676D01*
X150885714Y-111397676D02*
X150790476Y-111492914D01*
X150790476Y-111492914D02*
X150695238Y-111540533D01*
X155692381Y-109648276D02*
X156058095Y-109648276D01*
X155875238Y-110288276D02*
X155875238Y-109648276D01*
X156271428Y-110288276D02*
X156271428Y-109648276D01*
X156271428Y-109648276D02*
X156515238Y-109648276D01*
X156515238Y-109648276D02*
X156576190Y-109678752D01*
X156576190Y-109678752D02*
X156606667Y-109709228D01*
X156606667Y-109709228D02*
X156637143Y-109770180D01*
X156637143Y-109770180D02*
X156637143Y-109861609D01*
X156637143Y-109861609D02*
X156606667Y-109922561D01*
X156606667Y-109922561D02*
X156576190Y-109953038D01*
X156576190Y-109953038D02*
X156515238Y-109983514D01*
X156515238Y-109983514D02*
X156271428Y-109983514D01*
X157216190Y-109648276D02*
X156911428Y-109648276D01*
X156911428Y-109648276D02*
X156880952Y-109953038D01*
X156880952Y-109953038D02*
X156911428Y-109922561D01*
X156911428Y-109922561D02*
X156972381Y-109892085D01*
X156972381Y-109892085D02*
X157124762Y-109892085D01*
X157124762Y-109892085D02*
X157185714Y-109922561D01*
X157185714Y-109922561D02*
X157216190Y-109953038D01*
X157216190Y-109953038D02*
X157246667Y-110013990D01*
X157246667Y-110013990D02*
X157246667Y-110166371D01*
X157246667Y-110166371D02*
X157216190Y-110227323D01*
X157216190Y-110227323D02*
X157185714Y-110257800D01*
X157185714Y-110257800D02*
X157124762Y-110288276D01*
X157124762Y-110288276D02*
X156972381Y-110288276D01*
X156972381Y-110288276D02*
X156911428Y-110257800D01*
X156911428Y-110257800D02*
X156880952Y-110227323D01*
X187619619Y-101841876D02*
X187985333Y-101841876D01*
X187802476Y-102481876D02*
X187802476Y-101841876D01*
X188198666Y-102481876D02*
X188198666Y-101841876D01*
X188198666Y-101841876D02*
X188442476Y-101841876D01*
X188442476Y-101841876D02*
X188503428Y-101872352D01*
X188503428Y-101872352D02*
X188533905Y-101902828D01*
X188533905Y-101902828D02*
X188564381Y-101963780D01*
X188564381Y-101963780D02*
X188564381Y-102055209D01*
X188564381Y-102055209D02*
X188533905Y-102116161D01*
X188533905Y-102116161D02*
X188503428Y-102146638D01*
X188503428Y-102146638D02*
X188442476Y-102177114D01*
X188442476Y-102177114D02*
X188198666Y-102177114D01*
X189173905Y-102481876D02*
X188808190Y-102481876D01*
X188991047Y-102481876D02*
X188991047Y-101841876D01*
X188991047Y-101841876D02*
X188930095Y-101933304D01*
X188930095Y-101933304D02*
X188869143Y-101994257D01*
X188869143Y-101994257D02*
X188808190Y-102024733D01*
X189387238Y-101841876D02*
X189783429Y-101841876D01*
X189783429Y-101841876D02*
X189570095Y-102085685D01*
X189570095Y-102085685D02*
X189661524Y-102085685D01*
X189661524Y-102085685D02*
X189722476Y-102116161D01*
X189722476Y-102116161D02*
X189752952Y-102146638D01*
X189752952Y-102146638D02*
X189783429Y-102207590D01*
X189783429Y-102207590D02*
X189783429Y-102359971D01*
X189783429Y-102359971D02*
X189752952Y-102420923D01*
X189752952Y-102420923D02*
X189722476Y-102451400D01*
X189722476Y-102451400D02*
X189661524Y-102481876D01*
X189661524Y-102481876D02*
X189478667Y-102481876D01*
X189478667Y-102481876D02*
X189417714Y-102451400D01*
X189417714Y-102451400D02*
X189387238Y-102420923D01*
D11*
%TO.C,J6*%
X121400000Y-96100000D02*
X122400000Y-96100000D01*
X121900000Y-96600000D02*
X121900000Y-95600000D01*
X121900000Y-119100000D02*
X121900000Y-120100000D01*
%TO.C,J1*%
X118000000Y-55300000D02*
X118000000Y-56500000D01*
X118600000Y-55900000D02*
X117400000Y-55900000D01*
X119900000Y-57350000D02*
X119900000Y-59272000D01*
X119900000Y-72850000D02*
X119900000Y-70178000D01*
%TO.C,J2*%
X118000000Y-73600000D02*
X118000000Y-74800000D01*
X118600000Y-74200000D02*
X117400000Y-74200000D01*
X119900000Y-75650000D02*
X119900000Y-77572000D01*
X119900000Y-91150000D02*
X119900000Y-88478000D01*
D12*
%TO.C,JP4*%
X193612258Y-87227500D02*
X193137742Y-87227500D01*
X193612258Y-88272500D02*
X193137742Y-88272500D01*
D13*
%TO.C,L1*%
X173578600Y-78927700D02*
X169085340Y-78927700D01*
X164914660Y-78927700D02*
X160421400Y-78927700D01*
X160421400Y-78927700D02*
X160421400Y-92872300D01*
X173578600Y-92872300D02*
X173578600Y-78927700D01*
X169085340Y-92872300D02*
X173578600Y-92872300D01*
X160421400Y-92872300D02*
X164914660Y-92872300D01*
D12*
%TO.C,R8*%
X184062742Y-84977500D02*
X184537258Y-84977500D01*
X184062742Y-86022500D02*
X184537258Y-86022500D01*
%TO.C,R2*%
X184537258Y-83522500D02*
X184062742Y-83522500D01*
X184537258Y-82477500D02*
X184062742Y-82477500D01*
%TO.C,C9*%
X187634420Y-67510000D02*
X187915580Y-67510000D01*
X187634420Y-68530000D02*
X187915580Y-68530000D01*
D14*
%TO.C,Q3*%
X134660000Y-90547000D02*
X134660000Y-85647000D01*
X144860000Y-85647000D02*
X134660000Y-85647000D01*
X144860000Y-90547000D02*
X134660000Y-90547000D01*
X144860000Y-90547000D02*
X144860000Y-85647000D01*
D15*
X134135200Y-88400000D02*
G75*
G02*
X133885200Y-88400000I-125000J0D01*
G01*
X133885200Y-88400000D02*
G75*
G02*
X134135200Y-88400000I125000J0D01*
G01*
D12*
%TO.C,R12*%
X181322500Y-84862742D02*
X181322500Y-85337258D01*
X180277500Y-84862742D02*
X180277500Y-85337258D01*
D11*
%TO.C,TP3*%
X168370000Y-120400000D02*
G75*
G02*
X165830000Y-120400000I-1270000J0D01*
G01*
X165830000Y-120400000D02*
G75*
G02*
X168370000Y-120400000I1270000J0D01*
G01*
D12*
%TO.C,C2*%
X124540000Y-53540580D02*
X124540000Y-53259420D01*
X125560000Y-53540580D02*
X125560000Y-53259420D01*
D11*
%TO.C,TP10*%
X129070000Y-81400000D02*
G75*
G02*
X126530000Y-81400000I-1270000J0D01*
G01*
X126530000Y-81400000D02*
G75*
G02*
X129070000Y-81400000I1270000J0D01*
G01*
%TO.C,TP7*%
X161270000Y-48000000D02*
G75*
G02*
X158730000Y-48000000I-1270000J0D01*
G01*
X158730000Y-48000000D02*
G75*
G02*
X161270000Y-48000000I1270000J0D01*
G01*
%TO.C,U2*%
X179650000Y-82500000D02*
X179480000Y-82500000D01*
X179480000Y-80400000D02*
X179650000Y-80400000D01*
D14*
X181265000Y-82200000D02*
G75*
G02*
X181065000Y-82200000I-100000J0D01*
G01*
X181065000Y-82200000D02*
G75*
G02*
X181265000Y-82200000I100000J0D01*
G01*
D12*
%TO.C,C6*%
X187534420Y-69960000D02*
X187815580Y-69960000D01*
X187534420Y-70980000D02*
X187815580Y-70980000D01*
D11*
%TO.C,TP15*%
X183170000Y-103700000D02*
G75*
G02*
X180630000Y-103700000I-1270000J0D01*
G01*
X180630000Y-103700000D02*
G75*
G02*
X183170000Y-103700000I1270000J0D01*
G01*
%TO.C,S1*%
X150900000Y-98860000D02*
X157100000Y-98860000D01*
X150900000Y-104940000D02*
X150900000Y-98860000D01*
X157100000Y-98860000D02*
X157100000Y-104940000D01*
X157100000Y-104940000D02*
X150900000Y-104940000D01*
D14*
X148350000Y-100200000D02*
G75*
G02*
X148150000Y-100200000I-100000J0D01*
G01*
X148150000Y-100200000D02*
G75*
G02*
X148350000Y-100200000I100000J0D01*
G01*
D12*
%TO.C,JP3*%
X193612258Y-73677500D02*
X193137742Y-73677500D01*
X193612258Y-74722500D02*
X193137742Y-74722500D01*
D11*
%TO.C,TP9*%
X136170000Y-81500000D02*
G75*
G02*
X133630000Y-81500000I-1270000J0D01*
G01*
X133630000Y-81500000D02*
G75*
G02*
X136170000Y-81500000I1270000J0D01*
G01*
D12*
%TO.C,C3*%
X127050000Y-53540580D02*
X127050000Y-53259420D01*
X128070000Y-53540580D02*
X128070000Y-53259420D01*
%TO.C,C4*%
X129560000Y-53540580D02*
X129560000Y-53259420D01*
X130580000Y-53540580D02*
X130580000Y-53259420D01*
%TO.C,C8*%
X187634420Y-65000000D02*
X187915580Y-65000000D01*
X187634420Y-66020000D02*
X187915580Y-66020000D01*
%TO.C,R7*%
X179022500Y-85337258D02*
X179022500Y-84862742D01*
X177977500Y-85337258D02*
X177977500Y-84862742D01*
%TO.C,D5*%
D11*
X195138500Y-83150000D02*
G75*
G02*
X195011500Y-83150000I-63500J0D01*
G01*
X195011500Y-83150000D02*
G75*
G02*
X195138500Y-83150000I63500J0D01*
G01*
D12*
%TO.C,C18*%
X169784420Y-103470000D02*
X170065580Y-103470000D01*
X169784420Y-104490000D02*
X170065580Y-104490000D01*
%TO.C,C5*%
X187288748Y-59765000D02*
X187811252Y-59765000D01*
X187288748Y-61235000D02*
X187811252Y-61235000D01*
D11*
%TO.C,TP16*%
X119370000Y-50000000D02*
G75*
G02*
X116830000Y-50000000I-1270000J0D01*
G01*
X116830000Y-50000000D02*
G75*
G02*
X119370000Y-50000000I1270000J0D01*
G01*
D13*
%TO.C,D2*%
X153960500Y-48000000D02*
G75*
G02*
X153808100Y-48000000I-76200J0D01*
G01*
X153808100Y-48000000D02*
G75*
G02*
X153960500Y-48000000I76200J0D01*
G01*
D12*
%TO.C,C15*%
X187584420Y-80810000D02*
X187865580Y-80810000D01*
X187584420Y-79790000D02*
X187865580Y-79790000D01*
%TO.C,C22*%
X176110000Y-84259420D02*
X176110000Y-84540580D01*
X175090000Y-84259420D02*
X175090000Y-84540580D01*
D11*
%TO.C,TP14*%
X142970000Y-118100000D02*
G75*
G02*
X140430000Y-118100000I-1270000J0D01*
G01*
X140430000Y-118100000D02*
G75*
G02*
X142970000Y-118100000I1270000J0D01*
G01*
%TO.C,C17*%
X167100000Y-95800000D02*
X173700000Y-95800000D01*
X167100000Y-97970000D02*
X167100000Y-95800000D01*
X167100000Y-102400000D02*
X167100000Y-100230000D01*
X173700000Y-95800000D02*
X173700000Y-97970000D01*
X173700000Y-102400000D02*
X167100000Y-102400000D01*
X173700000Y-102400000D02*
X173700000Y-100230000D01*
D14*
X165500000Y-99100000D02*
G75*
G02*
X165300000Y-99100000I-100000J0D01*
G01*
X165300000Y-99100000D02*
G75*
G02*
X165500000Y-99100000I100000J0D01*
G01*
D11*
%TO.C,TP8*%
X180370000Y-77100000D02*
G75*
G02*
X177830000Y-77100000I-1270000J0D01*
G01*
X177830000Y-77100000D02*
G75*
G02*
X180370000Y-77100000I1270000J0D01*
G01*
D12*
%TO.C,C20*%
X169784420Y-108490000D02*
X170065580Y-108490000D01*
X169784420Y-109510000D02*
X170065580Y-109510000D01*
%TO.C,C16*%
X176110000Y-81065580D02*
X176110000Y-80784420D01*
X175090000Y-81065580D02*
X175090000Y-80784420D01*
D11*
%TO.C,TP6*%
X179770000Y-67300000D02*
G75*
G02*
X177230000Y-67300000I-1270000J0D01*
G01*
X177230000Y-67300000D02*
G75*
G02*
X179770000Y-67300000I1270000J0D01*
G01*
D12*
%TO.C,R9*%
X193437258Y-76677500D02*
X192962742Y-76677500D01*
X193437258Y-77722500D02*
X192962742Y-77722500D01*
%TO.C,JP2*%
X152027500Y-108612258D02*
X152027500Y-108137742D01*
X153072500Y-108612258D02*
X153072500Y-108137742D01*
D11*
%TO.C,TP1*%
X131770000Y-113600000D02*
G75*
G02*
X129230000Y-113600000I-1270000J0D01*
G01*
X129230000Y-113600000D02*
G75*
G02*
X131770000Y-113600000I1270000J0D01*
G01*
%TO.C,TP4*%
X148470000Y-108200000D02*
G75*
G02*
X145930000Y-108200000I-1270000J0D01*
G01*
X145930000Y-108200000D02*
G75*
G02*
X148470000Y-108200000I1270000J0D01*
G01*
%TO.C,TP2*%
X187770000Y-51450000D02*
G75*
G02*
X185230000Y-51450000I-1270000J0D01*
G01*
X185230000Y-51450000D02*
G75*
G02*
X187770000Y-51450000I1270000J0D01*
G01*
%TO.C,TP12*%
X182470000Y-120700000D02*
G75*
G02*
X179930000Y-120700000I-1270000J0D01*
G01*
X179930000Y-120700000D02*
G75*
G02*
X182470000Y-120700000I1270000J0D01*
G01*
%TO.C,PS78*%
X143000000Y-53320000D02*
X144270000Y-52050000D01*
X143000000Y-74950000D02*
X143000000Y-53320000D01*
X144270000Y-52050000D02*
X176000000Y-52050000D01*
X176000000Y-52050000D02*
X176000000Y-74950000D01*
X176000000Y-74950000D02*
X143000000Y-74950000D01*
D14*
X142100000Y-55850000D02*
G75*
G02*
X141900000Y-55850000I-100000J0D01*
G01*
X141900000Y-55850000D02*
G75*
G02*
X142100000Y-55850000I100000J0D01*
G01*
D12*
%TO.C,C19*%
X169784420Y-105980000D02*
X170065580Y-105980000D01*
X169784420Y-107000000D02*
X170065580Y-107000000D01*
%TO.C,C7*%
X187634420Y-62490000D02*
X187915580Y-62490000D01*
X187634420Y-63510000D02*
X187915580Y-63510000D01*
%TO.C,R10*%
X193612258Y-85772500D02*
X193137742Y-85772500D01*
X193612258Y-84727500D02*
X193137742Y-84727500D01*
%TO.C,JP1*%
X149577500Y-108437258D02*
X149577500Y-107962742D01*
X150622500Y-108437258D02*
X150622500Y-107962742D01*
%TO.C,C11*%
X140790000Y-109040580D02*
X140790000Y-108759420D01*
X141810000Y-109040580D02*
X141810000Y-108759420D01*
D11*
%TO.C,TP5*%
X157770000Y-107600000D02*
G75*
G02*
X155230000Y-107600000I-1270000J0D01*
G01*
X155230000Y-107600000D02*
G75*
G02*
X157770000Y-107600000I1270000J0D01*
G01*
%TO.C,TP13*%
X189970000Y-104400000D02*
G75*
G02*
X187430000Y-104400000I-1270000J0D01*
G01*
X187430000Y-104400000D02*
G75*
G02*
X189970000Y-104400000I1270000J0D01*
G01*
%TD*%
M02*
